<svg width="467" height="227" viewBox="0 0 467 227" fill="none" xmlns="http://www.w3.org/2000/svg">
<ellipse cx="237.005" cy="88.6252" rx="192" ry="84" fill="black"/>
<path d="M25.5049 91C36.0049 66 33.2026 54.977 71.0054 30.5C-9.49512 76.5 -12.1966 114.363 25.5049 91Z" fill="white"/>
<path d="M382.224 142.227C409.236 151.625 452.236 179.498 235.236 179.498C405.736 185.625 453.236 160.625 382.224 142.227Z" fill="white"/>
<path d="M142.677 83.3723H145.129C144.675 88.1252 143.419 92.0759 141.36 95.2244C139.332 98.3425 136.622 100.674 133.232 102.218C129.871 103.761 125.981 104.533 121.561 104.533C117.928 104.533 114.644 103.837 111.707 102.445C108.771 101.052 106.243 99.0691 104.124 96.4958C102.035 93.9226 100.43 90.865 99.3103 87.323C98.1901 83.7507 97.6301 79.8152 97.6301 75.5164V65.6169C97.6301 61.2878 98.1901 57.3523 99.3103 53.8103C100.43 50.2683 102.035 47.2107 104.124 44.6375C106.243 42.0642 108.771 40.0813 111.707 38.6887C114.644 37.2961 117.928 36.5999 121.561 36.5999C125.981 36.5999 129.871 37.3718 133.232 38.9158C136.622 40.4597 139.332 42.7908 141.36 45.9089C143.419 49.0271 144.675 52.9475 145.129 57.6702H142.677C142.223 53.6135 141.118 50.2078 139.362 47.4529C137.636 44.698 135.275 42.6091 132.278 41.1863C129.311 39.7634 125.739 39.052 121.561 39.052C118.352 39.052 115.431 39.6877 112.797 40.9592C110.163 42.2004 107.893 43.9866 105.986 46.3176C104.109 48.6487 102.655 51.4338 101.626 54.6731C100.597 57.9124 100.082 61.53 100.082 65.5261V75.5164C100.082 79.5125 100.597 83.1453 101.626 86.4148C102.655 89.6843 104.109 92.4846 105.986 94.8157C107.893 97.1467 110.163 98.948 112.797 100.219C115.431 101.461 118.352 102.081 121.561 102.081C125.648 102.081 129.19 101.43 132.187 100.129C135.184 98.7966 137.561 96.7532 139.317 93.9983C141.103 91.2131 142.223 87.6711 142.677 83.3723ZM157.938 33.8752V103.625H155.486V33.8752H157.938ZM157.53 74.8352L156.213 72.2468C156.516 69.825 157.182 67.509 158.211 65.2991C159.24 63.0588 160.587 61.0608 162.252 59.3049C163.917 57.5491 165.855 56.1565 168.065 55.1272C170.275 54.0979 172.712 53.5833 175.376 53.5833C177.858 53.5833 180.068 53.9314 182.006 54.6277C183.943 55.2937 185.578 56.3684 186.91 57.8518C188.242 59.3049 189.256 61.1819 189.953 63.4827C190.649 65.7834 190.997 68.5686 190.997 71.8381V103.625H188.545V71.8381C188.545 67.6604 187.97 64.4363 186.819 62.1658C185.699 59.865 184.14 58.2605 182.142 57.3523C180.144 56.4441 177.843 55.99 175.24 55.99C172.152 55.99 169.503 56.6863 167.293 58.0789C165.113 59.4412 163.312 61.1516 161.889 63.2102C160.497 65.2688 159.437 67.3577 158.71 69.4768C158.014 71.5959 157.621 73.3821 157.53 74.8352ZM233.55 94.407V69.0227C233.55 66.2981 232.96 63.967 231.779 62.0295C230.629 60.092 228.933 58.6086 226.693 57.5793C224.483 56.55 221.774 56.0354 218.565 56.0354C215.598 56.0354 212.919 56.5652 210.527 57.6248C208.166 58.6541 206.289 60.0769 204.896 61.8933C203.534 63.7097 202.853 65.7532 202.853 68.0237L200.401 67.9329C200.401 66.0256 200.839 64.2092 201.717 62.4836C202.626 60.7581 203.882 59.2292 205.486 57.8972C207.121 56.5652 209.044 55.5208 211.254 54.7639C213.494 53.9768 215.931 53.5833 218.565 53.5833C221.985 53.5833 224.998 54.1584 227.601 55.3088C230.235 56.4592 232.294 58.1848 233.777 60.4856C235.26 62.7864 236.002 65.6624 236.002 69.1135V93.7258C236.002 95.4817 236.108 97.2527 236.32 99.0388C236.562 100.825 236.88 102.218 237.274 103.217V103.625H234.458C234.155 102.445 233.928 101.022 233.777 99.3567C233.626 97.6614 233.55 96.0115 233.55 94.407ZM234.64 76.1975L234.731 78.6951H221.925C218.746 78.6951 215.901 79.0129 213.388 79.6487C210.875 80.2542 208.741 81.1169 206.985 82.2371C205.229 83.3572 203.882 84.6892 202.943 86.2332C202.005 87.7771 201.536 89.4875 201.536 91.3645C201.536 93.3323 202.066 95.1335 203.125 96.7683C204.215 98.4031 205.714 99.7048 207.621 100.674C209.528 101.642 211.723 102.127 214.205 102.127C217.656 102.127 220.714 101.567 223.378 100.447C226.042 99.2961 228.298 97.6917 230.144 95.6331C231.991 93.5745 233.399 91.1375 234.367 88.322L235.457 90.5925C234.882 92.2878 234.019 93.968 232.869 95.6331C231.749 97.2678 230.311 98.7664 228.555 100.129C226.799 101.461 224.725 102.535 222.334 103.353C219.972 104.14 217.263 104.533 214.205 104.533C211.148 104.533 208.484 103.973 206.213 102.853C203.943 101.703 202.187 100.129 200.945 98.1306C199.704 96.1023 199.084 93.7864 199.084 91.1829C199.084 89.0032 199.598 87.0051 200.628 85.1887C201.657 83.342 203.14 81.7527 205.078 80.4207C207.046 79.0583 209.437 78.0139 212.253 77.2874C215.068 76.5608 218.247 76.1975 221.789 76.1975H234.64ZM250.582 64.9812V103.625H248.13V54.4915H250.582V64.9812ZM250.174 74.8352L248.857 72.2468C249.16 69.825 249.826 67.509 250.855 65.2991C251.884 63.0588 253.231 61.0608 254.896 59.3049C256.561 57.5491 258.499 56.1565 260.709 55.1272C262.919 54.0979 265.356 53.5833 268.02 53.5833C270.502 53.5833 272.712 53.9314 274.65 54.6277C276.587 55.2937 278.222 56.3684 279.554 57.8518C280.886 59.3049 281.9 61.1819 282.597 63.4827C283.293 65.7834 283.641 68.5686 283.641 71.8381V103.625H281.189V71.8381C281.189 67.6604 280.614 64.4363 279.463 62.1658C278.343 59.865 276.784 58.2605 274.786 57.3523C272.788 56.4441 270.487 55.99 267.884 55.99C264.796 55.99 262.147 56.6863 259.937 58.0789C257.757 59.4412 255.956 61.1516 254.533 63.2102C253.14 65.2688 252.081 67.3577 251.354 69.4768C250.658 71.5959 250.265 73.3821 250.174 74.8352ZM312.026 102.081C314.599 102.081 317.036 101.627 319.337 100.719C321.668 99.7805 323.606 98.3274 325.149 96.3596C326.724 94.3918 327.602 91.8489 327.783 88.7307H330.235C330.084 92.0608 329.161 94.9065 327.465 97.2678C325.77 99.6292 323.575 101.43 320.881 102.672C318.187 103.913 315.235 104.533 312.026 104.533C308.847 104.533 306.002 103.943 303.489 102.762C301.006 101.552 298.902 99.8562 297.177 97.6765C295.482 95.4968 294.18 92.9084 293.272 89.9114C292.394 86.9143 291.955 83.6145 291.955 80.012V78.1047C291.955 74.5022 292.394 71.2024 293.272 68.2053C294.18 65.2083 295.482 62.6199 297.177 60.4402C298.902 58.2605 300.991 56.5803 303.443 55.3997C305.926 54.1887 308.756 53.5833 311.935 53.5833C315.114 53.5833 318.05 54.2341 320.745 55.5359C323.469 56.8074 325.694 58.7146 327.42 61.2576C329.146 63.8005 330.084 66.949 330.235 70.7029H327.783C327.632 67.4333 326.799 64.7239 325.286 62.5745C323.802 60.3948 321.88 58.76 319.519 57.6702C317.157 56.5803 314.629 56.0354 311.935 56.0354C308.938 56.0354 306.335 56.6106 304.125 57.761C301.915 58.8811 300.083 60.4553 298.63 62.4836C297.207 64.512 296.148 66.8582 295.451 69.5222C294.755 72.1863 294.407 75.0471 294.407 78.1047V80.012C294.407 83.0999 294.755 85.9758 295.451 88.6399C296.148 91.304 297.207 93.6501 298.63 95.6785C300.083 97.6765 301.915 99.2507 304.125 100.401C306.365 101.521 308.999 102.081 312.026 102.081ZM356.532 104.533C353.534 104.533 350.734 103.943 348.131 102.762C345.527 101.552 343.242 99.8562 341.274 97.6765C339.306 95.4968 337.762 92.9236 336.642 89.9568C335.552 86.9597 335.007 83.675 335.007 80.1028V78.1047C335.007 74.5022 335.537 71.2175 336.596 68.2507C337.686 65.2537 339.17 62.6653 341.047 60.4856C342.954 58.2756 345.149 56.5803 347.631 55.3997C350.114 54.1887 352.778 53.5833 355.623 53.5833C358.348 53.5833 360.846 54.0979 363.116 55.1272C365.387 56.1262 367.354 57.5491 369.019 59.3958C370.715 61.2424 372.016 63.4524 372.925 66.0256C373.833 68.5989 374.287 71.4446 374.287 74.5627V77.4236H336.596V74.9714H371.835V74.3811C371.835 71.0813 371.169 68.054 369.837 65.2991C368.505 62.5139 366.628 60.2737 364.206 58.5784C361.784 56.8831 358.923 56.0354 355.623 56.0354C352.899 56.0354 350.416 56.6106 348.176 57.761C345.966 58.9114 344.059 60.5007 342.454 62.5291C340.85 64.5271 339.609 66.8582 338.731 69.5222C337.883 72.1863 337.459 75.0471 337.459 78.1047V80.1028C337.459 83.1604 337.944 86.0212 338.912 88.6853C339.881 91.3494 341.228 93.6956 342.954 95.7239C344.679 97.7219 346.693 99.2961 348.993 100.447C351.325 101.567 353.837 102.127 356.532 102.127C359.347 102.127 361.966 101.657 364.387 100.719C366.84 99.7805 369.08 97.9944 371.108 95.3606L372.834 96.5867C371.744 98.1306 370.427 99.5081 368.883 100.719C367.369 101.9 365.583 102.838 363.525 103.534C361.496 104.2 359.165 104.533 356.532 104.533Z" fill="white"/>
<path d="M112.215 135.016L116.746 115.875H119.277L119.855 119.063L115.027 138.625H112.309L112.215 135.016ZM109.887 115.875L113.637 135.016L113.324 138.625H110.293L105.246 115.875H109.887ZM123.84 134.938L127.543 115.875H132.184L127.152 138.625H124.121L123.84 134.938ZM120.699 115.875L125.262 135.094L125.137 138.625H122.418L117.559 119.047L118.184 115.875H120.699ZM152.93 138.938C151.618 138.938 150.441 138.729 149.399 138.313C148.357 137.886 147.472 137.297 146.743 136.547C146.024 135.797 145.472 134.927 145.087 133.938C144.701 132.938 144.509 131.875 144.509 130.75V130.125C144.509 128.844 144.691 127.672 145.055 126.61C145.42 125.547 145.941 124.625 146.618 123.844C147.305 123.063 148.139 122.464 149.118 122.047C150.097 121.62 151.201 121.406 152.43 121.406C153.628 121.406 154.691 121.604 155.618 122C156.545 122.396 157.321 122.959 157.946 123.688C158.581 124.417 159.061 125.292 159.384 126.313C159.706 127.323 159.868 128.448 159.868 129.688V131.563H146.43V128.563H155.446V128.219C155.446 127.594 155.331 127.037 155.102 126.547C154.884 126.047 154.55 125.651 154.102 125.36C153.654 125.068 153.081 124.922 152.384 124.922C151.79 124.922 151.279 125.052 150.852 125.313C150.425 125.573 150.076 125.938 149.805 126.406C149.545 126.875 149.347 127.427 149.212 128.063C149.087 128.688 149.024 129.375 149.024 130.125V130.75C149.024 131.427 149.118 132.052 149.305 132.625C149.503 133.198 149.779 133.693 150.134 134.11C150.498 134.526 150.936 134.849 151.446 135.078C151.967 135.308 152.555 135.422 153.212 135.422C154.024 135.422 154.779 135.266 155.477 134.953C156.186 134.63 156.795 134.146 157.305 133.5L159.493 135.875C159.139 136.386 158.654 136.875 158.04 137.344C157.436 137.813 156.706 138.198 155.852 138.5C154.998 138.792 154.024 138.938 152.93 138.938ZM173.63 114.625H178.13V134.75L177.677 138.625H173.63V114.625ZM188.834 130V130.328C188.834 131.589 188.698 132.745 188.427 133.797C188.167 134.849 187.761 135.761 187.209 136.531C186.656 137.292 185.969 137.886 185.146 138.313C184.334 138.729 183.375 138.938 182.271 138.938C181.24 138.938 180.344 138.729 179.584 138.313C178.834 137.896 178.203 137.308 177.693 136.547C177.182 135.787 176.771 134.896 176.459 133.875C176.146 132.854 175.912 131.74 175.755 130.531V129.813C175.912 128.604 176.146 127.49 176.459 126.469C176.771 125.448 177.182 124.558 177.693 123.797C178.203 123.037 178.834 122.448 179.584 122.031C180.334 121.615 181.219 121.406 182.24 121.406C183.354 121.406 184.323 121.62 185.146 122.047C185.979 122.464 186.667 123.058 187.209 123.828C187.761 124.589 188.167 125.495 188.427 126.547C188.698 127.589 188.834 128.74 188.834 130ZM184.334 130.328V130C184.334 129.313 184.281 128.667 184.177 128.063C184.084 127.448 183.917 126.912 183.677 126.453C183.438 125.985 183.11 125.615 182.693 125.344C182.287 125.073 181.761 124.938 181.115 124.938C180.5 124.938 179.979 125.042 179.552 125.25C179.125 125.459 178.771 125.75 178.49 126.125C178.219 126.5 178.016 126.948 177.88 127.469C177.745 127.979 177.662 128.542 177.63 129.156V131.203C177.662 132.026 177.797 132.755 178.037 133.391C178.287 134.016 178.662 134.511 179.162 134.875C179.672 135.229 180.334 135.406 181.146 135.406C181.781 135.406 182.307 135.281 182.724 135.031C183.141 134.781 183.464 134.427 183.693 133.969C183.932 133.511 184.099 132.974 184.193 132.36C184.287 131.735 184.334 131.058 184.334 130.328ZM234.124 132.672C234.124 132.266 234.062 131.901 233.937 131.578C233.822 131.245 233.603 130.943 233.28 130.672C232.957 130.391 232.504 130.115 231.921 129.844C231.338 129.573 230.582 129.292 229.655 129C228.624 128.667 227.645 128.292 226.718 127.875C225.801 127.459 224.989 126.974 224.28 126.422C223.582 125.86 223.03 125.209 222.624 124.469C222.228 123.729 222.03 122.87 222.03 121.891C222.03 120.943 222.239 120.084 222.655 119.313C223.072 118.531 223.655 117.865 224.405 117.313C225.155 116.75 226.041 116.318 227.062 116.016C228.093 115.714 229.223 115.563 230.452 115.563C232.129 115.563 233.593 115.865 234.843 116.469C236.093 117.073 237.062 117.901 237.749 118.953C238.447 120.005 238.796 121.209 238.796 122.563H234.14C234.14 121.896 233.999 121.313 233.718 120.813C233.447 120.302 233.03 119.901 232.468 119.61C231.916 119.318 231.218 119.172 230.374 119.172C229.562 119.172 228.885 119.297 228.343 119.547C227.801 119.787 227.395 120.115 227.124 120.531C226.853 120.938 226.718 121.396 226.718 121.906C226.718 122.292 226.812 122.641 226.999 122.953C227.197 123.266 227.489 123.558 227.874 123.828C228.26 124.099 228.734 124.354 229.296 124.594C229.859 124.834 230.51 125.068 231.249 125.297C232.489 125.672 233.577 126.094 234.515 126.563C235.463 127.031 236.254 127.558 236.89 128.141C237.525 128.724 238.004 129.386 238.327 130.125C238.65 130.865 238.812 131.703 238.812 132.641C238.812 133.63 238.619 134.516 238.234 135.297C237.848 136.078 237.291 136.74 236.562 137.281C235.832 137.823 234.963 138.235 233.952 138.516C232.942 138.797 231.812 138.938 230.562 138.938C229.437 138.938 228.327 138.792 227.234 138.5C226.14 138.198 225.145 137.745 224.249 137.141C223.364 136.537 222.655 135.766 222.124 134.828C221.593 133.891 221.327 132.781 221.327 131.5H226.03C226.03 132.209 226.14 132.808 226.359 133.297C226.577 133.787 226.885 134.183 227.28 134.485C227.687 134.787 228.166 135.005 228.718 135.141C229.28 135.276 229.895 135.344 230.562 135.344C231.374 135.344 232.041 135.229 232.562 135C233.093 134.771 233.484 134.453 233.734 134.047C233.994 133.641 234.124 133.183 234.124 132.672ZM261.199 121.719V124.906H251.355V121.719H261.199ZM253.793 117.547H258.293V133.531C258.293 134.021 258.355 134.396 258.48 134.656C258.616 134.917 258.814 135.099 259.074 135.203C259.335 135.297 259.663 135.344 260.059 135.344C260.34 135.344 260.59 135.334 260.809 135.313C261.038 135.281 261.23 135.25 261.387 135.219L261.402 138.531C261.017 138.656 260.6 138.755 260.152 138.828C259.704 138.901 259.21 138.938 258.668 138.938C257.678 138.938 256.814 138.776 256.074 138.453C255.345 138.12 254.782 137.589 254.387 136.86C253.991 136.13 253.793 135.172 253.793 133.985V117.547ZM284.962 134.578V121.719H289.462V138.625H285.227L284.962 134.578ZM285.462 131.11L286.79 131.078C286.79 132.203 286.66 133.25 286.399 134.219C286.139 135.177 285.748 136.011 285.227 136.719C284.706 137.417 284.05 137.964 283.258 138.36C282.467 138.745 281.535 138.938 280.462 138.938C279.639 138.938 278.878 138.823 278.18 138.594C277.493 138.354 276.899 137.985 276.399 137.485C275.91 136.974 275.524 136.323 275.243 135.531C274.972 134.729 274.837 133.766 274.837 132.641V121.719H279.337V132.672C279.337 133.172 279.394 133.594 279.508 133.938C279.633 134.281 279.805 134.563 280.024 134.781C280.243 135 280.498 135.156 280.79 135.25C281.092 135.344 281.425 135.391 281.79 135.391C282.717 135.391 283.446 135.203 283.977 134.828C284.519 134.453 284.899 133.943 285.118 133.297C285.347 132.641 285.462 131.912 285.462 131.11ZM314.083 134.938V114.625H318.615V138.625H314.537L314.083 134.938ZM303.396 130.375V130.047C303.396 128.755 303.542 127.584 303.833 126.531C304.125 125.469 304.552 124.558 305.115 123.797C305.677 123.037 306.37 122.448 307.193 122.031C308.016 121.615 308.953 121.406 310.005 121.406C310.995 121.406 311.86 121.615 312.599 122.031C313.349 122.448 313.985 123.042 314.505 123.813C315.037 124.573 315.464 125.474 315.787 126.516C316.11 127.547 316.344 128.677 316.49 129.906V130.625C316.344 131.802 316.11 132.896 315.787 133.906C315.464 134.917 315.037 135.802 314.505 136.563C313.985 137.313 313.349 137.896 312.599 138.313C311.849 138.729 310.974 138.938 309.974 138.938C308.922 138.938 307.985 138.724 307.162 138.297C306.349 137.87 305.662 137.271 305.099 136.5C304.547 135.729 304.125 134.823 303.833 133.781C303.542 132.74 303.396 131.604 303.396 130.375ZM307.896 130.047V130.375C307.896 131.073 307.948 131.724 308.052 132.328C308.167 132.933 308.349 133.469 308.599 133.938C308.86 134.396 309.193 134.755 309.599 135.016C310.016 135.266 310.521 135.391 311.115 135.391C311.886 135.391 312.521 135.219 313.021 134.875C313.521 134.521 313.901 134.037 314.162 133.422C314.432 132.808 314.589 132.099 314.63 131.297V129.25C314.599 128.594 314.505 128.005 314.349 127.485C314.203 126.953 313.985 126.5 313.693 126.125C313.412 125.75 313.057 125.459 312.63 125.25C312.214 125.042 311.719 124.938 311.146 124.938C310.563 124.938 310.063 125.073 309.646 125.344C309.229 125.604 308.891 125.964 308.63 126.422C308.38 126.88 308.193 127.422 308.068 128.047C307.953 128.662 307.896 129.328 307.896 130.047ZM338.08 121.719V138.625H333.565V121.719H338.08ZM333.284 117.313C333.284 116.656 333.513 116.115 333.971 115.688C334.429 115.261 335.044 115.047 335.815 115.047C336.575 115.047 337.185 115.261 337.643 115.688C338.112 116.115 338.346 116.656 338.346 117.313C338.346 117.969 338.112 118.511 337.643 118.938C337.185 119.365 336.575 119.578 335.815 119.578C335.044 119.578 334.429 119.365 333.971 118.938C333.513 118.511 333.284 117.969 333.284 117.313ZM352.28 130.344V130.016C352.28 128.776 352.457 127.636 352.812 126.594C353.166 125.542 353.681 124.63 354.359 123.86C355.036 123.089 355.869 122.49 356.859 122.063C357.848 121.625 358.984 121.406 360.265 121.406C361.546 121.406 362.687 121.625 363.687 122.063C364.687 122.49 365.525 123.089 366.202 123.86C366.89 124.63 367.411 125.542 367.765 126.594C368.119 127.636 368.296 128.776 368.296 130.016V130.344C368.296 131.573 368.119 132.714 367.765 133.766C367.411 134.808 366.89 135.719 366.202 136.5C365.525 137.271 364.692 137.87 363.702 138.297C362.713 138.724 361.577 138.938 360.296 138.938C359.015 138.938 357.874 138.724 356.874 138.297C355.885 137.87 355.046 137.271 354.359 136.5C353.681 135.719 353.166 134.808 352.812 133.766C352.457 132.714 352.28 131.573 352.28 130.344ZM356.78 130.016V130.344C356.78 131.052 356.843 131.714 356.968 132.328C357.093 132.943 357.291 133.485 357.562 133.953C357.843 134.412 358.207 134.771 358.655 135.031C359.103 135.292 359.65 135.422 360.296 135.422C360.921 135.422 361.457 135.292 361.905 135.031C362.353 134.771 362.713 134.412 362.984 133.953C363.254 133.485 363.452 132.943 363.577 132.328C363.713 131.714 363.78 131.052 363.78 130.344V130.016C363.78 129.328 363.713 128.683 363.577 128.078C363.452 127.464 363.249 126.922 362.968 126.453C362.697 125.974 362.338 125.599 361.89 125.328C361.442 125.058 360.9 124.922 360.265 124.922C359.629 124.922 359.088 125.058 358.64 125.328C358.202 125.599 357.843 125.974 357.562 126.453C357.291 126.922 357.093 127.464 356.968 128.078C356.843 128.683 356.78 129.328 356.78 130.016Z" fill="white"/>
<path d="M254.505 17.7826C253.624 17.022 248.658 19.2087 248.005 20.2826C250.552 21.6826 253.241 22.5279 254.505 21.2826C255.521 20.2826 255.664 18.7827 254.505 17.7826Z" fill="white"/>
<path fill-rule="evenodd" clip-rule="evenodd" d="M234.236 179.625C-86.7641 175.125 -19.2642 -33.3746 295.236 4.62528C-33.7642 -18.3748 -29.7642 171.125 234.236 179.625ZM47.0562 56.6664C46.969 55.4767 49.2949 51.6088 50.282 51.9173C51.5796 52.3228 52.2311 53.6787 52.032 54.9484C51.7839 56.5295 49.5098 56.8663 47.0562 56.6664ZM41.74 56.4693C40.9848 56.2333 39.2052 59.1926 39.272 60.1029C41.1492 60.2559 42.8892 59.9981 43.0789 58.7884C43.2313 57.8169 42.7329 56.7796 41.74 56.4693ZM40.33 65.5001C40.2881 64.9292 41.4042 63.0732 41.8779 63.2212C42.5006 63.4158 42.8132 64.0664 42.7177 64.6757C42.5986 65.4344 41.5074 65.5961 40.33 65.5001Z" fill="white"/>
<path fill-rule="evenodd" clip-rule="evenodd" d="M379.834 20.7726L403.464 22.3184C403.917 21.5663 404.462 20.7284 405.061 19.8504L381.503 17.3293C380.962 18.5504 380.355 19.8148 379.834 20.7726ZM411.256 22.8281L404.569 22.3907C404.993 21.6261 405.452 20.7693 405.884 19.9385L411.489 20.5383C411.388 21.3569 411.308 22.1299 411.256 22.8281ZM412.254 22.8934L466.897 26.4678L412.327 20.6279C412.31 21.4179 412.286 22.199 412.254 22.8934ZM379.912 17.159C378.971 18.4428 378.206 19.65 377.776 20.638L359.724 19.4571C356.489 19.2085 353.547 18.9353 350.904 18.6477C352.828 17.2501 354.524 15.8327 355.459 14.6602C357.168 14.7927 358.981 14.947 360.902 15.1246L379.912 17.159ZM349.674 18.5103C328.402 16.0734 328.089 12.7459 353.045 14.4823C351.944 15.6704 350.622 17.262 349.674 18.5103Z" fill="white"/>
</svg>
