<svg width="465" height="181" viewBox="0 0 465 181" fill="none" xmlns="http://www.w3.org/2000/svg">
<ellipse cx="235.006" cy="88.6252" rx="192" ry="84" fill="white"/>
<path d="M140.677 83.3723H143.129C142.675 88.1252 141.419 92.0759 139.36 95.2244C137.332 98.3425 134.623 100.674 131.232 102.218C127.872 103.761 123.981 104.533 119.561 104.533C115.929 104.533 112.644 103.837 109.707 102.445C106.771 101.052 104.243 99.0691 102.124 96.4958C100.035 93.9226 98.4306 90.865 97.3105 87.323C96.1904 83.7507 95.6303 79.8152 95.6303 75.5164V65.6169C95.6303 61.2878 96.1904 57.3523 97.3105 53.8103C98.4306 50.2683 100.035 47.2107 102.124 44.6375C104.243 42.0642 106.771 40.0813 109.707 38.6887C112.644 37.2961 115.929 36.5999 119.561 36.5999C123.981 36.5999 127.872 37.3718 131.232 38.9158C134.623 40.4597 137.332 42.7908 139.36 45.9089C141.419 49.0271 142.675 52.9475 143.129 57.6702H140.677C140.223 53.6135 139.118 50.2078 137.362 47.4529C135.637 44.698 133.275 42.6091 130.278 41.1863C127.311 39.7634 123.739 39.052 119.561 39.052C116.352 39.052 113.431 39.6877 110.797 40.9592C108.164 42.2004 105.893 43.9866 103.986 46.3176C102.109 48.6487 100.656 51.4338 99.6264 54.6731C98.5971 57.9124 98.0825 61.53 98.0825 65.5261V75.5164C98.0825 79.5125 98.5971 83.1453 99.6264 86.4148C100.656 89.6843 102.109 92.4846 103.986 94.8157C105.893 97.1467 108.164 98.948 110.797 100.219C113.431 101.461 116.352 102.081 119.561 102.081C123.648 102.081 127.19 101.43 130.187 100.129C133.185 98.7966 135.561 96.7532 137.317 93.9983C139.103 91.2131 140.223 87.6711 140.677 83.3723ZM155.939 33.8752V103.625H153.486V33.8752H155.939ZM155.53 74.8352L154.213 72.2468C154.516 69.825 155.182 67.509 156.211 65.2991C157.24 63.0588 158.588 61.0608 160.253 59.3049C161.918 57.5491 163.855 56.1565 166.065 55.1272C168.275 54.0979 170.712 53.5833 173.376 53.5833C175.859 53.5833 178.069 53.9314 180.006 54.6277C181.944 55.2937 183.578 56.3684 184.91 57.8518C186.242 59.3049 187.257 61.1819 187.953 63.4827C188.649 65.7834 188.997 68.5686 188.997 71.8381V103.625H186.545V71.8381C186.545 67.6604 185.97 64.4363 184.82 62.1658C183.699 59.865 182.14 58.2605 180.142 57.3523C178.144 56.4441 175.843 55.99 173.24 55.99C170.152 55.99 167.503 56.6863 165.293 58.0789C163.113 59.4412 161.312 61.1516 159.889 63.2102C158.497 65.2688 157.437 67.3577 156.711 69.4768C156.014 71.5959 155.621 73.3821 155.53 74.8352ZM231.55 94.407V69.0227C231.55 66.2981 230.96 63.967 229.779 62.0295C228.629 60.092 226.933 58.6086 224.693 57.5793C222.483 56.55 219.774 56.0354 216.565 56.0354C213.598 56.0354 210.919 56.5652 208.527 57.6248C206.166 58.6541 204.289 60.0769 202.896 61.8933C201.534 63.7097 200.853 65.7532 200.853 68.0237L198.401 67.9329C198.401 66.0256 198.84 64.2092 199.718 62.4836C200.626 60.7581 201.882 59.2292 203.487 57.8972C205.121 56.5652 207.044 55.5208 209.254 54.7639C211.494 53.9768 213.931 53.5833 216.565 53.5833C219.986 53.5833 222.998 54.1584 225.601 55.3088C228.235 56.4592 230.294 58.1848 231.777 60.4856C233.261 62.7864 234.002 65.6624 234.002 69.1135V93.7258C234.002 95.4817 234.108 97.2527 234.32 99.0388C234.562 100.825 234.88 102.218 235.274 103.217V103.625H232.458C232.156 102.445 231.929 101.022 231.777 99.3567C231.626 97.6614 231.55 96.0115 231.55 94.407ZM232.64 76.1975L232.731 78.6951H219.925C216.746 78.6951 213.901 79.0129 211.388 79.6487C208.875 80.2542 206.741 81.1169 204.985 82.2371C203.229 83.3572 201.882 84.6892 200.944 86.2332C200.005 87.7771 199.536 89.4875 199.536 91.3645C199.536 93.3323 200.066 95.1335 201.125 96.7683C202.215 98.4031 203.714 99.7048 205.621 100.674C207.528 101.642 209.723 102.127 212.205 102.127C215.657 102.127 218.714 101.567 221.378 100.447C224.042 99.2961 226.298 97.6917 228.144 95.6331C229.991 93.5745 231.399 91.1375 232.368 88.322L233.457 90.5925C232.882 92.2878 232.019 93.968 230.869 95.6331C229.749 97.2678 228.311 98.7664 226.555 100.129C224.799 101.461 222.725 102.535 220.334 103.353C217.973 104.14 215.263 104.533 212.205 104.533C209.148 104.533 206.484 103.973 204.213 102.853C201.943 101.703 200.187 100.129 198.946 98.1306C197.704 96.1023 197.084 93.7864 197.084 91.1829C197.084 89.0032 197.599 87.0051 198.628 85.1887C199.657 83.342 201.141 81.7527 203.078 80.4207C205.046 79.0583 207.437 78.0139 210.253 77.2874C213.068 76.5608 216.247 76.1975 219.789 76.1975H232.64ZM248.583 64.9812V103.625H246.13V54.4915H248.583V64.9812ZM248.174 74.8352L246.857 72.2468C247.16 69.825 247.826 67.509 248.855 65.2991C249.884 63.0588 251.232 61.0608 252.897 59.3049C254.562 57.5491 256.499 56.1565 258.709 55.1272C260.919 54.0979 263.356 53.5833 266.02 53.5833C268.503 53.5833 270.713 53.9314 272.65 54.6277C274.588 55.2937 276.222 56.3684 277.554 57.8518C278.886 59.3049 279.9 61.1819 280.597 63.4827C281.293 65.7834 281.641 68.5686 281.641 71.8381V103.625H279.189V71.8381C279.189 67.6604 278.614 64.4363 277.463 62.1658C276.343 59.865 274.784 58.2605 272.786 57.3523C270.788 56.4441 268.487 55.99 265.884 55.99C262.796 55.99 260.147 56.6863 257.937 58.0789C255.757 59.4412 253.956 61.1516 252.533 63.2102C251.141 65.2688 250.081 67.3577 249.355 69.4768C248.658 71.5959 248.265 73.3821 248.174 74.8352ZM310.026 102.081C312.599 102.081 315.036 101.627 317.337 100.719C319.668 99.7805 321.606 98.3274 323.15 96.3596C324.724 94.3918 325.602 91.8489 325.784 88.7307H328.236C328.084 92.0608 327.161 94.9065 325.466 97.2678C323.77 99.6292 321.576 101.43 318.881 102.672C316.187 103.913 313.235 104.533 310.026 104.533C306.847 104.533 304.002 103.943 301.489 102.762C299.007 101.552 296.903 99.8562 295.177 97.6765C293.482 95.4968 292.18 92.9084 291.272 89.9114C290.394 86.9143 289.955 83.6145 289.955 80.012V78.1047C289.955 74.5022 290.394 71.2024 291.272 68.2053C292.18 65.2083 293.482 62.6199 295.177 60.4402C296.903 58.2605 298.992 56.5803 301.444 55.3997C303.926 54.1887 306.757 53.5833 309.935 53.5833C313.114 53.5833 316.051 54.2341 318.745 55.5359C321.47 56.8074 323.695 58.7146 325.42 61.2576C327.146 63.8005 328.084 66.949 328.236 70.7029H325.784C325.632 67.4333 324.8 64.7239 323.286 62.5745C321.803 60.3948 319.88 58.76 317.519 57.6702C315.158 56.5803 312.63 56.0354 309.935 56.0354C306.938 56.0354 304.335 56.6106 302.125 57.761C299.915 58.8811 298.083 60.4553 296.63 62.4836C295.207 64.512 294.148 66.8582 293.451 69.5222C292.755 72.1863 292.407 75.0471 292.407 78.1047V80.012C292.407 83.0999 292.755 85.9758 293.451 88.6399C294.148 91.304 295.207 93.6501 296.63 95.6785C298.083 97.6765 299.915 99.2507 302.125 100.401C304.365 101.521 306.999 102.081 310.026 102.081ZM354.532 104.533C351.535 104.533 348.734 103.943 346.131 102.762C343.527 101.552 341.242 99.8562 339.274 97.6765C337.306 95.4968 335.762 92.9236 334.642 89.9568C333.552 86.9597 333.007 83.675 333.007 80.1028V78.1047C333.007 74.5022 333.537 71.2175 334.597 68.2507C335.687 65.2537 337.17 62.6653 339.047 60.4856C340.954 58.2756 343.149 56.5803 345.631 55.3997C348.114 54.1887 350.778 53.5833 353.624 53.5833C356.348 53.5833 358.846 54.0979 361.116 55.1272C363.387 56.1262 365.355 57.5491 367.02 59.3958C368.715 61.2424 370.017 63.4524 370.925 66.0256C371.833 68.5989 372.287 71.4446 372.287 74.5627V77.4236H334.597V74.9714H369.835V74.3811C369.835 71.0813 369.169 68.054 367.837 65.2991C366.505 62.5139 364.628 60.2737 362.206 58.5784C359.784 56.8831 356.923 56.0354 353.624 56.0354C350.899 56.0354 348.417 56.6106 346.176 57.761C343.966 58.9114 342.059 60.5007 340.455 62.5291C338.85 64.5271 337.609 66.8582 336.731 69.5222C335.883 72.1863 335.46 75.0471 335.46 78.1047V80.1028C335.46 83.1604 335.944 86.0212 336.913 88.6853C337.881 91.3494 339.229 93.6956 340.954 95.7239C342.68 97.7219 344.693 99.2961 346.994 100.447C349.325 101.567 351.837 102.127 354.532 102.127C357.347 102.127 359.966 101.657 362.388 100.719C364.84 99.7805 367.08 97.9944 369.108 95.3606L370.834 96.5867C369.744 98.1306 368.427 99.5081 366.883 100.719C365.37 101.9 363.584 102.838 361.525 103.534C359.497 104.2 357.166 104.533 354.532 104.533Z" fill="black"/>
<path d="M110.215 135.016L114.746 115.875H117.277L117.856 119.063L113.027 138.625H110.309L110.215 135.016ZM107.887 115.875L111.637 135.016L111.324 138.625H108.293L103.246 115.875H107.887ZM121.84 134.938L125.543 115.875H130.184L125.152 138.625H122.121L121.84 134.938ZM118.699 115.875L123.262 135.094L123.137 138.625H120.418L115.559 119.047L116.184 115.875H118.699ZM150.931 138.938C149.618 138.938 148.441 138.729 147.399 138.313C146.358 137.886 145.472 137.297 144.743 136.547C144.024 135.797 143.472 134.927 143.087 133.938C142.701 132.938 142.509 131.875 142.509 130.75V130.125C142.509 128.844 142.691 127.672 143.056 126.61C143.42 125.547 143.941 124.625 144.618 123.844C145.306 123.063 146.139 122.464 147.118 122.047C148.097 121.62 149.201 121.406 150.431 121.406C151.629 121.406 152.691 121.604 153.618 122C154.545 122.396 155.321 122.959 155.946 123.688C156.582 124.417 157.061 125.292 157.384 126.313C157.707 127.323 157.868 128.448 157.868 129.688V131.563H144.431V128.563H153.446V128.219C153.446 127.594 153.332 127.037 153.102 126.547C152.884 126.047 152.55 125.651 152.102 125.36C151.655 125.068 151.082 124.922 150.384 124.922C149.79 124.922 149.28 125.052 148.852 125.313C148.425 125.573 148.076 125.938 147.806 126.406C147.545 126.875 147.347 127.427 147.212 128.063C147.087 128.688 147.024 129.375 147.024 130.125V130.75C147.024 131.427 147.118 132.052 147.306 132.625C147.504 133.198 147.78 133.693 148.134 134.11C148.498 134.526 148.936 134.849 149.446 135.078C149.967 135.308 150.556 135.422 151.212 135.422C152.024 135.422 152.78 135.266 153.477 134.953C154.186 134.63 154.795 134.146 155.306 133.5L157.493 135.875C157.139 136.386 156.655 136.875 156.04 137.344C155.436 137.813 154.707 138.198 153.852 138.5C152.998 138.792 152.024 138.938 150.931 138.938ZM171.631 114.625H176.131V134.75L175.677 138.625H171.631V114.625ZM186.834 130V130.328C186.834 131.589 186.698 132.745 186.427 133.797C186.167 134.849 185.761 135.761 185.209 136.531C184.657 137.292 183.969 137.886 183.146 138.313C182.334 138.729 181.375 138.938 180.271 138.938C179.24 138.938 178.344 138.729 177.584 138.313C176.834 137.896 176.204 137.308 175.693 136.547C175.183 135.787 174.771 134.896 174.459 133.875C174.146 132.854 173.912 131.74 173.756 130.531V129.813C173.912 128.604 174.146 127.49 174.459 126.469C174.771 125.448 175.183 124.558 175.693 123.797C176.204 123.037 176.834 122.448 177.584 122.031C178.334 121.615 179.219 121.406 180.24 121.406C181.355 121.406 182.323 121.62 183.146 122.047C183.98 122.464 184.667 123.058 185.209 123.828C185.761 124.589 186.167 125.495 186.427 126.547C186.698 127.589 186.834 128.74 186.834 130ZM182.334 130.328V130C182.334 129.313 182.282 128.667 182.177 128.063C182.084 127.448 181.917 126.912 181.677 126.453C181.438 125.985 181.11 125.615 180.693 125.344C180.287 125.073 179.761 124.938 179.115 124.938C178.5 124.938 177.98 125.042 177.552 125.25C177.125 125.459 176.771 125.75 176.49 126.125C176.219 126.5 176.016 126.948 175.881 127.469C175.745 127.979 175.662 128.542 175.631 129.156V131.203C175.662 132.026 175.797 132.755 176.037 133.391C176.287 134.016 176.662 134.511 177.162 134.875C177.672 135.229 178.334 135.406 179.146 135.406C179.782 135.406 180.308 135.281 180.724 135.031C181.141 134.781 181.464 134.427 181.693 133.969C181.933 133.511 182.099 132.974 182.193 132.36C182.287 131.735 182.334 131.058 182.334 130.328ZM232.124 132.672C232.124 132.266 232.062 131.901 231.937 131.578C231.822 131.245 231.604 130.943 231.281 130.672C230.958 130.391 230.505 130.115 229.921 129.844C229.338 129.573 228.583 129.292 227.656 129C226.624 128.667 225.645 128.292 224.718 127.875C223.801 127.459 222.989 126.974 222.281 126.422C221.583 125.86 221.031 125.209 220.624 124.469C220.229 123.729 220.031 122.87 220.031 121.891C220.031 120.943 220.239 120.084 220.656 119.313C221.072 118.531 221.656 117.865 222.406 117.313C223.156 116.75 224.041 116.318 225.062 116.016C226.093 115.714 227.223 115.563 228.452 115.563C230.13 115.563 231.593 115.865 232.843 116.469C234.093 117.073 235.062 117.901 235.749 118.953C236.447 120.005 236.796 121.209 236.796 122.563H232.14C232.14 121.896 231.999 121.313 231.718 120.813C231.447 120.302 231.031 119.901 230.468 119.61C229.916 119.318 229.218 119.172 228.374 119.172C227.562 119.172 226.885 119.297 226.343 119.547C225.801 119.787 225.395 120.115 225.124 120.531C224.854 120.938 224.718 121.396 224.718 121.906C224.718 122.292 224.812 122.641 224.999 122.953C225.197 123.266 225.489 123.558 225.874 123.828C226.26 124.099 226.734 124.354 227.296 124.594C227.859 124.834 228.51 125.068 229.249 125.297C230.489 125.672 231.577 126.094 232.515 126.563C233.463 127.031 234.255 127.558 234.89 128.141C235.525 128.724 236.005 129.386 236.327 130.125C236.65 130.865 236.812 131.703 236.812 132.641C236.812 133.63 236.619 134.516 236.234 135.297C235.848 136.078 235.291 136.74 234.562 137.281C233.833 137.823 232.963 138.235 231.952 138.516C230.942 138.797 229.812 138.938 228.562 138.938C227.437 138.938 226.327 138.792 225.234 138.5C224.14 138.198 223.145 137.745 222.249 137.141C221.364 136.537 220.656 135.766 220.124 134.828C219.593 133.891 219.327 132.781 219.327 131.5H224.031C224.031 132.209 224.14 132.808 224.359 133.297C224.577 133.787 224.885 134.183 225.281 134.485C225.687 134.787 226.166 135.005 226.718 135.141C227.281 135.276 227.895 135.344 228.562 135.344C229.374 135.344 230.041 135.229 230.562 135C231.093 134.771 231.484 134.453 231.734 134.047C231.994 133.641 232.124 133.183 232.124 132.672ZM259.199 121.719V124.906H249.356V121.719H259.199ZM251.793 117.547H256.293V133.531C256.293 134.021 256.356 134.396 256.481 134.656C256.616 134.917 256.814 135.099 257.074 135.203C257.335 135.297 257.663 135.344 258.059 135.344C258.34 135.344 258.59 135.334 258.809 135.313C259.038 135.281 259.231 135.25 259.387 135.219L259.402 138.531C259.017 138.656 258.6 138.755 258.152 138.828C257.705 138.901 257.21 138.938 256.668 138.938C255.679 138.938 254.814 138.776 254.074 138.453C253.345 138.12 252.783 137.589 252.387 136.86C251.991 136.13 251.793 135.172 251.793 133.985V117.547ZM282.962 134.578V121.719H287.462V138.625H283.227L282.962 134.578ZM283.462 131.11L284.79 131.078C284.79 132.203 284.66 133.25 284.399 134.219C284.139 135.177 283.748 136.011 283.227 136.719C282.707 137.417 282.05 137.964 281.259 138.36C280.467 138.745 279.535 138.938 278.462 138.938C277.639 138.938 276.879 138.823 276.181 138.594C275.493 138.354 274.899 137.985 274.399 137.485C273.91 136.974 273.524 136.323 273.243 135.531C272.972 134.729 272.837 133.766 272.837 132.641V121.719H277.337V132.672C277.337 133.172 277.394 133.594 277.509 133.938C277.634 134.281 277.806 134.563 278.024 134.781C278.243 135 278.498 135.156 278.79 135.25C279.092 135.344 279.425 135.391 279.79 135.391C280.717 135.391 281.446 135.203 281.977 134.828C282.519 134.453 282.899 133.943 283.118 133.297C283.347 132.641 283.462 131.912 283.462 131.11ZM312.084 134.938V114.625H316.615V138.625H312.537L312.084 134.938ZM301.396 130.375V130.047C301.396 128.755 301.542 127.584 301.834 126.531C302.125 125.469 302.552 124.558 303.115 123.797C303.677 123.037 304.37 122.448 305.193 122.031C306.016 121.615 306.954 121.406 308.006 121.406C308.995 121.406 309.86 121.615 310.599 122.031C311.349 122.448 311.985 123.042 312.506 123.813C313.037 124.573 313.464 125.474 313.787 126.516C314.11 127.547 314.344 128.677 314.49 129.906V130.625C314.344 131.802 314.11 132.896 313.787 133.906C313.464 134.917 313.037 135.802 312.506 136.563C311.985 137.313 311.349 137.896 310.599 138.313C309.849 138.729 308.974 138.938 307.974 138.938C306.922 138.938 305.985 138.724 305.162 138.297C304.349 137.87 303.662 137.271 303.099 136.5C302.547 135.729 302.125 134.823 301.834 133.781C301.542 132.74 301.396 131.604 301.396 130.375ZM305.896 130.047V130.375C305.896 131.073 305.948 131.724 306.052 132.328C306.167 132.933 306.349 133.469 306.599 133.938C306.86 134.396 307.193 134.755 307.599 135.016C308.016 135.266 308.521 135.391 309.115 135.391C309.886 135.391 310.521 135.219 311.021 134.875C311.521 134.521 311.901 134.037 312.162 133.422C312.433 132.808 312.589 132.099 312.631 131.297V129.25C312.599 128.594 312.506 128.005 312.349 127.485C312.204 126.953 311.985 126.5 311.693 126.125C311.412 125.75 311.058 125.459 310.631 125.25C310.214 125.042 309.719 124.938 309.146 124.938C308.563 124.938 308.063 125.073 307.646 125.344C307.23 125.604 306.891 125.964 306.631 126.422C306.381 126.88 306.193 127.422 306.068 128.047C305.954 128.662 305.896 129.328 305.896 130.047ZM336.081 121.719V138.625H331.565V121.719H336.081ZM331.284 117.313C331.284 116.656 331.513 116.115 331.971 115.688C332.43 115.261 333.044 115.047 333.815 115.047C334.575 115.047 335.185 115.261 335.643 115.688C336.112 116.115 336.346 116.656 336.346 117.313C336.346 117.969 336.112 118.511 335.643 118.938C335.185 119.365 334.575 119.578 333.815 119.578C333.044 119.578 332.43 119.365 331.971 118.938C331.513 118.511 331.284 117.969 331.284 117.313ZM350.281 130.344V130.016C350.281 128.776 350.458 127.636 350.812 126.594C351.166 125.542 351.682 124.63 352.359 123.86C353.036 123.089 353.869 122.49 354.859 122.063C355.848 121.625 356.984 121.406 358.265 121.406C359.546 121.406 360.687 121.625 361.687 122.063C362.687 122.49 363.525 123.089 364.203 123.86C364.89 124.63 365.411 125.542 365.765 126.594C366.119 127.636 366.296 128.776 366.296 130.016V130.344C366.296 131.573 366.119 132.714 365.765 133.766C365.411 134.808 364.89 135.719 364.203 136.5C363.525 137.271 362.692 137.87 361.703 138.297C360.713 138.724 359.578 138.938 358.296 138.938C357.015 138.938 355.874 138.724 354.874 138.297C353.885 137.87 353.046 137.271 352.359 136.5C351.682 135.719 351.166 134.808 350.812 133.766C350.458 132.714 350.281 131.573 350.281 130.344ZM354.781 130.016V130.344C354.781 131.052 354.843 131.714 354.968 132.328C355.093 132.943 355.291 133.485 355.562 133.953C355.843 134.412 356.208 134.771 356.656 135.031C357.104 135.292 357.65 135.422 358.296 135.422C358.921 135.422 359.458 135.292 359.906 135.031C360.354 134.771 360.713 134.412 360.984 133.953C361.255 133.485 361.453 132.943 361.578 132.328C361.713 131.714 361.781 131.052 361.781 130.344V130.016C361.781 129.328 361.713 128.683 361.578 128.078C361.453 127.464 361.249 126.922 360.968 126.453C360.697 125.974 360.338 125.599 359.89 125.328C359.442 125.058 358.9 124.922 358.265 124.922C357.63 124.922 357.088 125.058 356.64 125.328C356.203 125.599 355.843 125.974 355.562 126.453C355.291 126.922 355.093 127.464 354.968 128.078C354.843 128.683 354.781 129.328 354.781 130.016Z" fill="black"/>
<path d="M23.5049 91C34.0049 66 31.2026 54.977 69.0054 30.5C-11.4951 76.5 -14.1966 114.363 23.5049 91Z" fill="black"/>
<path d="M380.224 142.227C407.236 151.625 450.236 179.498 233.236 179.498C403.736 185.625 451.236 160.625 380.224 142.227Z" fill="black"/>
<path d="M252.505 17.7826C251.624 17.022 246.659 19.2087 246.005 20.2826C248.552 21.6826 251.241 22.5279 252.505 21.2826C253.521 20.2826 253.664 18.7827 252.505 17.7826Z" fill="#B22222"/>
<path fill-rule="evenodd" clip-rule="evenodd" d="M232.236 179.625C-88.7638 175.125 -21.2639 -33.3746 293.236 4.62528C-35.7639 -18.3748 -31.7639 171.125 232.236 179.625ZM45.0565 56.6664C44.9692 55.4767 47.2952 51.6088 48.2822 51.9173C49.5799 52.3228 50.2314 53.6787 50.0322 54.9484C49.7842 56.5295 47.51 56.8663 45.0565 56.6664ZM39.7402 56.4693C38.9851 56.2333 37.2055 59.1926 37.2722 60.1029C39.1495 60.2559 40.8894 59.9981 41.0792 58.7884C41.2316 57.8169 40.7331 56.7796 39.7402 56.4693ZM38.3302 65.5001C38.2884 64.9292 39.4045 63.0732 39.8782 63.2212C40.5009 63.4158 40.8135 64.0664 40.7179 64.6757C40.5989 65.4344 39.5076 65.5961 38.3302 65.5001Z" fill="black"/>
<path d="M377.834 20.7726L401.464 22.3184C401.917 21.5663 402.462 20.7284 403.061 19.8504L379.503 17.3293C378.962 18.5504 378.355 19.8148 377.834 20.7726Z" fill="black"/>
<path d="M409.256 22.8281L402.569 22.3907C402.993 21.6261 403.452 20.7693 403.884 19.9385L409.489 20.5383C409.388 21.3569 409.308 22.1299 409.256 22.8281Z" fill="black"/>
<path d="M410.254 22.8934L464.897 26.4678L410.327 20.6279C410.31 21.4179 410.286 22.199 410.254 22.8934Z" fill="black"/>
<path d="M377.912 17.159C376.971 18.4428 376.206 19.65 375.776 20.638L357.724 19.4571C354.489 19.2085 351.547 18.9353 348.904 18.6477C350.828 17.2501 352.524 15.8327 353.459 14.6602C355.168 14.7927 356.982 14.947 358.902 15.1246L377.912 17.159Z" fill="black"/>
<path d="M347.674 18.5103C326.402 16.0734 326.089 12.7459 351.045 14.4823C349.944 15.6704 348.622 17.262 347.674 18.5103Z" fill="black"/>
</svg>
