<svg width="465" height="181" viewBox="0 0 465 181" fill="none" xmlns="http://www.w3.org/2000/svg">
<ellipse cx="234.961" cy="88.6252" rx="192" ry="84" fill="white"/>
<path d="M140.632 83.3723H143.084C142.63 88.1252 141.374 92.0759 139.315 95.2244C137.287 98.3425 134.578 100.674 131.187 102.218C127.827 103.761 123.936 104.533 119.517 104.533C115.884 104.533 112.599 103.837 109.663 102.445C106.726 101.052 104.198 99.0691 102.079 96.4958C99.9902 93.9226 98.3857 90.865 97.2656 87.323C96.1455 83.7507 95.5854 79.8152 95.5854 75.5164V65.6169C95.5854 61.2878 96.1455 57.3523 97.2656 53.8103C98.3857 50.2683 99.9902 47.2107 102.079 44.6375C104.198 42.0642 106.726 40.0813 109.663 38.6887C112.599 37.2961 115.884 36.5999 119.517 36.5999C123.936 36.5999 127.827 37.3718 131.187 38.9158C134.578 40.4597 137.287 42.7908 139.315 45.9089C141.374 49.0271 142.63 52.9475 143.084 57.6702H140.632C140.178 53.6135 139.073 50.2078 137.317 47.4529C135.592 44.698 133.23 42.6091 130.233 41.1863C127.267 39.7634 123.694 39.052 119.517 39.052C116.308 39.052 113.386 39.6877 110.752 40.9592C108.119 42.2004 105.848 43.9866 103.941 46.3176C102.064 48.6487 100.611 51.4338 99.5815 54.6731C98.5522 57.9124 98.0376 61.53 98.0376 65.5261V75.5164C98.0376 79.5125 98.5522 83.1453 99.5815 86.4148C100.611 89.6843 102.064 92.4846 103.941 94.8157C105.848 97.1467 108.119 98.948 110.752 100.219C113.386 101.461 116.308 102.081 119.517 102.081C123.603 102.081 127.145 101.43 130.143 100.129C133.14 98.7966 135.516 96.7532 137.272 93.9983C139.058 91.2131 140.178 87.6711 140.632 83.3723ZM155.894 33.8752V103.625H153.442V33.8752H155.894ZM155.485 74.8352L154.168 72.2468C154.471 69.825 155.137 67.509 156.166 65.2991C157.195 63.0588 158.543 61.0608 160.208 59.3049C161.873 57.5491 163.81 56.1565 166.02 55.1272C168.23 54.0979 170.667 53.5833 173.331 53.5833C175.814 53.5833 178.024 53.9314 179.961 54.6277C181.899 55.2937 183.533 56.3684 184.865 57.8518C186.197 59.3049 187.212 61.1819 187.908 63.4827C188.604 65.7834 188.952 68.5686 188.952 71.8381V103.625H186.5V71.8381C186.5 67.6604 185.925 64.4363 184.775 62.1658C183.654 59.865 182.095 58.2605 180.097 57.3523C178.099 56.4441 175.799 55.99 173.195 55.99C170.107 55.99 167.458 56.6863 165.248 58.0789C163.069 59.4412 161.267 61.1516 159.844 63.2102C158.452 65.2688 157.392 67.3577 156.666 69.4768C155.969 71.5959 155.576 73.3821 155.485 74.8352ZM231.505 94.407V69.0227C231.505 66.2981 230.915 63.967 229.734 62.0295C228.584 60.092 226.889 58.6086 224.648 57.5793C222.438 56.55 219.729 56.0354 216.52 56.0354C213.553 56.0354 210.874 56.5652 208.482 57.6248C206.121 58.6541 204.244 60.0769 202.851 61.8933C201.489 63.7097 200.808 65.7532 200.808 68.0237L198.356 67.9329C198.356 66.0256 198.795 64.2092 199.673 62.4836C200.581 60.7581 201.837 59.2292 203.442 57.8972C205.077 56.5652 206.999 55.5208 209.209 54.7639C211.449 53.9768 213.886 53.5833 216.52 53.5833C219.941 53.5833 222.953 54.1584 225.557 55.3088C228.19 56.4592 230.249 58.1848 231.732 60.4856C233.216 62.7864 233.957 65.6624 233.957 69.1135V93.7258C233.957 95.4817 234.063 97.2527 234.275 99.0388C234.517 100.825 234.835 102.218 235.229 103.217V103.625H232.413C232.111 102.445 231.884 101.022 231.732 99.3567C231.581 97.6614 231.505 96.0115 231.505 94.407ZM232.595 76.1975L232.686 78.6951H219.88C216.702 78.6951 213.856 79.0129 211.343 79.6487C208.83 80.2542 206.696 81.1169 204.94 82.2371C203.184 83.3572 201.837 84.6892 200.899 86.2332C199.96 87.7771 199.491 89.4875 199.491 91.3645C199.491 93.3323 200.021 95.1335 201.08 96.7683C202.17 98.4031 203.669 99.7048 205.576 100.674C207.483 101.642 209.678 102.127 212.161 102.127C215.612 102.127 218.669 101.567 221.333 100.447C223.997 99.2961 226.253 97.6917 228.1 95.6331C229.946 93.5745 231.354 91.1375 232.323 88.322L233.412 90.5925C232.837 92.2878 231.975 93.968 230.824 95.6331C229.704 97.2678 228.266 98.7664 226.51 100.129C224.754 101.461 222.681 102.535 220.289 103.353C217.928 104.14 215.218 104.533 212.161 104.533C209.103 104.533 206.439 103.973 204.168 102.853C201.898 101.703 200.142 100.129 198.901 98.1306C197.66 96.1023 197.039 93.7864 197.039 91.1829C197.039 89.0032 197.554 87.0051 198.583 85.1887C199.612 83.342 201.096 81.7527 203.033 80.4207C205.001 79.0583 207.392 78.0139 210.208 77.2874C213.023 76.5608 216.202 76.1975 219.744 76.1975H232.595ZM248.538 64.9812V103.625H246.086V54.4915H248.538V64.9812ZM248.129 74.8352L246.812 72.2468C247.115 69.825 247.781 67.509 248.81 65.2991C249.839 63.0588 251.187 61.0608 252.852 59.3049C254.517 57.5491 256.454 56.1565 258.664 55.1272C260.874 54.0979 263.311 53.5833 265.975 53.5833C268.458 53.5833 270.668 53.9314 272.605 54.6277C274.543 55.2937 276.177 56.3684 277.509 57.8518C278.841 59.3049 279.856 61.1819 280.552 63.4827C281.248 65.7834 281.596 68.5686 281.596 71.8381V103.625H279.144V71.8381C279.144 67.6604 278.569 64.4363 277.419 62.1658C276.298 59.865 274.739 58.2605 272.741 57.3523C270.743 56.4441 268.442 55.99 265.839 55.99C262.751 55.99 260.102 56.6863 257.892 58.0789C255.713 59.4412 253.911 61.1516 252.488 63.2102C251.096 65.2688 250.036 67.3577 249.31 69.4768C248.613 71.5959 248.22 73.3821 248.129 74.8352ZM309.981 102.081C312.555 102.081 314.992 101.627 317.292 100.719C319.623 99.7805 321.561 98.3274 323.105 96.3596C324.679 94.3918 325.557 91.8489 325.739 88.7307H328.191C328.039 92.0608 327.116 94.9065 325.421 97.2678C323.725 99.6292 321.531 101.43 318.836 102.672C316.142 103.913 313.19 104.533 309.981 104.533C306.803 104.533 303.957 103.943 301.444 102.762C298.962 101.552 296.858 99.8562 295.132 97.6765C293.437 95.4968 292.135 92.9084 291.227 89.9114C290.349 86.9143 289.91 83.6145 289.91 80.012V78.1047C289.91 74.5022 290.349 71.2024 291.227 68.2053C292.135 65.2083 293.437 62.6199 295.132 60.4402C296.858 58.2605 298.947 56.5803 301.399 55.3997C303.881 54.1887 306.712 53.5833 309.89 53.5833C313.069 53.5833 316.006 54.2341 318.7 55.5359C321.425 56.8074 323.65 58.7146 325.375 61.2576C327.101 63.8005 328.039 66.949 328.191 70.7029H325.739C325.587 67.4333 324.755 64.7239 323.241 62.5745C321.758 60.3948 319.835 58.76 317.474 57.6702C315.113 56.5803 312.585 56.0354 309.89 56.0354C306.893 56.0354 304.29 56.6106 302.08 57.761C299.87 58.8811 298.038 60.4553 296.585 62.4836C295.162 64.512 294.103 66.8582 293.407 69.5222C292.71 72.1863 292.362 75.0471 292.362 78.1047V80.012C292.362 83.0999 292.71 85.9758 293.407 88.6399C294.103 91.304 295.162 93.6501 296.585 95.6785C298.038 97.6765 299.87 99.2507 302.08 100.401C304.32 101.521 306.954 102.081 309.981 102.081ZM354.487 104.533C351.49 104.533 348.689 103.943 346.086 102.762C343.482 101.552 341.197 99.8562 339.229 97.6765C337.261 95.4968 335.717 92.9236 334.597 89.9568C333.507 86.9597 332.962 83.675 332.962 80.1028V78.1047C332.962 74.5022 333.492 71.2175 334.552 68.2507C335.642 65.2537 337.125 62.6653 339.002 60.4856C340.909 58.2756 343.104 56.5803 345.586 55.3997C348.069 54.1887 350.733 53.5833 353.579 53.5833C356.303 53.5833 358.801 54.0979 361.071 55.1272C363.342 56.1262 365.31 57.5491 366.975 59.3958C368.67 61.2424 369.972 63.4524 370.88 66.0256C371.788 68.5989 372.242 71.4446 372.242 74.5627V77.4236H334.552V74.9714H369.79V74.3811C369.79 71.0813 369.124 68.054 367.792 65.2991C366.46 62.5139 364.583 60.2737 362.161 58.5784C359.739 56.8831 356.878 56.0354 353.579 56.0354C350.854 56.0354 348.372 56.6106 346.131 57.761C343.921 58.9114 342.014 60.5007 340.41 62.5291C338.805 64.5271 337.564 66.8582 336.686 69.5222C335.838 72.1863 335.415 75.0471 335.415 78.1047V80.1028C335.415 83.1604 335.899 86.0212 336.868 88.6853C337.836 91.3494 339.184 93.6956 340.909 95.7239C342.635 97.7219 344.648 99.2961 346.949 100.447C349.28 101.567 351.793 102.127 354.487 102.127C357.302 102.127 359.921 101.657 362.343 100.719C364.795 99.7805 367.035 97.9944 369.064 95.3606L370.789 96.5867C369.699 98.1306 368.382 99.5081 366.838 100.719C365.325 101.9 363.539 102.838 361.48 103.534C359.452 104.2 357.121 104.533 354.487 104.533Z" fill="black"/>
<path d="M110.17 135.016L114.701 115.875H117.233L117.811 119.063L112.983 138.625H110.264L110.17 135.016ZM107.842 115.875L111.592 135.016L111.279 138.625H108.248L103.201 115.875H107.842ZM121.795 134.938L125.498 115.875H130.139L125.108 138.625H122.076L121.795 134.938ZM118.654 115.875L123.217 135.094L123.092 138.625H120.373L115.514 119.047L116.139 115.875H118.654ZM150.886 138.938C149.573 138.938 148.396 138.729 147.354 138.313C146.313 137.886 145.427 137.297 144.698 136.547C143.979 135.797 143.427 134.927 143.042 133.938C142.657 132.938 142.464 131.875 142.464 130.75V130.125C142.464 128.844 142.646 127.672 143.011 126.61C143.375 125.547 143.896 124.625 144.573 123.844C145.261 123.063 146.094 122.464 147.073 122.047C148.052 121.62 149.157 121.406 150.386 121.406C151.584 121.406 152.646 121.604 153.573 122C154.5 122.396 155.276 122.959 155.901 123.688C156.537 124.417 157.016 125.292 157.339 126.313C157.662 127.323 157.823 128.448 157.823 129.688V131.563H144.386V128.563H153.401V128.219C153.401 127.594 153.287 127.037 153.058 126.547C152.839 126.047 152.505 125.651 152.058 125.36C151.61 125.068 151.037 124.922 150.339 124.922C149.745 124.922 149.235 125.052 148.808 125.313C148.38 125.573 148.032 125.938 147.761 126.406C147.5 126.875 147.302 127.427 147.167 128.063C147.042 128.688 146.979 129.375 146.979 130.125V130.75C146.979 131.427 147.073 132.052 147.261 132.625C147.459 133.198 147.735 133.693 148.089 134.11C148.453 134.526 148.891 134.849 149.401 135.078C149.922 135.308 150.511 135.422 151.167 135.422C151.979 135.422 152.735 135.266 153.433 134.953C154.141 134.63 154.75 134.146 155.261 133.5L157.448 135.875C157.094 136.386 156.61 136.875 155.995 137.344C155.391 137.813 154.662 138.198 153.808 138.5C152.953 138.792 151.979 138.938 150.886 138.938ZM171.586 114.625H176.086V134.75L175.633 138.625H171.586V114.625ZM186.789 130V130.328C186.789 131.589 186.653 132.745 186.383 133.797C186.122 134.849 185.716 135.761 185.164 136.531C184.612 137.292 183.924 137.886 183.101 138.313C182.289 138.729 181.33 138.938 180.226 138.938C179.195 138.938 178.299 138.729 177.539 138.313C176.789 137.896 176.159 137.308 175.648 136.547C175.138 135.787 174.726 134.896 174.414 133.875C174.101 132.854 173.867 131.74 173.711 130.531V129.813C173.867 128.604 174.101 127.49 174.414 126.469C174.726 125.448 175.138 124.558 175.648 123.797C176.159 123.037 176.789 122.448 177.539 122.031C178.289 121.615 179.174 121.406 180.195 121.406C181.31 121.406 182.278 121.62 183.101 122.047C183.935 122.464 184.622 123.058 185.164 123.828C185.716 124.589 186.122 125.495 186.383 126.547C186.653 127.589 186.789 128.74 186.789 130ZM182.289 130.328V130C182.289 129.313 182.237 128.667 182.133 128.063C182.039 127.448 181.872 126.912 181.633 126.453C181.393 125.985 181.065 125.615 180.648 125.344C180.242 125.073 179.716 124.938 179.07 124.938C178.455 124.938 177.935 125.042 177.508 125.25C177.08 125.459 176.726 125.75 176.445 126.125C176.174 126.5 175.971 126.948 175.836 127.469C175.7 127.979 175.617 128.542 175.586 129.156V131.203C175.617 132.026 175.752 132.755 175.992 133.391C176.242 134.016 176.617 134.511 177.117 134.875C177.627 135.229 178.289 135.406 179.101 135.406C179.737 135.406 180.263 135.281 180.679 135.031C181.096 134.781 181.419 134.427 181.648 133.969C181.888 133.511 182.054 132.974 182.148 132.36C182.242 131.735 182.289 131.058 182.289 130.328ZM232.079 132.672C232.079 132.266 232.017 131.901 231.892 131.578C231.777 131.245 231.559 130.943 231.236 130.672C230.913 130.391 230.46 130.115 229.876 129.844C229.293 129.573 228.538 129.292 227.611 129C226.579 128.667 225.6 128.292 224.673 127.875C223.757 127.459 222.944 126.974 222.236 126.422C221.538 125.86 220.986 125.209 220.579 124.469C220.184 123.729 219.986 122.87 219.986 121.891C219.986 120.943 220.194 120.084 220.611 119.313C221.027 118.531 221.611 117.865 222.361 117.313C223.111 116.75 223.996 116.318 225.017 116.016C226.048 115.714 227.178 115.563 228.408 115.563C230.085 115.563 231.548 115.865 232.798 116.469C234.048 117.073 235.017 117.901 235.704 118.953C236.402 120.005 236.751 121.209 236.751 122.563H232.095C232.095 121.896 231.954 121.313 231.673 120.813C231.402 120.302 230.986 119.901 230.423 119.61C229.871 119.318 229.173 119.172 228.329 119.172C227.517 119.172 226.84 119.297 226.298 119.547C225.757 119.787 225.35 120.115 225.079 120.531C224.809 120.938 224.673 121.396 224.673 121.906C224.673 122.292 224.767 122.641 224.954 122.953C225.152 123.266 225.444 123.558 225.829 123.828C226.215 124.099 226.689 124.354 227.251 124.594C227.814 124.834 228.465 125.068 229.204 125.297C230.444 125.672 231.533 126.094 232.47 126.563C233.418 127.031 234.21 127.558 234.845 128.141C235.48 128.724 235.96 129.386 236.283 130.125C236.605 130.865 236.767 131.703 236.767 132.641C236.767 133.63 236.574 134.516 236.189 135.297C235.803 136.078 235.246 136.74 234.517 137.281C233.788 137.823 232.918 138.235 231.908 138.516C230.897 138.797 229.767 138.938 228.517 138.938C227.392 138.938 226.283 138.792 225.189 138.5C224.095 138.198 223.1 137.745 222.204 137.141C221.319 136.537 220.611 135.766 220.079 134.828C219.548 133.891 219.283 132.781 219.283 131.5H223.986C223.986 132.209 224.095 132.808 224.314 133.297C224.533 133.787 224.84 134.183 225.236 134.485C225.642 134.787 226.121 135.005 226.673 135.141C227.236 135.276 227.85 135.344 228.517 135.344C229.329 135.344 229.996 135.229 230.517 135C231.048 134.771 231.439 134.453 231.689 134.047C231.949 133.641 232.079 133.183 232.079 132.672ZM259.154 121.719V124.906H249.311V121.719H259.154ZM251.748 117.547H256.248V133.531C256.248 134.021 256.311 134.396 256.436 134.656C256.571 134.917 256.769 135.099 257.029 135.203C257.29 135.297 257.618 135.344 258.014 135.344C258.295 135.344 258.545 135.334 258.764 135.313C258.993 135.281 259.186 135.25 259.342 135.219L259.358 138.531C258.972 138.656 258.555 138.755 258.108 138.828C257.66 138.901 257.165 138.938 256.623 138.938C255.634 138.938 254.769 138.776 254.029 138.453C253.3 138.12 252.738 137.589 252.342 136.86C251.946 136.13 251.748 135.172 251.748 133.985V117.547ZM282.917 134.578V121.719H287.417V138.625H283.183L282.917 134.578ZM283.417 131.11L284.745 131.078C284.745 132.203 284.615 133.25 284.354 134.219C284.094 135.177 283.703 136.011 283.183 136.719C282.662 137.417 282.005 137.964 281.214 138.36C280.422 138.745 279.49 138.938 278.417 138.938C277.594 138.938 276.834 138.823 276.136 138.594C275.448 138.354 274.854 137.985 274.354 137.485C273.865 136.974 273.479 136.323 273.198 135.531C272.927 134.729 272.792 133.766 272.792 132.641V121.719H277.292V132.672C277.292 133.172 277.349 133.594 277.464 133.938C277.589 134.281 277.761 134.563 277.979 134.781C278.198 135 278.453 135.156 278.745 135.25C279.047 135.344 279.38 135.391 279.745 135.391C280.672 135.391 281.401 135.203 281.933 134.828C282.474 134.453 282.854 133.943 283.073 133.297C283.302 132.641 283.417 131.912 283.417 131.11ZM312.039 134.938V114.625H316.57V138.625H312.492L312.039 134.938ZM301.351 130.375V130.047C301.351 128.755 301.497 127.584 301.789 126.531C302.08 125.469 302.508 124.558 303.07 123.797C303.633 123.037 304.325 122.448 305.148 122.031C305.971 121.615 306.909 121.406 307.961 121.406C308.95 121.406 309.815 121.615 310.554 122.031C311.304 122.448 311.94 123.042 312.461 123.813C312.992 124.573 313.419 125.474 313.742 126.516C314.065 127.547 314.299 128.677 314.445 129.906V130.625C314.299 131.802 314.065 132.896 313.742 133.906C313.419 134.917 312.992 135.802 312.461 136.563C311.94 137.313 311.304 137.896 310.554 138.313C309.804 138.729 308.929 138.938 307.929 138.938C306.877 138.938 305.94 138.724 305.117 138.297C304.304 137.87 303.617 137.271 303.054 136.5C302.502 135.729 302.08 134.823 301.789 133.781C301.497 132.74 301.351 131.604 301.351 130.375ZM305.851 130.047V130.375C305.851 131.073 305.903 131.724 306.008 132.328C306.122 132.933 306.304 133.469 306.554 133.938C306.815 134.396 307.148 134.755 307.554 135.016C307.971 135.266 308.476 135.391 309.07 135.391C309.841 135.391 310.476 135.219 310.976 134.875C311.476 134.521 311.857 134.037 312.117 133.422C312.388 132.808 312.544 132.099 312.586 131.297V129.25C312.554 128.594 312.461 128.005 312.304 127.485C312.159 126.953 311.94 126.5 311.648 126.125C311.367 125.75 311.013 125.459 310.586 125.25C310.169 125.042 309.674 124.938 309.101 124.938C308.518 124.938 308.018 125.073 307.601 125.344C307.185 125.604 306.846 125.964 306.586 126.422C306.336 126.88 306.148 127.422 306.023 128.047C305.909 128.662 305.851 129.328 305.851 130.047ZM336.036 121.719V138.625H331.52V121.719H336.036ZM331.239 117.313C331.239 116.656 331.468 116.115 331.926 115.688C332.385 115.261 332.999 115.047 333.77 115.047C334.53 115.047 335.14 115.261 335.598 115.688C336.067 116.115 336.301 116.656 336.301 117.313C336.301 117.969 336.067 118.511 335.598 118.938C335.14 119.365 334.53 119.578 333.77 119.578C332.999 119.578 332.385 119.365 331.926 118.938C331.468 118.511 331.239 117.969 331.239 117.313ZM350.236 130.344V130.016C350.236 128.776 350.413 127.636 350.767 126.594C351.121 125.542 351.637 124.63 352.314 123.86C352.991 123.089 353.824 122.49 354.814 122.063C355.803 121.625 356.939 121.406 358.22 121.406C359.501 121.406 360.642 121.625 361.642 122.063C362.642 122.49 363.481 123.089 364.158 123.86C364.845 124.63 365.366 125.542 365.72 126.594C366.074 127.636 366.251 128.776 366.251 130.016V130.344C366.251 131.573 366.074 132.714 365.72 133.766C365.366 134.808 364.845 135.719 364.158 136.5C363.481 137.271 362.647 137.87 361.658 138.297C360.668 138.724 359.533 138.938 358.251 138.938C356.97 138.938 355.829 138.724 354.829 138.297C353.84 137.87 353.001 137.271 352.314 136.5C351.637 135.719 351.121 134.808 350.767 133.766C350.413 132.714 350.236 131.573 350.236 130.344ZM354.736 130.016V130.344C354.736 131.052 354.798 131.714 354.923 132.328C355.048 132.943 355.246 133.485 355.517 133.953C355.798 134.412 356.163 134.771 356.611 135.031C357.059 135.292 357.606 135.422 358.251 135.422C358.876 135.422 359.413 135.292 359.861 135.031C360.309 134.771 360.668 134.412 360.939 133.953C361.21 133.485 361.408 132.943 361.533 132.328C361.668 131.714 361.736 131.052 361.736 130.344V130.016C361.736 129.328 361.668 128.683 361.533 128.078C361.408 127.464 361.204 126.922 360.923 126.453C360.652 125.974 360.293 125.599 359.845 125.328C359.397 125.058 358.856 124.922 358.22 124.922C357.585 124.922 357.043 125.058 356.595 125.328C356.158 125.599 355.798 125.974 355.517 126.453C355.246 126.922 355.048 127.464 354.923 128.078C354.798 128.683 354.736 129.328 354.736 130.016Z" fill="black"/>
<path d="M23.46 91C33.96 66 31.1577 54.977 68.9605 30.5C-11.54 76.5 -14.2415 114.363 23.46 91Z" fill="url(#paint0_linear_47_72)"/>
<path d="M380.18 142.227C407.191 151.625 450.191 179.498 233.191 179.498C403.691 185.625 451.191 160.625 380.18 142.227Z" fill="url(#paint1_linear_47_72)"/>
<path d="M252.46 17.7826C251.579 17.022 246.614 19.2087 245.96 20.2826C248.507 21.6826 251.196 22.5279 252.46 21.2826C253.476 20.2826 253.619 18.7827 252.46 17.7826Z" fill="#B22222"/>
<path fill-rule="evenodd" clip-rule="evenodd" d="M232.191 179.625C-88.8088 175.125 -21.3089 -33.3746 293.191 4.62528C-35.8088 -18.3748 -31.8088 171.125 232.191 179.625ZM45.0116 56.6664C44.9243 55.4767 47.2502 51.6088 48.2373 51.9173C49.535 52.3228 50.1865 53.6787 49.9873 54.9484C49.7393 56.5295 47.4651 56.8663 45.0116 56.6664ZM39.6953 56.4693C38.9401 56.2333 37.1605 59.1926 37.2273 60.1029C39.1045 60.2559 40.8445 59.9981 41.0343 58.7884C41.1867 57.8169 40.6882 56.7796 39.6953 56.4693ZM38.2853 65.5001C38.2434 64.9292 39.3596 63.0732 39.8332 63.2212C40.4559 63.4158 40.7686 64.0664 40.673 64.6757C40.554 65.4344 39.4627 65.5961 38.2853 65.5001Z" fill="url(#paint2_linear_47_72)"/>
<path d="M377.789 20.7726L401.419 22.3184C401.872 21.5663 402.418 20.7284 403.016 19.8504L379.458 17.3293C378.917 18.5504 378.31 19.8148 377.789 20.7726Z" fill="url(#paint3_linear_47_72)"/>
<path d="M409.211 22.8281L402.525 22.3907C402.948 21.6261 403.407 20.7693 403.839 19.9385L409.444 20.5383C409.343 21.3569 409.263 22.1299 409.211 22.8281Z" fill="url(#paint4_linear_47_72)"/>
<path d="M410.21 22.8934L464.852 26.4678L410.282 20.6279C410.265 21.4179 410.241 22.199 410.21 22.8934Z" fill="url(#paint5_linear_47_72)"/>
<path d="M377.867 17.159C376.926 18.4428 376.161 19.65 375.731 20.638L357.679 19.4571C354.444 19.2085 351.502 18.9353 348.859 18.6477C350.783 17.2501 352.48 15.8327 353.414 14.6602C355.123 14.7927 356.937 14.947 358.857 15.1246L377.867 17.159Z" fill="url(#paint6_linear_47_72)"/>
<path d="M347.629 18.5103C326.357 16.0734 326.044 12.7459 351 14.4823C349.899 15.6704 348.577 17.262 347.629 18.5103Z" fill="url(#paint7_linear_47_72)"/>
<defs>
<linearGradient id="paint0_linear_47_72" x1="4.09713e-06" y1="84.8078" x2="464.852" y2="84.8078" gradientUnits="userSpaceOnUse">
<stop stop-color="#B22222"/>
<stop offset="0.2"/>
<stop offset="0.5"/>
<stop offset="1" stop-color="#B22222"/>
</linearGradient>
<linearGradient id="paint1_linear_47_72" x1="4.09713e-06" y1="84.8078" x2="464.852" y2="84.8078" gradientUnits="userSpaceOnUse">
<stop stop-color="#B22222"/>
<stop offset="0.2"/>
<stop offset="0.5"/>
<stop offset="1" stop-color="#B22222"/>
</linearGradient>
<linearGradient id="paint2_linear_47_72" x1="4.09713e-06" y1="84.8078" x2="464.852" y2="84.8078" gradientUnits="userSpaceOnUse">
<stop stop-color="#B22222"/>
<stop offset="0.2"/>
<stop offset="0.5"/>
<stop offset="1" stop-color="#B22222"/>
</linearGradient>
<linearGradient id="paint3_linear_47_72" x1="4.09713e-06" y1="84.8078" x2="464.852" y2="84.8078" gradientUnits="userSpaceOnUse">
<stop stop-color="#B22222"/>
<stop offset="0.2"/>
<stop offset="0.5"/>
<stop offset="1" stop-color="#B22222"/>
</linearGradient>
<linearGradient id="paint4_linear_47_72" x1="4.09713e-06" y1="84.8078" x2="464.852" y2="84.8078" gradientUnits="userSpaceOnUse">
<stop stop-color="#B22222"/>
<stop offset="0.2"/>
<stop offset="0.5"/>
<stop offset="1" stop-color="#B22222"/>
</linearGradient>
<linearGradient id="paint5_linear_47_72" x1="4.09713e-06" y1="84.8078" x2="464.852" y2="84.8078" gradientUnits="userSpaceOnUse">
<stop stop-color="#B22222"/>
<stop offset="0.2"/>
<stop offset="0.5"/>
<stop offset="1" stop-color="#B22222"/>
</linearGradient>
<linearGradient id="paint6_linear_47_72" x1="4.09713e-06" y1="84.8078" x2="464.852" y2="84.8078" gradientUnits="userSpaceOnUse">
<stop stop-color="#B22222"/>
<stop offset="0.2"/>
<stop offset="0.5"/>
<stop offset="1" stop-color="#B22222"/>
</linearGradient>
<linearGradient id="paint7_linear_47_72" x1="4.09713e-06" y1="84.8078" x2="464.852" y2="84.8078" gradientUnits="userSpaceOnUse">
<stop stop-color="#B22222"/>
<stop offset="0.2"/>
<stop offset="0.5"/>
<stop offset="1" stop-color="#B22222"/>
</linearGradient>
</defs>
</svg>
