<svg width="100" height="100" viewBox="0 0 100 100" fill="none" xmlns="http://www.w3.org/2000/svg">
<circle cx="50" cy="50" r="47.5" stroke="black" stroke-width="5"/>
<path d="M42.6563 61.2109V60.2812C42.6745 57.0911 42.957 54.5482 43.5039 52.6523C44.069 50.7565 44.8893 49.2253 45.9648 48.0586C47.0404 46.8919 48.3346 45.8346 49.8477 44.8867C50.9779 44.1576 51.9896 43.401 52.8828 42.6172C53.776 41.8333 54.487 40.9674 55.0156 40.0195C55.5443 39.0534 55.8086 37.9779 55.8086 36.793C55.8086 35.5352 55.5078 34.4323 54.9063 33.4844C54.3047 32.5365 53.4935 31.8073 52.4727 31.2969C51.4701 30.7865 50.3581 30.5312 49.1367 30.5312C47.9518 30.5312 46.8307 30.7956 45.7734 31.3242C44.7161 31.8346 43.8503 32.6003 43.1758 33.6211C42.5013 34.6237 42.1367 35.8724 42.082 37.3672H30.9258C31.0169 33.7214 31.8919 30.7135 33.5508 28.3437C35.2096 25.9557 37.4063 24.1784 40.1406 23.0117C42.875 21.8268 45.8919 21.2344 49.1914 21.2344C52.819 21.2344 56.0273 21.8359 58.8164 23.0391C61.6055 24.224 63.793 25.9466 65.3789 28.207C66.9648 30.4674 67.7578 33.1927 67.7578 36.3828C67.7578 38.5156 67.4023 40.4115 66.6914 42.0703C65.9987 43.7109 65.0234 45.1693 63.7656 46.4453C62.5078 47.7031 61.0221 48.8424 59.3086 49.8633C57.8685 50.7201 56.6836 51.6133 55.7539 52.543C54.8424 53.4727 54.1589 54.5482 53.7031 55.7695C53.2656 56.9909 53.0378 58.4948 53.0195 60.2812V61.2109H42.6563ZM48.0703 78.7109C46.2474 78.7109 44.6888 78.0729 43.3945 76.7969C42.1185 75.5026 41.4896 73.9531 41.5078 72.1484C41.4896 70.362 42.1185 68.8307 43.3945 67.5547C44.6888 66.2786 46.2474 65.6406 48.0703 65.6406C49.8021 65.6406 51.3242 66.2786 52.6367 67.5547C53.9492 68.8307 54.6146 70.362 54.6328 72.1484C54.6146 73.3516 54.2956 74.4544 53.6758 75.457C53.0742 76.4414 52.2813 77.2344 51.2969 77.8359C50.3125 78.4193 49.237 78.7109 48.0703 78.7109Z" fill="black"/>
</svg>
