<svg width="240" height="250" viewBox="0 0 240 250" fill="none" xmlns="http://www.w3.org/2000/svg">
<path d="M10.0499 8.9457C10.8431 8.94203 11.6363 8.93836 12.4535 8.93458C13.3311 8.93473 14.2087 8.93489 15.1128 8.93504C16.5041 8.9305 16.5041 8.9305 17.9234 8.92587C21.0526 8.91675 24.1817 8.91361 27.3109 8.91048C29.5458 8.90577 31.7806 8.89987 34.0155 8.89409C40.7374 8.87781 47.4592 8.86953 54.1811 8.8622C57.3448 8.8586 60.5085 8.85418 63.6721 8.84986C74.1858 8.83586 84.6995 8.82392 95.2132 8.81796C97.9423 8.81639 100.671 8.81481 103.401 8.8132C104.418 8.8126 104.418 8.8126 105.456 8.81199C116.449 8.80516 127.443 8.78429 138.436 8.75756C149.716 8.73035 160.997 8.71551 172.277 8.71287C178.614 8.71109 184.949 8.70386 191.285 8.68286C196.681 8.66501 202.076 8.65834 207.471 8.66636C210.224 8.67011 212.977 8.66671 215.731 8.65256C218.714 8.63808 221.697 8.64377 224.681 8.65465C225.553 8.64562 226.425 8.63659 227.324 8.62728C230.929 8.65914 233.169 8.68912 236.33 10.5221C238.903 13.4728 239.778 15.6753 239.782 19.585C239.787 20.3805 239.791 21.176 239.796 21.9957C239.793 22.8674 239.79 23.7392 239.787 24.6373C239.79 25.5651 239.793 26.4929 239.797 27.4489C239.805 30.5692 239.802 33.6895 239.799 36.8099C239.801 39.0424 239.806 41.2749 239.811 43.5073C239.822 48.9487 239.823 54.39 239.821 59.8313C239.82 64.2534 239.821 68.6755 239.825 73.0976C239.825 73.7266 239.826 74.3556 239.826 75.0036C239.827 76.2814 239.828 77.5592 239.829 78.8369C239.838 90.8238 239.836 102.811 239.831 114.798C239.827 125.767 239.836 136.736 239.852 147.706C239.868 158.966 239.875 170.226 239.872 181.486C239.87 187.809 239.872 194.131 239.884 200.454C239.894 205.837 239.895 211.22 239.885 216.602C239.88 219.349 239.881 222.096 239.889 224.843C239.898 227.819 239.891 230.795 239.881 233.772C239.887 234.641 239.893 235.511 239.899 236.408C239.844 243.817 239.844 243.817 237.099 246.987C234.637 249.165 233.12 249.766 229.842 249.773C229.043 249.78 228.244 249.787 227.42 249.795C226.106 249.789 226.106 249.789 224.766 249.782C223.833 249.787 222.901 249.792 221.941 249.797C218.805 249.811 215.67 249.807 212.534 249.803C210.291 249.808 208.048 249.816 205.805 249.824C200.337 249.841 194.869 249.845 189.402 249.844C184.958 249.843 180.515 249.846 176.072 249.852C174.792 249.854 173.513 249.855 172.234 249.857C171.279 249.858 171.279 249.858 170.305 249.86C158.26 249.875 146.215 249.874 134.171 249.869C123.148 249.864 112.126 249.881 101.103 249.908C89.7892 249.936 78.4751 249.949 67.1609 249.945C60.8074 249.943 54.454 249.947 48.1005 249.968C42.6918 249.985 37.2833 249.988 31.8747 249.973C29.1144 249.965 26.355 249.966 23.5947 249.981C20.6037 249.996 17.6138 249.986 14.6228 249.969C13.7486 249.979 12.8745 249.989 11.9739 250C6.09373 249.929 6.09373 249.929 2.90093 247.47C0.867545 244.66 0.432351 243.338 0.422891 239.931C0.418709 239.133 0.414526 238.336 0.410217 237.514C0.409806 236.632 0.409396 235.749 0.408973 234.84C0.405361 233.908 0.401749 232.975 0.398027 232.014C0.386959 228.868 0.381892 225.722 0.376851 222.576C0.370777 220.328 0.36353 218.081 0.356425 215.834C0.336201 209.075 0.324153 202.316 0.313514 195.557C0.310455 193.648 0.307181 191.74 0.303827 189.831C0.283027 177.984 0.264845 166.137 0.254595 154.29C0.25218 151.545 0.249739 148.8 0.247255 146.055C0.24664 145.373 0.246025 144.691 0.245391 143.988C0.234959 132.934 0.207573 121.88 0.173234 110.825C0.138282 99.481 0.118844 88.1365 0.114536 76.7919C0.11172 70.4205 0.102014 64.0493 0.0748866 57.6779C0.0518232 52.2521 0.0427332 46.8265 0.0519684 41.4007C0.0562481 38.6319 0.0515965 35.8639 0.0334508 33.0952C0.0148461 30.0935 0.0215396 27.0929 0.0346739 24.0912C0.0232314 23.2161 0.0117892 22.3411 0 21.4396C0.0710783 14.8646 0.071078 14.8646 2.52477 11.8213C5.27616 9.31578 6.43873 8.95343 10.0499 8.9457ZM26.088 33.7549C24.3621 35.9285 24.4395 37.0578 24.4395 39.8782C25.507 43.677 26.8849 44.8601 30.2093 46.9276C33.6864 47.6511 34.8548 47.1142 37.8852 45.2295C40.5211 42.3519 40.9939 40.9198 40.9247 37.0481C39.516 33.6085 37.6845 32.0142 34.3306 30.4618C30.3887 30.4618 29.1431 31.3668 26.088 33.7549ZM53.2887 33.7549C51.5627 35.9285 51.6401 37.0578 51.6401 39.8782C52.7077 43.677 54.0856 44.8601 57.41 46.9276C60.0223 47.4712 61.457 47.4966 63.7368 46.0528C66.5002 43.8395 67.9549 42.4137 68.4345 38.9005C68.0078 35.2064 66.727 33.7733 64.0041 31.2851C59.2987 29.7469 56.9904 30.5735 53.2887 33.7549ZM80.4893 32.9316C78.4625 35.9683 78.1805 38.4632 78.8408 41.9878C80.9254 44.9533 82.3339 45.9103 85.7955 46.979C89.4174 46.9156 90.9272 45.9236 93.6775 43.6344C95.0072 40.9781 94.9866 38.2736 94.5018 35.4015C92.5249 32.672 91.1466 31.5455 87.9592 30.4618C84.819 30.4618 83.1229 31.2577 80.4893 32.9316ZM17.8454 60.9235C17.8454 117.434 17.8454 173.945 17.8454 232.168C85.031 232.168 152.217 232.168 221.438 232.168C221.438 175.657 221.438 119.147 221.438 60.9235C154.253 60.9235 87.067 60.9235 17.8454 60.9235Z" fill="white"/>
<path d="M142.309 97.9716C144.37 99.6696 144.37 99.6696 145.606 102.088C145.337 106.721 144.3 110.394 142.28 114.579C141.897 115.403 141.897 115.403 141.505 116.244C140.953 117.428 140.397 118.611 139.838 119.791C138.32 122.993 136.832 126.208 135.338 129.421C135.028 130.085 134.718 130.75 134.399 131.434C131.392 137.888 128.498 144.389 125.621 150.901C123.994 154.579 122.355 158.252 120.719 161.925C119.456 164.761 118.197 167.598 116.948 170.44C115.627 173.441 114.287 176.434 112.945 179.426C112.375 180.735 112.375 180.735 111.794 182.07C109.688 186.72 107.953 189.904 103.569 192.65C100.282 192.707 98.5201 192.307 95.7897 190.489C93.9953 187.765 94.2677 186.003 94.5018 182.771C95.2001 180.71 95.9228 178.867 96.8362 176.911C97.0862 176.353 97.3363 175.795 97.594 175.221C98.4246 173.376 99.2706 171.538 100.117 169.701C100.709 168.395 101.301 167.088 101.892 165.781C103.807 161.557 105.747 157.344 107.69 153.132C108.022 152.412 108.354 151.692 108.696 150.95C111.713 144.405 114.735 137.864 117.787 131.336C120.644 125.224 123.492 119.112 126.213 112.939C126.626 112.009 127.039 111.08 127.465 110.122C128.197 108.467 128.919 106.807 129.629 105.142C130.992 102.073 131.904 100.039 134.533 97.888C137.469 96.8054 139.326 97.1048 142.309 97.9716Z" fill="#E9967A"/>
<path d="M157.146 112.791C159.525 113.569 161.727 114.629 163.969 115.737C164.603 116.04 165.238 116.342 165.892 116.654C167.91 117.62 169.921 118.601 171.931 119.583C173.278 120.23 174.625 120.877 175.973 121.522C179.03 122.99 182.083 124.463 185.127 125.957C186.293 126.529 187.462 127.097 188.632 127.661C189.215 127.945 189.798 128.23 190.398 128.523C190.92 128.775 191.441 129.027 191.978 129.288C195.162 131.045 197.136 133.027 198.307 136.46C198.375 139.973 198.225 143.337 196.71 146.546C193.004 150.023 189.17 152.132 184.575 154.248C183.897 154.567 183.218 154.886 182.519 155.215C180.367 156.226 178.21 157.226 176.052 158.226C174.6 158.907 173.149 159.588 171.698 160.27C156.013 167.618 156.013 167.618 150.552 166.305C148.854 165.005 148.206 164.089 147.255 162.188C146.923 159.211 146.939 157.727 148.608 155.194C150.783 152.887 152.679 151.802 155.539 150.447C156.507 149.985 157.474 149.522 158.471 149.046C158.973 148.813 159.475 148.58 159.992 148.339C161.517 147.63 163.034 146.905 164.55 146.178C169.194 143.981 173.616 142.096 178.577 140.783C178.577 140.239 178.577 139.696 178.577 139.136C177.552 138.821 176.528 138.506 175.473 138.181C170.623 136.564 166.074 134.404 161.473 132.19C160.637 131.796 159.801 131.403 158.939 130.998C149.057 126.27 149.057 126.27 147.255 122.67C146.85 119.103 146.861 117.467 148.955 114.489C152.043 112.323 153.412 112.448 157.146 112.791Z" fill="#E9967A"/>
<path d="M87.9077 112.791C90.9969 114.505 91.8599 115.503 92.8533 118.914C92.8533 122.32 92.4517 123.304 90.3805 125.964C88.331 127.212 86.4101 128.246 84.2468 129.247C83.6505 129.534 83.0541 129.82 82.4397 130.115C81.1835 130.716 79.9246 131.312 78.6631 131.902C76.7272 132.808 74.7997 133.73 72.873 134.655C71.6504 135.237 70.4275 135.819 69.204 136.399C68.6253 136.675 68.0466 136.95 67.4503 137.233C63.3743 139.136 63.3743 139.136 61.5313 139.136C61.5313 139.68 61.5313 140.223 61.5313 140.783C62.235 141.005 62.9387 141.226 63.6638 141.455C68.1026 142.992 72.318 145.017 76.5747 146.991C78.1726 147.73 79.7743 148.461 81.3764 149.191C82.3978 149.663 83.4191 150.135 84.44 150.608C85.3625 151.033 86.285 151.458 87.2354 151.895C89.2999 152.995 90.6322 153.754 92.029 155.602C93.3765 161.165 93.3765 161.165 91.6169 164.607C88.8876 166.856 87.3219 166.999 83.7864 167.128C81.1948 166.401 78.8417 165.281 76.4228 164.111C75.7331 163.791 75.0433 163.471 74.3327 163.141C72.8783 162.462 71.4271 161.777 69.979 161.085C67.7809 160.035 65.5742 159.005 63.365 157.979C61.9472 157.314 60.5299 156.648 59.1133 155.981C58.4622 155.676 57.8112 155.37 57.1404 155.056C44.5172 149.011 44.5172 149.011 42.5732 144.899C41.6552 141.195 41.5947 138.189 42.4187 134.454C46.9522 127.597 56.8029 124.632 64.0556 121.333C65.0673 120.868 66.0789 120.402 67.0903 119.937C69.9046 118.645 72.7235 117.363 75.5438 116.084C76.2946 115.739 77.0454 115.394 77.8189 115.038C78.4739 114.74 79.1288 114.442 79.8035 114.135C80.3573 113.882 80.9111 113.628 81.4816 113.367C83.7848 112.471 85.4847 112.351 87.9077 112.791Z" fill="#E9967A"/>
</svg>
