<svg width="251" height="251" viewBox="0 0 251 251" fill="none" xmlns="http://www.w3.org/2000/svg">
<path d="M25.0255 0.887694C26.238 0.882634 26.238 0.882634 27.4751 0.87747C29.7062 0.86845 31.9372 0.871063 34.1683 0.875696C36.5794 0.878667 38.9905 0.870816 41.4017 0.864408C46.1205 0.853651 50.8392 0.853112 55.558 0.856397C59.3947 0.858932 63.2314 0.858022 67.0681 0.854676C67.8881 0.853972 67.8881 0.853972 68.7247 0.853255C69.8354 0.852295 70.946 0.851332 72.0567 0.850364C82.4657 0.841769 92.8747 0.845169 103.284 0.852359C112.799 0.858581 122.314 0.850475 131.829 0.835486C141.608 0.820197 151.386 0.814188 161.165 0.818353C166.652 0.820539 172.138 0.819154 177.625 0.808173C182.295 0.798939 186.966 0.798565 191.637 0.80947C194.018 0.814794 196.399 0.816165 198.78 0.806556C201.366 0.796251 203.951 0.80551 206.537 0.816574C207.657 0.807548 207.656 0.807548 208.799 0.79834C215.141 0.854058 220.917 2.16317 225.625 6.6489C230.369 12.459 231.23 18.432 231.203 25.6483C231.203 26.2782 231.203 26.9081 231.203 27.5571C231.202 29.6316 231.198 31.706 231.193 33.7805C231.191 35.2218 231.191 36.6631 231.19 38.1045C231.188 41.8924 231.181 45.6804 231.175 49.4684C231.168 53.336 231.165 57.2035 231.162 61.0711C231.155 68.6557 231.145 76.2402 231.131 83.8248C231.517 83.8197 231.903 83.8146 232.301 83.8094C232.808 83.8054 233.315 83.8015 233.837 83.7974C234.34 83.7923 234.842 83.7872 235.36 83.782C238.931 83.8903 242.086 85.551 244.796 87.7794C245.249 88.335 245.701 88.8906 246.167 89.463C246.443 89.7925 246.719 90.122 247.004 90.4614C250.11 94.4114 251.14 98.8609 250.552 103.872C249.162 110.947 243.936 115.712 238.806 120.395C237.869 121.261 236.933 122.127 235.996 122.994C235.588 123.368 235.18 123.742 234.759 124.128C234.389 124.472 234.019 124.817 233.637 125.172C233.309 125.417 232.981 125.662 232.642 125.914C231.299 127.641 231.522 129.085 231.521 131.25C231.517 131.894 231.517 131.894 231.512 132.551C231.505 133.992 231.511 135.433 231.517 136.874C231.514 137.906 231.511 138.938 231.507 139.971C231.499 142.196 231.498 144.421 231.501 146.647C231.505 150.17 231.495 153.693 231.483 157.216C231.459 164.702 231.451 172.189 231.445 179.675C231.438 187.74 231.428 195.805 231.4 203.869C231.389 207.367 231.386 210.864 231.391 214.361C231.392 216.546 231.385 218.73 231.376 220.915C231.374 221.922 231.375 222.929 231.379 223.937C231.408 231.671 231.175 238.979 225.493 244.828C219.929 249.897 214.67 250.745 207.346 250.709C206.533 250.712 205.719 250.716 204.881 250.719C202.633 250.728 200.385 250.726 198.137 250.721C195.709 250.718 193.281 250.726 190.853 250.732C186.099 250.743 181.346 250.744 176.592 250.74C172.728 250.738 168.864 250.739 164.999 250.742C164.449 250.742 163.898 250.743 163.331 250.743C162.213 250.744 161.095 250.745 159.976 250.746C149.494 250.755 139.011 250.752 128.529 250.744C118.944 250.738 109.36 250.746 99.7757 250.761C89.9283 250.776 80.081 250.782 70.2336 250.778C64.7075 250.776 59.1815 250.778 53.6554 250.788C48.9509 250.798 44.2466 250.798 39.5421 250.787C37.1433 250.782 34.7446 250.781 32.3458 250.79C29.7419 250.8 27.1385 250.791 24.5346 250.78C23.7811 250.786 23.0276 250.792 22.2513 250.798C15.9813 250.744 10.7289 249.332 6.10839 244.919C1.49067 239.441 0.666487 233.77 0.739251 226.832C0.734911 225.921 0.728936 225.011 0.721483 224.1C0.705895 221.617 0.713498 219.135 0.725189 216.652C0.733733 213.966 0.720547 211.281 0.710229 208.596C0.693553 203.343 0.697108 198.091 0.708021 192.838C0.716525 188.567 0.717655 184.297 0.71357 180.026C0.712994 179.417 0.712419 178.808 0.711826 178.181C0.710624 176.944 0.709405 175.707 0.708169 174.47C0.697462 162.883 0.709757 151.296 0.729971 139.708C0.746764 129.775 0.743847 119.842 0.726518 109.909C0.706383 98.3618 0.698495 86.8147 0.710026 75.2676C0.711223 74.0352 0.712404 72.8029 0.71357 71.5706C0.71415 70.9643 0.714729 70.358 0.715327 69.7334C0.718566 65.4701 0.713108 61.2068 0.70425 56.9435C0.693686 51.7448 0.696606 46.5463 0.716581 41.3476C0.726431 38.6973 0.73038 36.0473 0.717901 33.397C0.706632 30.9669 0.712964 28.5375 0.732851 26.1075C0.737021 25.2324 0.734979 24.3572 0.725801 23.4821C0.668544 17.5653 1.57809 12.9616 4.97539 8.02175C10.9477 1.95441 16.7424 0.846065 25.0255 0.887694ZM13.1195 14.7955C11.5936 16.9428 11.5936 16.9428 11.2401 20.5512C80.2898 20.5512 149.339 20.5512 220.481 20.5512C219.894 17.0278 219.375 15.2716 216.723 13.0335C212.436 10.953 208.604 10.8882 203.892 10.9154C202.721 10.9111 202.721 10.9111 201.527 10.9066C199.37 10.9004 197.214 10.9026 195.058 10.9084C192.728 10.9127 190.399 10.9061 188.069 10.9009C183.509 10.8926 178.95 10.8944 174.39 10.8998C170.683 10.9041 166.976 10.9047 163.27 10.9026C162.742 10.9023 162.214 10.902 161.67 10.9017C160.597 10.9011 159.524 10.9005 158.452 10.8999C148.397 10.8946 138.343 10.9007 128.288 10.9108C119.667 10.9192 111.045 10.9177 102.423 10.9091C92.4048 10.899 82.3869 10.8951 72.369 10.9008C71.3001 10.9014 70.2312 10.902 69.1623 10.9026C68.6364 10.9029 68.1106 10.9032 67.5687 10.9035C63.8679 10.9051 60.167 10.9024 56.4662 10.8979C51.9539 10.8927 47.4416 10.8941 42.9293 10.9041C40.6282 10.909 38.3273 10.911 36.0262 10.9048C33.5292 10.8981 31.0324 10.9061 28.5354 10.9154C27.8117 10.9113 27.0881 10.9071 26.3426 10.9027C21.6097 10.9372 16.5247 11.0921 13.1195 14.7955ZM11.2401 30.5747C11.2013 63.885 11.1626 97.1952 11.1226 131.515C11.1055 142.045 11.0884 152.575 11.0708 163.424C11.0645 172.837 11.0645 172.837 11.0607 182.25C11.059 186.453 11.0521 190.656 11.0417 194.859C11.0297 199.704 11.0243 204.549 11.0269 209.394C11.028 211.873 11.0262 214.353 11.016 216.832C11.0069 219.073 11.0064 221.315 11.0129 223.556C11.0141 224.752 11.0059 225.947 10.9975 227.143C11.0194 231.305 11.1218 234.494 14.0592 237.714C16.8038 239.851 18.5785 240.52 22.0115 240.525C22.6894 240.527 23.3673 240.53 24.0658 240.532C24.8134 240.532 25.561 240.531 26.3313 240.531C27.1233 240.532 27.9153 240.534 28.7313 240.536C30.934 240.541 33.1368 240.542 35.3395 240.543C37.7135 240.544 40.0875 240.549 42.4615 240.553C47.6545 240.561 52.8474 240.565 58.0404 240.568C61.2819 240.57 64.5234 240.572 67.765 240.575C76.7371 240.583 85.7092 240.589 94.6813 240.591C95.2557 240.592 95.8301 240.592 96.4219 240.592C96.9976 240.592 97.5734 240.592 98.1666 240.592C99.3334 240.593 100.5 240.593 101.667 240.593C102.246 240.593 102.824 240.593 103.421 240.593C112.8 240.596 122.18 240.607 131.56 240.621C141.186 240.636 150.812 240.644 160.439 240.645C165.845 240.645 171.251 240.649 176.658 240.66C181.261 240.67 185.864 240.673 190.467 240.668C192.816 240.666 195.165 240.666 197.514 240.675C200.06 240.684 202.606 240.679 205.152 240.673C205.895 240.678 206.638 240.683 207.404 240.688C211.48 240.663 214.627 240.519 217.753 237.601C219.967 234.705 220.56 233.436 220.557 229.809C220.558 229.012 220.559 228.214 220.559 227.392C220.557 226.503 220.555 225.614 220.553 224.725C220.552 223.793 220.553 222.861 220.553 221.929C220.553 219.393 220.549 216.858 220.545 214.322C220.541 211.674 220.541 209.027 220.54 206.379C220.538 201.362 220.533 196.346 220.527 191.329C220.52 185.619 220.516 179.909 220.513 174.199C220.506 162.451 220.495 150.702 220.481 138.954C220.181 139.213 219.88 139.472 219.57 139.738C219.176 140.077 218.781 140.417 218.374 140.766C217.983 141.102 217.592 141.438 217.189 141.785C216.382 142.47 215.56 143.139 214.731 143.797C213.063 145.23 211.868 146.385 211.384 148.581C211.332 149.399 211.332 149.399 211.278 150.234C211.219 151.151 211.219 151.151 211.159 152.086C211.038 155.171 211.013 158.248 211.033 161.336C211.035 162.034 211.037 162.733 211.039 163.453C211.043 164.957 211.049 166.461 211.056 167.965C211.067 170.345 211.074 172.725 211.079 175.106C211.094 181.869 211.117 188.632 211.145 195.395C211.162 199.542 211.172 203.69 211.179 207.837C211.183 209.415 211.189 210.993 211.198 212.571C211.21 214.772 211.214 216.973 211.217 219.174C211.225 220.151 211.225 220.151 211.233 221.149C211.233 221.749 211.232 222.35 211.231 222.968C211.234 223.748 211.234 223.748 211.237 224.542C210.988 226.98 210.312 228.686 208.579 230.419C207.236 230.577 207.236 230.577 205.534 230.578C204.886 230.582 204.239 230.586 203.572 230.59C202.856 230.587 202.139 230.585 201.401 230.582C200.644 230.585 199.887 230.587 199.107 230.59C196.999 230.595 194.891 230.595 192.783 230.592C190.513 230.59 188.242 230.596 185.972 230.601C181.521 230.609 177.07 230.61 172.619 230.608C169.002 230.607 165.386 230.608 161.769 230.611C161.255 230.611 160.741 230.612 160.212 230.612C159.168 230.613 158.124 230.614 157.08 230.615C147.281 230.621 137.483 230.62 127.684 230.616C118.712 230.613 109.74 230.62 100.768 230.632C91.5646 230.644 82.3609 230.649 73.1572 230.647C67.9866 230.646 62.816 230.647 57.6454 230.656C53.2436 230.663 48.8419 230.664 44.4401 230.657C42.1928 230.653 39.9456 230.652 37.6984 230.66C35.2657 230.668 32.8332 230.661 30.4005 230.653C29.6853 230.658 28.9701 230.663 28.2332 230.667C27.5843 230.663 26.9354 230.658 26.2668 230.654C25.7049 230.654 25.143 230.654 24.564 230.654C23.1431 230.419 23.1431 230.419 22.0228 229.66C21.0139 228.171 21.0288 227.211 21.0289 225.418C21.0244 224.769 21.0199 224.121 21.0152 223.452C21.0198 222.738 21.0244 222.023 21.0292 221.286C21.0267 220.529 21.0242 219.771 21.0217 218.991C21.0167 216.884 21.0201 214.778 21.0271 212.672C21.0327 210.402 21.0274 208.131 21.0235 205.861C21.0175 201.412 21.0217 196.964 21.0293 192.515C21.0378 187.337 21.0368 182.16 21.0354 176.982C21.0334 167.746 21.0408 158.51 21.053 149.274C21.0649 140.306 21.0694 131.338 21.0659 122.369C21.0621 112.61 21.0622 102.852 21.0693 93.0928C21.0701 92.0528 21.0708 91.0128 21.0716 89.9728C21.0721 89.2051 21.0721 89.2051 21.0727 88.422C21.0752 84.8104 21.0749 81.1989 21.0737 77.5873C21.0724 73.1878 21.0757 68.7884 21.0848 64.3889C21.0893 62.143 21.0918 59.897 21.089 57.651C21.086 55.2198 21.0926 52.7886 21.1003 50.3573C21.098 49.6426 21.0956 48.9278 21.0931 48.1914C21.0968 47.5429 21.1005 46.8943 21.1042 46.2262C21.1048 45.6646 21.1053 45.103 21.1059 44.5244C21.2636 43.1041 21.2636 43.1041 22.5166 41.2247C24.3856 40.5235 26.1896 40.5193 28.1709 40.5177C29.1286 40.5146 29.1286 40.5146 30.1057 40.5115C30.806 40.5125 31.5063 40.5135 32.2279 40.5145C32.9727 40.5131 33.7175 40.5116 34.4849 40.5102C36.553 40.5069 38.621 40.5064 40.689 40.5072C42.9191 40.5073 45.1491 40.5038 47.3791 40.5009C51.7481 40.4957 56.117 40.4939 60.4859 40.4936C64.036 40.4933 67.5861 40.492 71.1362 40.49C81.1969 40.4845 91.2576 40.4816 101.318 40.4821C102.132 40.4821 102.132 40.4821 102.962 40.4822C103.777 40.4822 103.777 40.4822 104.608 40.4822C113.415 40.4825 122.222 40.4765 131.03 40.4677C140.069 40.4587 149.107 40.4543 158.146 40.4549C163.223 40.4551 168.299 40.4534 173.375 40.4466C177.696 40.4409 182.017 40.4396 186.338 40.4438C188.544 40.4459 190.749 40.4459 192.955 40.4405C195.343 40.4347 197.732 40.4385 200.12 40.4434C200.82 40.4401 201.521 40.4369 202.242 40.4336C202.881 40.4365 203.519 40.4394 204.177 40.4423C204.729 40.4422 205.28 40.4421 205.848 40.4419C207.47 40.6135 208.468 40.9634 209.831 41.8512C211.196 44.74 211.251 47.5386 211.207 50.675C211.205 51.1685 211.203 51.662 211.201 52.1704C211.196 53.2359 211.189 54.3013 211.179 55.3668C211.163 57.0516 211.154 58.7364 211.148 60.4213C211.134 63.9938 211.11 67.5663 211.084 71.1387C211.055 75.2874 211.029 79.4361 211.014 83.5849C211.006 85.2473 210.991 86.9095 210.975 88.5719C210.97 89.5857 210.966 90.5996 210.962 91.6134C210.952 92.3096 210.952 92.3096 210.942 93.0198C210.942 94.1322 211.007 95.2444 211.084 96.3542C211.498 96.7677 211.911 97.1811 212.337 97.6071C215.025 94.9196 217.712 92.232 220.481 89.463C220.481 70.0299 220.481 50.5967 220.481 30.5747C151.432 30.5747 82.3822 30.5747 11.2401 30.5747ZM30.6607 50.6218C30.6607 106.854 30.6607 163.086 30.6607 221.022C86.8928 221.022 143.125 221.022 201.061 221.022C201.061 200.348 201.061 179.675 201.061 158.375C200.647 158.375 200.234 158.375 199.808 158.375C198.827 159.369 198.827 159.369 197.811 160.646C196.057 162.713 194.256 164.492 192.148 166.193C190.651 167.476 189.296 168.881 187.905 170.278C187.231 170.946 186.557 171.614 185.882 172.281C183.887 174.254 181.896 176.23 179.907 178.207C179.048 179.06 178.188 179.911 177.327 180.761C176.082 181.991 174.842 183.224 173.601 184.459C173.214 184.84 172.826 185.221 172.427 185.614C171.506 186.534 170.618 187.487 169.737 188.445C169.737 188.859 169.737 189.272 169.737 189.698C169.324 189.698 168.91 189.698 168.484 189.698C168.484 190.112 168.484 190.525 168.484 190.951C168.11 191.116 167.736 191.28 167.351 191.449C165.907 192.244 165.144 193.026 164.07 194.262C161.315 197.091 158.133 198.454 154.545 199.996C153.886 200.289 153.228 200.582 152.549 200.883C147.9 202.937 143.221 204.932 138.51 206.841C137.841 207.114 137.841 207.114 137.158 207.394C136.778 207.547 136.398 207.7 136.007 207.857C134.53 208.499 134.53 208.499 132.906 209.765C129.461 211.725 125.674 211.347 121.818 211.323C120.963 211.326 120.109 211.331 119.254 211.336C116.944 211.347 114.634 211.343 112.324 211.335C109.903 211.329 107.482 211.335 105.061 211.338C100.998 211.343 96.935 211.337 92.8721 211.325C88.1757 211.311 83.4795 211.316 78.7831 211.33C74.747 211.341 70.711 211.343 66.6748 211.336C64.2658 211.332 61.8568 211.332 59.4478 211.34C57.1847 211.347 54.9218 211.342 52.6587 211.328C51.4323 211.323 50.2058 211.33 48.9794 211.338C48.2496 211.331 47.5198 211.324 46.7678 211.317C46.1337 211.316 45.4995 211.315 44.8462 211.314C42.7254 210.91 41.9804 210.193 40.6842 208.493C40.2254 204.757 40.2254 204.757 41.4322 203.049C42.9755 201.929 44.0064 201.987 45.9053 201.978C46.5984 201.97 47.2915 201.962 48.0056 201.954C49.1466 201.956 49.1466 201.956 50.3106 201.957C51.1113 201.951 51.912 201.944 52.737 201.938C54.9334 201.92 57.1297 201.915 59.3261 201.911C61.6212 201.905 63.9163 201.888 66.2114 201.873C70.5578 201.846 74.9041 201.828 79.2506 201.813C84.1987 201.797 89.1467 201.769 94.0948 201.741C104.274 201.682 114.452 201.637 124.631 201.601C124.852 201.088 125.072 200.574 125.299 200.045C126.143 198.082 126.989 196.119 127.836 194.157C128.197 193.318 128.558 192.479 128.918 191.64C129.09 191.239 129.263 190.838 129.44 190.424C129.614 190.02 129.787 189.615 129.966 189.198C130.518 187.927 131.086 186.663 131.654 185.398C132.409 183.703 133.065 182.008 133.664 180.253C136.642 172.134 142.523 167.387 149.011 161.953C151.504 159.862 153.94 157.716 156.352 155.533C156.709 155.21 157.065 154.888 157.432 154.556C158.899 153.227 160.365 151.896 161.831 150.565C166.229 146.577 170.654 142.647 175.291 138.936C186.57 129.788 192.197 121.309 201.061 108.884C201.061 89.6572 201.061 70.4308 201.061 50.6218C144.829 50.6218 88.5968 50.6218 30.6607 50.6218ZM226.746 96.9807C227.574 98.8177 228.467 100.105 229.903 101.513C230.266 101.872 230.63 102.232 231.004 102.602C231.571 103.153 231.571 103.153 232.15 103.715C232.532 104.092 232.915 104.469 233.309 104.858C234.251 105.785 235.197 106.708 236.143 107.631C239.186 104.773 239.186 104.773 240.137 100.857C240.125 98.5727 239.943 98.2835 238.375 96.3933C237.845 95.9669 237.316 95.5406 236.77 95.1012C236.563 94.8945 236.356 94.6878 236.143 94.4748C232.292 94.0397 229.54 94.0002 226.746 96.9807ZM218.602 105.125C218.395 105.745 218.189 106.365 217.976 107.004C217.14 107.422 216.305 107.839 215.47 108.257C215.263 108.877 215.056 109.498 214.843 110.137C214.43 110.137 214.016 110.137 213.59 110.137C213.384 110.757 213.177 111.377 212.964 112.016C216.065 115.117 219.166 118.218 222.361 121.413C226.173 118.178 226.173 118.178 229.252 114.522C228.802 114.074 228.352 113.625 227.889 113.164C226.749 112.02 225.614 110.87 224.487 109.713C223.954 109.168 223.42 108.623 222.87 108.061C222.331 107.508 221.793 106.955 221.238 106.385C220.012 104.984 220.012 104.984 218.602 105.125ZM205.446 118.907C200.907 122.82 200.907 122.82 196.676 127.051C196.676 127.465 196.676 127.878 196.676 128.304C196.262 128.304 195.849 128.304 195.423 128.304C194.441 129.299 194.441 129.299 193.426 130.575C191.987 132.273 190.567 133.788 188.845 135.195C186.752 136.917 185.039 138.848 183.285 140.907C181.975 142.424 180.57 143.821 179.134 145.219C178.618 145.736 178.101 146.253 177.568 146.785C176.002 148.351 174.436 149.917 172.87 151.484C172.379 151.988 171.888 152.491 171.382 153.011C170.155 154.209 168.94 155.29 167.623 156.378C165.97 157.77 164.558 159.234 163.159 160.881C161.443 162.901 159.635 164.607 157.595 166.294C156.12 167.533 154.794 168.899 153.449 170.278C152.654 171.075 151.858 171.871 151.061 172.666C150.682 173.045 150.303 173.424 149.913 173.814C149.633 174.094 149.352 174.374 149.064 174.663C149.891 176.5 150.784 177.787 152.221 179.195C152.584 179.555 152.947 179.914 153.322 180.284C153.7 180.652 154.078 181.019 154.467 181.398C155.041 181.963 155.041 181.963 155.627 182.54C156.569 183.468 157.514 184.391 158.461 185.313C161.875 182.466 165.04 179.446 168.175 176.297C168.689 175.783 169.202 175.269 169.732 174.74C171.418 173.053 173.102 171.365 174.786 169.676C175.959 168.501 177.133 167.327 178.306 166.152C181.072 163.385 183.836 160.616 186.6 157.846C189.748 154.69 192.899 151.537 196.049 148.383C202.525 141.901 208.998 135.416 215.47 128.931C214.849 128.621 214.85 128.621 214.217 128.304C214.049 127.942 213.881 127.581 213.708 127.208C212.715 125.327 211.405 124.082 209.831 122.666C209.418 122.666 209.005 122.666 208.579 122.666C208.411 122.278 208.243 121.891 208.07 121.491C207.353 119.972 207.353 119.972 205.446 118.907ZM142.799 184.687C142.049 186.329 141.306 187.973 140.567 189.62C140.353 190.088 140.138 190.555 139.918 191.037C139.379 192.245 138.892 193.477 138.414 194.71C138.62 195.124 138.827 195.537 139.04 195.963C142.348 194.516 145.656 193.069 149.064 191.578C149.064 190.958 149.064 190.337 149.064 189.698C148.65 189.698 148.237 189.698 147.811 189.698C147.811 189.285 147.811 188.871 147.811 188.445C147.397 188.445 146.984 188.445 146.558 188.445C146.403 188.058 146.248 187.67 146.088 187.271C145.167 185.705 144.419 185.418 142.799 184.687Z" fill="white"/>
<path d="M49.8375 59.2914C50.3146 59.2883 50.7916 59.2852 51.2831 59.282C52.8582 59.2729 54.4332 59.2686 56.0083 59.2651C57.1053 59.2615 58.2024 59.2579 59.2994 59.2543C61.5986 59.2477 63.8978 59.2441 66.197 59.2419C69.1392 59.2385 72.0812 59.2234 75.0233 59.2056C77.2892 59.1939 79.555 59.1906 81.8209 59.1897C82.9054 59.1878 83.9899 59.1828 85.0744 59.1745C86.5933 59.1638 88.1117 59.165 89.6307 59.1691C90.076 59.1633 90.5213 59.1575 90.9802 59.1516C93.8755 59.1758 95.8628 59.7401 98.3196 61.2718C99.0548 62.7421 99.033 63.6335 99.047 65.2726C99.053 65.8414 99.059 66.4101 99.0652 66.9961C99.0679 67.6122 99.0706 68.2282 99.0733 68.8629C99.0769 69.4948 99.0805 70.1267 99.0841 70.7778C99.0901 72.1165 99.0942 73.4552 99.0966 74.7939C99.1026 76.8426 99.1221 78.8909 99.1418 80.9396C99.1459 82.239 99.1492 83.5384 99.1516 84.8379C99.1594 85.4514 99.1671 86.0649 99.1751 86.6969C99.1732 87.2697 99.1713 87.8424 99.1694 88.4324C99.1728 89.1863 99.1728 89.1863 99.1763 89.9555C98.8851 91.7098 98.2769 92.5603 97.0667 93.8483C94.7843 94.6091 92.6844 94.5722 90.3079 94.5757C89.5635 94.5804 89.5635 94.5804 88.804 94.5851C87.1615 94.5943 85.519 94.5986 83.8765 94.602C82.7349 94.6056 81.5934 94.6092 80.4518 94.6128C78.0578 94.6194 75.6637 94.6231 73.2696 94.6253C70.2031 94.6287 67.1367 94.6438 64.0702 94.6616C61.7119 94.6733 59.3537 94.6765 56.9954 94.6775C55.8649 94.6794 54.7344 94.6844 53.604 94.6926C52.0219 94.7033 50.4402 94.7021 48.858 94.6981C48.1588 94.7067 48.1588 94.7067 47.4455 94.7156C44.6679 94.6932 42.8912 94.3128 40.6842 92.5954C39.9503 91.1275 39.967 90.2309 39.9469 88.5946C39.9388 88.0258 39.9308 87.457 39.9225 86.871C39.9179 86.255 39.9133 85.639 39.9085 85.0043C39.9034 84.3724 39.8984 83.7404 39.8932 83.0894C39.8845 81.7507 39.8778 80.412 39.8729 79.0733C39.8621 77.0245 39.8346 74.9763 39.8069 72.9276C39.8006 71.6282 39.7953 70.3287 39.791 69.0293C39.7801 68.4158 39.7691 67.8023 39.7578 67.1702C39.7713 62.9418 39.7713 62.9418 41.1708 60.9044C43.9062 59.1653 46.6756 59.2964 49.8375 59.2914ZM50.0813 70.0424C50.0813 74.5906 50.0813 79.1388 50.0813 83.8248C62.8989 83.8248 75.7165 83.8248 88.9225 83.8248C88.9225 79.2766 88.9225 74.7284 88.9225 70.0424C76.1049 70.0424 63.2873 70.0424 50.0813 70.0424Z" fill="#E9967A"/>
<path d="M47.4859 103.478C47.9851 103.474 48.4843 103.469 48.9987 103.465C50.6736 103.454 52.3476 103.465 54.0225 103.476C55.2223 103.473 56.4222 103.469 57.622 103.463C60.8825 103.451 64.1427 103.459 67.4033 103.472C70.8126 103.482 74.2218 103.476 77.6311 103.473C83.3569 103.47 89.0825 103.48 94.8082 103.498C101.432 103.518 108.055 103.518 114.678 103.507C121.045 103.497 127.412 103.501 133.778 103.512C136.49 103.516 139.202 103.516 141.913 103.511C145.106 103.506 148.298 103.514 151.49 103.531C152.663 103.535 153.835 103.535 155.008 103.531C156.607 103.526 158.205 103.535 159.803 103.549C160.503 103.542 160.503 103.542 161.216 103.534C163.388 103.569 164.525 103.716 166.264 105.067C167.307 106.48 167.587 107.147 167.584 108.884C167.598 109.297 167.611 109.711 167.625 110.137C166.996 112.138 165.839 112.772 164.099 113.895C162.366 114.138 160.884 114.237 159.153 114.218C158.412 114.224 158.412 114.224 157.656 114.231C156.002 114.242 154.348 114.236 152.694 114.23C151.508 114.234 150.321 114.239 149.134 114.246C145.913 114.26 142.691 114.258 139.47 114.253C136.781 114.249 134.092 114.254 131.403 114.259C125.061 114.269 118.719 114.267 112.377 114.256C105.832 114.246 99.2864 114.256 92.741 114.276C87.1226 114.293 81.5043 114.297 75.8859 114.292C72.5297 114.289 69.1736 114.29 65.8174 114.303C62.6621 114.315 59.5073 114.311 56.352 114.296C55.1936 114.292 54.0351 114.295 52.8767 114.302C51.296 114.312 49.7166 114.303 48.1359 114.289C47.4471 114.3 47.4471 114.3 46.7444 114.311C44.31 114.267 43.2669 113.956 41.3369 112.422C40.0578 110.763 40.0578 110.763 39.7054 108.884C40.5723 104.26 43.1854 103.41 47.4859 103.478Z" fill="white"/>
<path d="M47.3986 122.895C47.8135 122.89 48.2284 122.885 48.6559 122.88C50.0417 122.867 51.4265 122.877 52.8123 122.887C53.8076 122.883 54.8028 122.877 55.7981 122.871C58.4982 122.856 61.1979 122.862 63.898 122.872C66.7243 122.88 69.5505 122.872 72.3767 122.867C77.1228 122.862 81.8688 122.869 86.6149 122.884C92.1013 122.901 97.5873 122.896 103.074 122.878C107.785 122.864 112.496 122.862 117.207 122.87C120.021 122.875 122.834 122.876 125.648 122.866C128.293 122.856 130.938 122.863 133.583 122.881C134.553 122.885 135.524 122.884 136.495 122.877C137.82 122.868 139.144 122.879 140.47 122.895C141.211 122.896 141.953 122.897 142.717 122.898C145.267 123.411 146.206 124.42 147.811 126.425C148.202 128.304 148.202 128.304 147.811 130.184C146.206 132.188 145.267 133.198 142.717 133.71C141.975 133.711 141.234 133.713 140.47 133.714C140.055 133.719 139.64 133.724 139.213 133.729C137.827 133.741 136.442 133.731 135.056 133.721C134.061 133.726 133.066 133.731 132.07 133.738C129.37 133.752 126.671 133.747 123.971 133.737C121.144 133.729 118.318 133.736 115.492 133.741C110.746 133.747 106 133.739 101.254 133.724C95.7673 133.707 90.2813 133.713 84.7949 133.73C80.0836 133.744 75.3725 133.746 70.6612 133.738C67.8476 133.733 65.0343 133.733 62.2208 133.743C59.5756 133.752 56.9308 133.746 54.2856 133.728C53.3151 133.723 52.3446 133.725 51.3741 133.732C50.0484 133.74 48.7242 133.729 47.3986 133.714C46.6572 133.713 45.9157 133.711 45.1518 133.71C42.6018 133.198 41.6622 132.188 40.0578 130.184C39.6662 128.304 39.6662 128.304 40.0578 126.425C42.3455 123.566 43.7682 122.9 47.3986 122.895Z" fill="white"/>
<path d="M51.0296 142.308C51.8255 142.302 52.6213 142.297 53.4413 142.291C55.6199 142.277 57.7979 142.282 59.9764 142.292C62.2584 142.3 64.5403 142.293 66.8222 142.288C70.654 142.282 74.4857 142.29 78.3175 142.305C82.7449 142.322 87.1718 142.316 91.5992 142.299C95.4034 142.285 99.2074 142.283 103.012 142.291C105.282 142.296 107.553 142.296 109.824 142.286C112.356 142.275 114.887 142.29 117.418 142.308C118.17 142.301 118.921 142.295 119.695 142.289C125.347 142.361 125.347 142.361 127.292 144.187C128.65 146.237 128.843 147.191 128.39 149.604C127.609 151.263 127.609 151.263 125.884 152.737C123.262 153.227 120.652 153.164 117.991 153.142C116.778 153.15 116.778 153.15 115.539 153.159C113.322 153.173 111.105 153.167 108.888 153.157C106.567 153.149 104.247 153.157 101.926 153.162C98.0287 153.167 94.1317 153.16 90.2345 153.145C85.7292 153.128 81.2243 153.133 76.719 153.151C72.8505 153.165 68.9821 153.167 65.1135 153.159C62.8032 153.154 60.493 153.153 58.1827 153.164C55.6072 153.174 53.0324 153.159 50.457 153.142C49.3077 153.151 49.3077 153.151 48.1352 153.161C42.9843 153.096 42.9843 153.096 40.8394 151.263C39.87 149.206 39.6368 148.091 40.0578 145.845C42.7971 141.709 46.416 142.269 51.0296 142.308Z" fill="#E9967A"/>
<path d="M46.8993 162.046C47.5352 162.042 48.1711 162.039 48.8262 162.035C49.8719 162.034 49.8719 162.034 50.9387 162.033C52.0406 162.028 52.0406 162.028 53.1648 162.023C55.1801 162.016 57.1955 162.011 59.2108 162.008C60.4703 162.006 61.7297 162.004 62.9891 162.001C66.9305 161.992 70.8718 161.986 74.8132 161.984C79.3613 161.981 83.9093 161.97 88.4574 161.952C91.9742 161.939 95.491 161.932 99.0078 161.931C101.108 161.931 103.208 161.927 105.307 161.916C107.65 161.905 109.993 161.906 112.335 161.91C113.03 161.905 113.725 161.899 114.44 161.893C120.36 161.925 120.36 161.925 122.752 164.013C123.72 165.95 123.562 167.518 123.378 169.651C121.989 171.473 121.174 172.057 118.993 172.784C117.991 172.842 116.986 172.865 115.982 172.867C115.362 172.87 114.742 172.873 114.103 172.876C113.423 172.875 112.744 172.875 112.044 172.875C110.969 172.878 110.969 172.878 109.873 172.881C107.498 172.887 105.124 172.888 102.749 172.889C101.102 172.891 99.4546 172.893 97.8074 172.895C94.3515 172.899 90.8957 172.9 87.4399 172.9C83.4475 172.899 79.4552 172.906 75.4628 172.916C71.6204 172.925 67.7781 172.927 63.9358 172.927C62.3017 172.928 60.6677 172.93 59.0336 172.935C56.7495 172.941 54.4654 172.94 52.1813 172.936C51.1657 172.941 51.1657 172.941 50.1297 172.947C49.5061 172.944 48.8825 172.941 48.24 172.939C47.4303 172.939 47.4303 172.939 46.6042 172.94C44.411 172.717 42.6388 171.99 40.8017 170.787C39.5935 168.943 39.8324 167.407 40.0578 165.266C41.713 162.271 43.6674 162.057 46.8993 162.046Z" fill="white"/>
<path d="M46.4434 181.466C47.2695 181.461 47.2695 181.461 48.1121 181.455C48.7178 181.455 49.3235 181.454 49.9475 181.453C50.5842 181.45 51.221 181.447 51.877 181.444C53.9907 181.435 56.1044 181.43 58.2181 181.427C59.6836 181.423 61.1491 181.42 62.6146 181.416C65.6908 181.41 68.7669 181.406 71.8431 181.404C75.7868 181.4 79.7303 181.385 83.674 181.367C86.7024 181.356 89.7308 181.353 92.7593 181.352C94.2132 181.35 95.6672 181.345 97.1211 181.336C99.1548 181.326 101.188 181.327 103.222 181.331C103.824 181.325 104.426 181.319 105.046 181.313C108.117 181.333 110.246 181.408 112.728 183.434C113.957 185.053 113.99 185.807 113.864 187.858C113.343 189.742 113.028 190.443 111.475 191.578C109.736 192.158 108.69 192.285 106.894 192.292C106.067 192.298 106.067 192.298 105.223 192.303C104.619 192.304 104.016 192.305 103.394 192.305C102.757 192.308 102.12 192.311 101.464 192.315C99.354 192.324 97.2437 192.328 95.1334 192.332C93.6688 192.335 92.2042 192.339 90.7396 192.342C87.6672 192.349 84.5948 192.353 81.5223 192.355C77.5836 192.358 73.6449 192.373 69.7062 192.391C66.6805 192.403 63.6548 192.406 60.629 192.407C59.1768 192.409 57.7246 192.414 56.2724 192.422C54.2418 192.433 52.2114 192.432 50.1807 192.428C49.5799 192.433 48.979 192.439 48.3599 192.445C45.3041 192.426 43.1401 192.367 40.6842 190.325C39.7158 188.388 39.8738 186.82 40.0578 184.687C41.9746 182.259 43.4141 181.478 46.4434 181.466Z" fill="white"/>
<path d="M117.033 83.7338C117.468 83.7317 117.903 83.7296 118.351 83.7274C119.791 83.7214 121.23 83.7202 122.669 83.7195C123.67 83.7175 124.671 83.7154 125.672 83.7132C127.771 83.7095 129.87 83.7083 131.969 83.7087C134.657 83.7087 137.344 83.7002 140.031 83.6894C142.099 83.6824 144.167 83.6812 146.235 83.6815C147.226 83.6808 148.217 83.678 149.207 83.6731C150.594 83.667 151.981 83.6688 153.368 83.6726C154.157 83.6717 154.945 83.6708 155.758 83.6699C157.803 83.8224 159.167 84.1098 160.967 85.0777C162.299 87.0767 162.429 88.3364 162.57 90.6939C162.012 92.7267 160.823 93.345 159.087 94.4748C156.948 94.7888 156.948 94.7888 154.468 94.7891C153.788 94.7942 153.788 94.7942 153.093 94.7993C151.6 94.8072 150.107 94.7968 148.613 94.7856C147.572 94.7857 146.531 94.7866 145.489 94.7883C143.309 94.7892 141.129 94.7813 138.949 94.7671C136.157 94.7493 133.367 94.751 130.575 94.759C128.426 94.7633 126.276 94.7584 124.126 94.7507C123.097 94.7478 122.068 94.7476 121.039 94.7501C119.599 94.7519 118.16 94.7415 116.721 94.7279C115.903 94.7245 115.084 94.7211 114.241 94.7176C111.968 94.4596 110.777 93.9712 108.97 92.5954C108.076 90.8079 108.149 89.5667 108.343 87.5836C110.745 83.856 112.794 83.7466 117.033 83.7338Z" fill="white"/>
<path d="M114.667 64.3032C115.461 64.2942 115.461 64.2942 116.271 64.285C117.13 64.281 117.13 64.281 118.007 64.2769C118.89 64.2716 118.89 64.2716 119.791 64.2661C121.039 64.2602 122.286 64.2561 123.534 64.2537C125.439 64.2476 127.345 64.2282 129.25 64.2084C130.462 64.2043 131.674 64.201 132.886 64.1986C133.455 64.1909 134.024 64.1831 134.61 64.1752C137.636 64.1858 139.734 64.2756 142.173 66.2836C143.141 68.2205 142.983 69.7882 142.799 71.9218C141.629 73.4034 140.719 74.2149 139.04 75.0542C138.206 75.1192 137.369 75.1473 136.532 75.1551C136.016 75.1611 135.499 75.1672 134.967 75.1734C134.408 75.176 133.848 75.1787 133.272 75.1814C132.41 75.1868 132.41 75.1868 131.53 75.1922C130.312 75.1982 129.094 75.2023 127.876 75.2047C126.016 75.2107 124.156 75.2302 122.296 75.2499C121.112 75.254 119.929 75.2573 118.746 75.2597C118.191 75.2675 117.635 75.2752 117.063 75.2832C114.064 75.2724 112.009 75.1612 109.596 73.1748C108.343 71.2953 108.343 71.2953 108.461 69.1027C108.952 66.9867 109.138 66.2628 110.849 65.0306C112.275 64.3176 113.083 64.3178 114.667 64.3032Z" fill="white"/>
</svg>
