<svg width="269" height="250" viewBox="0 0 269 250" fill="none" xmlns="http://www.w3.org/2000/svg">
<path d="M72.4297 0.17298C72.9753 0.169945 73.5209 0.166909 74.0831 0.163782C75.9138 0.155292 77.7443 0.156399 79.5751 0.157505C80.8867 0.153496 82.1984 0.148938 83.51 0.143869C87.0754 0.13202 90.6408 0.128893 94.2063 0.128038C97.1827 0.126767 100.159 0.121838 103.136 0.11709C110.159 0.106176 117.183 0.10291 124.206 0.103861C131.45 0.104666 138.693 0.0905364 145.937 0.0693709C152.156 0.0518461 158.375 0.0446656 164.595 0.0455218C168.309 0.0458633 172.023 0.0420508 175.737 0.0278663C179.232 0.0148848 182.727 0.0147974 186.222 0.0245392C187.503 0.0259391 188.784 0.0227821 190.065 0.0146778C191.817 0.00431136 193.569 0.0105716 195.321 0.0208824C195.825 0.0139912 196.329 0.00710001 196.848 0C201.168 0.0559427 204.546 1.50529 207.872 4.25368C208.226 4.66558 208.581 5.07748 208.947 5.50186C209.311 5.90512 209.674 6.30839 210.049 6.72387C213.486 12.2664 213.371 18.0418 213.32 24.3896C213.32 25.3871 213.32 26.3845 213.321 27.382C213.322 30.0736 213.31 32.765 213.296 35.4566C213.283 38.2755 213.282 41.0944 213.28 43.9133C213.273 49.2441 213.257 54.5747 213.237 59.9054C213.214 65.9773 213.203 72.0493 213.193 78.1212C213.172 90.6049 213.137 103.089 213.092 115.572C213.56 115.564 214.028 115.557 214.51 115.549C215.12 115.543 215.73 115.537 216.358 115.53C216.964 115.523 217.57 115.515 218.195 115.507C219.791 115.572 219.791 115.572 221.131 116.242C221.351 117.474 221.568 118.707 221.758 119.944C222.572 124.872 222.572 124.872 225.804 128.462C229.941 130.161 229.941 130.161 234.28 129.831C236.462 128.648 238.388 127.206 240.369 125.717C242.366 124.715 243.132 124.96 245.246 125.62C246.784 126.812 246.784 126.812 248.334 128.352C249.175 129.188 249.175 129.188 250.032 130.04C250.608 130.626 251.184 131.213 251.778 131.817C252.364 132.393 252.95 132.969 253.555 133.562C254.112 134.123 254.668 134.683 255.242 135.26C255.751 135.772 256.259 136.283 256.783 136.81C258.101 138.512 258.503 139.561 258.644 141.698C257.707 143.566 257.707 143.566 256.383 145.466C253.823 148.939 253.823 148.939 253.599 153.083C254.367 155.646 255.092 157.585 256.634 159.785C259.263 161.004 261.635 161.583 264.472 162.053C266.683 162.464 266.683 162.464 268.022 163.804C268.305 166.655 268.271 169.517 268.271 172.381C268.274 173.803 268.298 175.224 268.323 176.645C268.327 177.549 268.33 178.452 268.331 179.355C268.337 180.178 268.342 181.001 268.348 181.849C268.022 183.9 268.022 183.9 266.765 185.159C265.163 186.005 263.777 186.387 261.994 186.705C261.144 186.865 261.144 186.865 260.277 187.027C258.644 187.25 258.644 187.25 255.965 187.25C255.909 187.775 255.854 188.3 255.797 188.841C255.295 191.269 255.295 191.269 254.465 192.768C253.485 194.581 252.859 195.913 252.615 197.968C253.749 200.142 255.077 201.806 256.708 203.633C257.974 205.337 257.974 205.337 258.238 206.905C257.87 209.39 256.773 210.32 255.015 212.09C254.395 212.714 253.776 213.338 253.137 213.981C252.811 214.3 252.484 214.62 252.148 214.949C251.153 215.926 250.177 216.92 249.202 217.917C248.578 218.536 247.954 219.156 247.311 219.794C246.739 220.362 246.167 220.93 245.578 221.515C243.907 222.754 243.907 222.754 242.12 223.019C239.877 222.638 238.889 221.408 237.25 219.865C235.39 218.292 235.39 218.292 233.188 217.395C229.724 217.931 226.972 219.23 223.81 220.744C223.368 220.744 222.926 220.744 222.47 220.744C222.438 221.181 222.405 221.618 222.371 222.068C221.671 230.252 221.671 230.252 219.121 232.802C217.525 232.933 217.525 232.933 215.688 232.886C215.078 232.874 214.468 232.861 213.84 232.849C213.138 232.826 213.138 232.826 212.422 232.802C212.477 233.465 212.533 234.128 212.59 234.812C212.59 238.645 210.578 241.468 208.654 244.65C202.582 250.563 195.41 250.021 187.502 249.961C186.202 249.963 184.902 249.967 183.602 249.972C180.087 249.982 176.572 249.971 173.056 249.955C169.371 249.941 165.686 249.945 162.002 249.947C155.817 249.947 149.632 249.934 143.448 249.912C136.301 249.887 129.155 249.881 122.009 249.886C115.126 249.89 108.243 249.883 101.36 249.87C98.4339 249.865 95.508 249.863 92.582 249.864C89.1372 249.864 85.6925 249.855 82.2477 249.838C80.9848 249.833 79.7218 249.831 78.4588 249.834C76.7328 249.836 75.0073 249.826 73.2814 249.813C72.5346 249.819 72.5346 249.819 71.7727 249.824C67.2595 249.765 63.7036 248.4 60.2328 245.488C59.8088 245.148 59.3848 244.809 58.948 244.459C54.8836 239.306 54.6192 233.601 54.6951 227.274C54.6948 226.41 54.6944 225.547 54.694 224.657C54.6932 222.31 54.7088 219.964 54.7276 217.617C54.7445 215.156 54.746 212.696 54.7492 210.235C54.7575 205.586 54.7794 200.936 54.8064 196.286C54.8364 190.988 54.8511 185.691 54.8645 180.393C54.8924 169.504 54.9395 158.615 54.9993 147.727C54.5391 147.758 54.0788 147.789 53.6046 147.821C53.001 147.845 52.3974 147.869 51.7755 147.894C51.1771 147.925 50.5787 147.956 49.9621 147.988C48.3005 147.727 48.3005 147.727 47.1091 146.521C45.9615 144.454 45.7768 142.528 45.4954 140.19C45.3891 139.344 45.2829 138.498 45.1735 137.626C45.0634 136.657 45.0634 136.657 44.9511 135.669C44.3371 135.581 43.7231 135.493 43.0906 135.402C40.9318 134.999 40.9318 134.999 38.5453 133.91C36.0363 132.907 35.3938 132.902 32.8932 133.659C31.319 134.632 29.8735 135.714 28.3924 136.823C26.5224 137.87 25.6361 137.951 23.5148 137.678C21.9153 136.502 21.9153 136.502 20.2805 134.865C19.6899 134.276 19.0992 133.687 18.4907 133.079C17.8827 132.456 17.2748 131.832 16.6485 131.189C15.7211 130.272 15.7211 130.272 14.7749 129.338C9.61055 124.116 9.61055 124.116 9.44722 120.931C10.6248 119.058 10.6248 119.058 12.2105 117.079C14.2421 114.385 14.2421 114.385 14.7644 111.194C14.2195 109.667 13.5539 108.296 12.7966 106.864C12.5083 105.964 12.2407 105.057 12.0012 104.142C11.8215 103.493 11.6419 102.844 11.4569 102.174C10.8015 102.125 10.8015 102.125 10.1328 102.075C1.94884 101.375 1.94884 101.375 0.0688465 99.495C0.00963101 97.9035 -0.00839313 96.3317 0.00342818 94.7404C0.00437603 94.2655 0.00532388 93.7906 0.00630045 93.3014C0.0100613 91.7792 0.0184715 90.2571 0.0269788 88.7349C0.030337 87.7053 0.0333939 86.6756 0.0361374 85.6459C0.043538 83.1168 0.0551096 80.5877 0.0688465 78.0587C3.04625 76.7369 5.47341 75.7898 8.73547 75.5885C9.37707 75.5444 10.0187 75.5004 10.6797 75.455C11.396 75.4175 11.396 75.4175 12.1268 75.3791C12.2002 74.9983 12.2736 74.6175 12.3492 74.2252C12.4554 73.7079 12.5616 73.1907 12.671 72.6577C12.7842 72.1025 12.8973 71.5472 13.0138 70.9752C13.4665 69.3502 13.4665 69.3502 14.89 67.0893C15.0835 66.288 15.2769 65.4866 15.4762 64.661C14.2409 62.6597 12.8589 60.9525 11.2946 59.1972C10.1171 57.2923 10.1171 57.2923 9.99935 55.0157C11.0566 51.7773 12.8078 50.1113 15.2668 47.8302C15.6774 47.4321 16.0881 47.034 16.5111 46.6238C17.7119 45.4702 18.9314 44.3427 20.1654 43.2247C20.7221 42.7163 20.7221 42.7163 21.2901 42.1976C23.1197 40.5895 23.9103 39.896 26.4037 39.7078C28.9584 40.5738 29.7485 41.3248 31.6371 43.141C33.0959 44.506 33.0959 44.506 34.9028 45.2344C37.4109 44.7473 39.4255 43.8927 41.722 42.7825C43.6113 41.8849 43.6113 41.8849 45.621 41.8849C45.6702 41.2412 45.6702 41.2412 45.7204 40.5844C46.0246 37.0654 46.4261 33.827 47.6306 30.4969C49.3219 29.6513 50.5192 29.761 52.4035 29.7852C53.0132 29.7912 53.6228 29.7972 54.251 29.8035C54.719 29.8112 55.187 29.819 55.6692 29.827C55.6517 29.3345 55.6341 28.842 55.6161 28.3345C55.5458 26.0689 55.5027 23.8035 55.4599 21.5372C55.4318 20.7626 55.4038 19.988 55.3748 19.19C55.3016 14.0022 55.9323 9.98831 59.0186 5.7112C60.6983 4.14452 62.3991 2.85626 64.3777 1.69189C64.9154 1.34188 64.9154 1.34188 65.464 0.984795C67.7589 0.0735244 69.9973 0.163082 72.4297 0.17298ZM64.1684 10.7353C60.177 16.6485 62.3681 21.4343 62.3681 29.827C109.896 29.827 157.425 29.827 206.393 29.827C207.401 19.0508 207.401 19.0508 203.355 9.9032C199.975 7.39608 198.115 6.95205 193.982 6.95688C193.456 6.95489 192.93 6.9529 192.387 6.95085C190.614 6.94502 188.841 6.94402 187.068 6.94302C185.8 6.93992 184.533 6.93656 183.266 6.93295C179.815 6.92414 176.365 6.91983 172.914 6.91686C170.759 6.9149 168.605 6.91215 166.45 6.90915C159.711 6.89999 152.973 6.89352 146.234 6.89093C138.45 6.88793 130.666 6.87618 122.881 6.85677C116.869 6.84229 110.856 6.83553 104.843 6.83463C101.25 6.83393 97.6573 6.82996 94.0643 6.81801C90.6839 6.80698 87.3037 6.80552 83.9233 6.8114C82.6827 6.81192 81.4421 6.809 80.2016 6.80239C78.5073 6.79389 76.8136 6.79779 75.1194 6.80479C74.6289 6.79939 74.1385 6.79399 73.6332 6.78843C69.6218 6.82714 66.904 7.77794 64.1684 10.7353ZM52.9897 36.5259C52.8757 37.1795 52.7617 37.8332 52.6443 38.5067C52.4008 39.7852 52.4008 39.7852 52.1523 41.0894C51.9969 41.9366 51.8415 42.7837 51.6813 43.6565C50.98 45.9042 50.98 45.9042 49.8104 47.1289C48.0438 48.0473 46.3146 48.6412 44.4068 49.2118C41.9314 49.9848 39.826 50.7493 37.6661 52.1844C35.5727 53.273 35.5727 53.273 33.563 52.9799C31.1279 51.7116 29.0505 50.2453 26.8642 48.5838C24.3986 49.613 22.8531 51.1169 21.0027 53.0218C20.1996 53.843 20.1996 53.843 19.3803 54.6808C18.9762 55.1004 18.5721 55.5201 18.1557 55.9525C19.8877 59.1389 19.8877 59.1389 22.0494 62.0233C22.8449 63.3212 22.8449 63.3212 22.8449 65.0378C22.043 67.7944 20.9034 70.279 19.6577 72.8618C18.9255 74.4875 18.4499 76.0098 17.9882 77.7237C16.701 80.2982 16.4857 80.4615 13.9271 81.3244C12.8823 81.5833 11.8354 81.8339 10.787 82.078C8.79744 82.7412 8.79744 82.7412 6.76769 83.4177C6.76769 87.1758 6.76769 90.9338 6.76769 94.8058C8.34275 95.0268 9.91782 95.2479 11.5406 95.4757C13.9967 95.9857 16.1067 96.5333 17.654 98.6102C18.771 100.869 19.4616 103.198 20.113 105.626C20.7677 107.962 21.5721 109.525 22.8449 111.553C22.933 115.519 20.5685 118.024 18.1557 120.931C19.185 123.397 20.6889 124.942 22.5937 126.793C23.1412 127.328 23.6886 127.864 24.2527 128.415C24.6724 128.819 25.0921 129.223 25.5244 129.64C27.4219 128.742 29.0832 127.703 30.7998 126.5C32.5814 125.396 33.3601 124.959 35.489 124.867C37.9668 125.759 40.2282 126.898 42.5411 128.153C44.2601 128.96 45.6896 129.238 47.5469 129.556C49.0253 129.983 49.0253 129.983 50.3101 130.98C51.6623 134.263 52.376 137.539 52.9897 141.028C53.2107 141.028 53.4318 141.028 53.6596 141.028C53.6596 132.406 53.6596 123.785 53.6596 114.902C51.2279 114.018 48.7962 113.134 46.2908 112.223C39.712 107.932 35.1118 102.589 33.3956 94.8058C32.0654 87.0264 33.35 80.0698 37.5824 73.3695C41.6113 68.1066 47.2711 64.9183 53.6596 63.3212C53.6596 54.4788 53.6596 45.6363 53.6596 36.5259C53.4385 36.5259 53.2174 36.5259 52.9897 36.5259ZM62.3681 36.5259C62.3681 94.6651 62.3681 152.804 62.3681 212.705C78.5056 212.705 94.6431 212.705 111.27 212.705C111.445 201.374 111.445 201.374 111.564 190.042C111.6 185.419 111.643 180.797 111.724 176.175C111.79 172.449 111.826 168.723 111.842 164.995C111.853 163.574 111.874 162.152 111.907 160.731C112.445 153.31 112.445 153.31 109.954 146.668C108.399 145.625 106.996 145.001 105.241 144.377C96.8226 137.253 91.3991 127.888 89.8333 116.912C88.9604 101.526 92.2801 89.7198 102.561 78.0587C105.174 75.5092 107.263 73.5591 110.935 73.0345C112.609 73.3695 112.609 73.3695 113.279 74.0394C113.32 76.1106 113.322 78.1702 113.303 80.241C113.305 81.5302 113.309 82.8194 113.315 84.1086C113.322 86.1465 113.321 88.1828 113.295 90.2206C113.273 92.1842 113.285 94.1453 113.303 96.1089C113.288 96.7127 113.273 97.3164 113.257 97.9385C113.306 100.526 113.41 102.19 115.089 104.23C116.446 105.431 117.827 106.491 119.308 107.534C120.219 108.239 121.128 108.946 122.035 109.656C122.939 110.332 123.844 111.006 124.751 111.678C125.204 112.018 125.658 112.358 126.125 112.708C128.715 114.64 131.34 116.486 134.046 118.252C134.349 118.019 134.651 117.787 134.963 117.548C140.637 113.2 146.315 108.861 152.049 104.592C153.388 103.629 153.388 103.629 154.142 102.844C154.233 100.783 154.283 98.7342 154.307 96.6715C154.329 95.3976 154.351 94.1237 154.374 92.8498C154.406 90.8312 154.435 88.8127 154.462 86.7941C154.488 84.853 154.523 82.9121 154.558 80.9711C154.564 80.3647 154.57 79.7583 154.575 79.1335C154.592 78.292 154.592 78.292 154.609 77.4334C154.616 76.9386 154.623 76.4438 154.63 75.934C154.812 74.7093 154.812 74.7093 156.152 73.3695C160.955 73.7005 164.458 77.6184 167.66 80.89C175.783 90.3407 179.169 102.48 178.4 114.792C177.17 127.378 171.041 137.682 161.629 145.924C160.171 147.057 160.171 147.057 158.429 147.749C156.745 148.862 156.745 148.862 156.518 150.275C156.407 151.925 156.408 153.545 156.441 155.198C156.441 155.825 156.44 156.453 156.44 157.099C156.442 159.177 156.468 161.253 156.495 163.33C156.501 164.769 156.506 166.208 156.509 167.647C156.522 171.437 156.555 175.226 156.592 179.016C156.632 183.561 156.647 188.107 156.667 192.652C156.699 199.56 156.764 206.467 156.822 213.375C172.959 213.375 189.097 213.375 205.723 213.375C205.723 155.015 205.723 96.6547 205.723 36.5259C158.416 36.5259 111.109 36.5259 62.3681 36.5259ZM44.3649 75.5466C39.9558 80.4248 39.098 85.1688 39.2937 91.684C39.9383 96.9824 42.4781 100.953 46.3589 104.537C49.3333 106.845 51.8807 108.203 55.6692 108.203C55.6692 95.6029 55.6692 83.0024 55.6692 70.0201C51.4482 70.0201 47.3931 72.7348 44.3649 75.5466ZM105.631 85.6237C98.0053 93.7875 96.1035 103.483 96.3254 114.24C96.7787 124.222 101.705 132.726 108.831 139.513C111.107 141.462 113.491 143.165 116.003 144.796C117.299 145.717 117.299 145.717 117.968 147.057C118.037 147.948 118.067 148.842 118.074 149.736C118.081 150.295 118.088 150.855 118.094 151.432C118.1 152.355 118.1 152.355 118.106 153.297C118.113 153.944 118.119 154.591 118.126 155.257C118.147 157.403 118.164 159.549 118.18 161.695C118.194 163.18 118.208 164.665 118.223 166.15C118.26 170.064 118.293 173.977 118.325 177.891C118.364 182.585 118.409 187.278 118.452 191.971C118.518 199.106 118.578 206.24 118.638 213.375C128.807 213.375 138.976 213.375 149.453 213.375C149.467 206.252 149.467 206.252 149.482 198.986C149.495 195.979 149.51 192.972 149.528 189.965C149.556 185.191 149.581 180.417 149.584 175.644C149.587 171.795 149.606 167.947 149.636 164.099C149.645 162.63 149.648 161.161 149.645 159.693C149.641 157.636 149.659 155.581 149.681 153.525C149.675 152.917 149.67 152.309 149.664 151.682C149.718 148.701 149.803 147.458 151.716 145.057C153.454 143.721 155.207 142.454 157.031 141.237C165.425 135.201 170.065 126.511 171.915 116.446C173.234 107.148 171.177 98.0941 166.2 90.1166C164.754 88.206 163.262 86.3973 161.511 84.7575C161.29 84.7575 161.069 84.7575 160.841 84.7575C160.62 92.4947 160.399 100.232 160.171 108.203C158.845 108.867 158.845 108.867 157.492 109.543C156.12 110.474 154.772 111.419 153.43 112.39C153.032 112.675 152.633 112.959 152.223 113.252C149.718 115.049 147.254 116.892 144.808 118.77C144.246 119.197 143.683 119.624 143.104 120.064C141.993 120.91 140.888 121.763 139.789 122.625C137.601 124.283 135.966 125.495 133.261 126.081C130.738 125.468 129.106 124.178 127.179 122.522C126.363 121.85 125.545 121.178 124.727 120.507C124.291 120.145 123.855 119.783 123.406 119.41C120.814 117.293 118.15 115.268 115.498 113.228C114.476 112.441 113.454 111.652 112.434 110.862C111.999 110.527 111.564 110.191 111.116 109.845C110.725 109.525 110.333 109.204 109.93 108.873C109.554 108.605 109.177 108.336 108.79 108.059C107.409 106.162 107.598 104.093 107.577 101.832C107.565 101.344 107.553 100.856 107.541 100.353C107.505 98.7973 107.482 97.2414 107.46 95.685C107.437 94.6291 107.414 93.5733 107.39 92.5174C107.333 89.9309 107.289 87.3444 107.25 84.7575C106.449 84.6823 106.449 84.6823 105.631 85.6237ZM212.422 122.271C212.422 130.671 212.422 139.072 212.422 147.727C214.412 148.39 216.401 149.053 218.451 149.736C225.749 152.688 229.719 156.635 233.037 163.775C235.854 170.764 235.804 177.631 233.147 184.696C229.532 192.517 224.194 196.061 216.441 199.308C214.452 199.971 214.452 199.971 212.422 200.647C212.422 209.048 212.422 217.448 212.422 226.103C213.306 226.103 214.191 226.103 215.102 226.103C215.171 225.424 215.24 224.746 215.311 224.046C216.36 217.113 216.36 217.113 218.906 215.217C221.165 214.1 223.494 213.409 225.922 212.758C228.258 212.103 229.821 211.299 231.849 210.026C235.815 209.938 238.32 212.302 241.227 214.715C243.693 213.686 245.238 212.182 247.089 210.277C247.624 209.73 248.159 209.182 248.711 208.618C249.115 208.198 249.519 207.779 249.936 207.346C249.135 205.149 248.293 203.484 246.796 201.694C245.604 200.047 245.255 199.511 245.163 197.424C246.045 194.923 247.185 192.658 248.449 190.33C249.256 188.611 249.534 187.181 249.852 185.324C250.278 183.845 250.278 183.845 251.275 182.561C254.67 181.163 257.647 180.604 261.324 179.881C261.324 176.123 261.324 172.365 261.324 168.493C259.749 168.272 258.173 168.051 256.551 167.823C254.095 167.313 251.985 166.765 250.437 164.689C249.32 162.429 248.63 160.101 247.978 157.673C247.324 155.336 246.519 153.774 245.246 151.746C245.158 147.78 247.523 145.275 249.936 142.368C248.906 139.902 247.402 138.356 245.498 136.506C244.95 135.971 244.403 135.435 243.839 134.884C243.419 134.48 242.999 134.075 242.567 133.659C240.669 134.557 239.008 135.596 237.292 136.799C235.51 137.903 234.731 138.339 232.602 138.432C230.125 137.54 227.863 136.401 225.55 135.145C223.831 134.339 222.402 134.061 220.544 133.743C219.066 133.316 219.066 133.316 217.781 132.319C216.429 129.036 215.715 125.76 215.102 122.271C214.217 122.271 213.333 122.271 212.422 122.271ZM212.422 155.095C212.422 167.696 212.422 180.296 212.422 193.279C218.864 192.205 222.661 189.127 226.49 183.9C229.444 179.135 229.256 173.302 228.083 167.925C226.231 162.6 222.561 158.74 217.614 156.1C215.601 155.136 214.808 155.095 212.422 155.095ZM62.3681 220.744C61.094 234.822 61.094 234.822 65.0476 240.84C67.9133 243.534 71.3076 243.908 75.122 243.86C75.6447 243.864 76.1674 243.869 76.706 243.873C78.4473 243.884 80.188 243.875 81.9293 243.867C83.1819 243.87 84.4344 243.875 85.6869 243.881C89.0821 243.893 92.477 243.888 95.8722 243.88C99.4288 243.873 102.985 243.879 106.542 243.884C112.515 243.889 118.488 243.882 124.461 243.869C131.361 243.855 138.261 243.859 145.161 243.874C151.09 243.886 157.02 243.888 162.949 243.881C166.488 243.877 170.027 243.876 173.566 243.885C176.894 243.893 180.222 243.888 183.55 243.872C184.77 243.869 185.989 243.87 187.209 243.875C188.878 243.883 190.546 243.874 192.214 243.86C192.693 243.866 193.172 243.872 193.666 243.878C197.153 243.825 200.338 243.09 203.044 240.84C206.997 234.822 206.997 234.822 205.723 220.744C158.416 220.744 111.109 220.744 62.3681 220.744Z" fill="white"/>
<path d="M116.194 14.8189C117.512 14.8062 117.512 14.8062 118.857 14.7932C119.817 14.7945 120.777 14.7965 121.737 14.7991C122.72 14.7961 123.704 14.7925 124.687 14.7885C126.748 14.7825 128.809 14.7841 130.87 14.7908C133.513 14.7985 136.155 14.7849 138.797 14.7654C140.828 14.7531 142.859 14.7533 144.89 14.7571C145.864 14.7572 146.839 14.7531 147.813 14.7448C149.174 14.7349 150.536 14.7438 151.897 14.7535C152.672 14.7536 153.447 14.7537 154.245 14.7538C156.152 15.0896 156.152 15.0896 157.43 16.3169C158.459 18.3595 158.114 19.634 157.492 21.7884C155.619 22.7246 154.068 22.5539 151.973 22.5662C150.655 22.5759 150.655 22.5759 149.311 22.5857C148.347 22.589 147.384 22.5919 146.42 22.5944C145.436 22.5982 144.451 22.6021 143.467 22.6059C141.402 22.613 139.337 22.6169 137.272 22.6192C134.624 22.6229 131.976 22.639 129.329 22.6581C127.295 22.6705 125.261 22.674 123.228 22.6751C122.251 22.6771 121.275 22.6825 120.299 22.6913C118.934 22.7027 117.57 22.7002 116.205 22.6971C115.428 22.6995 114.651 22.702 113.851 22.7045C111.94 22.4583 111.94 22.4583 110.684 21.5432C109.602 19.9726 109.65 18.9629 109.93 17.0992C111.612 14.6638 113.378 14.8321 116.194 14.8189Z" fill="#E9967A"/>
<path d="M138.902 222.879C141.473 224.574 143.054 225.928 143.806 229.008C144.318 232.636 144.234 235.047 142.084 238.161C140.168 240.376 138.837 241.383 135.851 241.646C131.369 241.728 129.154 241.208 125.839 238.077C124.241 235.452 123.866 233.179 123.997 230.122C125.031 226.621 126.295 224.744 129.356 222.754C132.725 221.631 135.613 221.678 138.902 222.879ZM132.706 228.783C131.555 230.42 131.555 230.42 130.696 232.132C131.359 233.016 132.022 233.901 132.706 234.812C134.343 234.685 134.343 234.685 136.055 234.142C136.966 232.824 136.966 232.824 137.395 231.462C136.181 230.081 136.181 230.081 134.715 228.783C134.052 228.783 133.389 228.783 132.706 228.783Z" fill="#E9967A"/>
</svg>
