<svg width="252" height="251" viewBox="0 0 252 251" fill="none" xmlns="http://www.w3.org/2000/svg">
<path d="M29.2685 1.12929C30.2148 1.12585 30.2148 1.12585 31.1802 1.12235C33.2968 1.11548 35.4134 1.11308 37.5301 1.1107C39.0467 1.1068 40.5634 1.10266 42.08 1.0983C46.6331 1.08632 51.1862 1.07971 55.7393 1.07417C57.886 1.07144 60.0327 1.06809 62.1794 1.06483C69.32 1.05423 76.4606 1.04521 83.6012 1.04069C85.4529 1.0395 87.3046 1.0383 89.1563 1.03709C89.8466 1.03663 89.8466 1.03663 90.5508 1.03617C98.0006 1.03101 105.45 1.01523 112.9 0.994984C120.557 0.97435 128.213 0.963157 135.87 0.961169C140.166 0.959823 144.461 0.954414 148.757 0.938454C152.8 0.923465 156.843 0.92132 160.887 0.927714C162.367 0.928022 163.848 0.924096 165.329 0.915531C176.507 0.854503 184.167 1.38873 192.607 9.33939C198.407 15.312 200.086 22.2148 200.061 30.2754C200.062 31.1876 200.062 31.1876 200.062 32.1183C200.063 34.1577 200.06 36.197 200.057 38.2364C200.056 39.6977 200.056 41.159 200.057 42.6202C200.057 46.5896 200.053 50.5589 200.049 54.5283C200.045 58.2555 200.045 61.9828 200.044 65.7101C200.043 73.092 200.039 80.4739 200.033 87.8559C200.027 95.0262 200.023 102.197 200.02 109.367C200.02 110.03 200.02 110.03 200.02 110.706C200.019 112.924 200.018 115.142 200.017 117.36C200.011 135.755 200 154.15 199.986 172.545C197.313 172.545 194.641 172.545 191.887 172.545C191.886 171.797 191.885 171.05 191.884 170.279C191.862 152.511 191.827 134.742 191.776 116.974C191.77 114.784 191.764 112.594 191.758 110.405C191.756 109.969 191.755 109.533 191.754 109.084C191.735 102.037 191.724 94.99 191.717 87.943C191.709 80.7058 191.692 73.4688 191.666 66.2317C191.652 62.1693 191.642 58.1071 191.643 54.0447C191.643 50.2177 191.632 46.3909 191.612 42.564C191.607 41.1627 191.606 39.7614 191.609 38.36C191.836 25.5702 191.836 25.5702 185.698 14.7322C182.069 11.7687 177.757 9.86912 173.055 9.86103C172.531 9.85864 172.007 9.85625 171.467 9.85378C170.894 9.85432 170.321 9.85486 169.731 9.85542C169.12 9.85357 168.51 9.85172 167.88 9.84981C165.828 9.8444 163.775 9.84346 161.722 9.84253C160.253 9.83965 158.783 9.83651 157.314 9.83316C152.9 9.82412 148.486 9.82038 144.072 9.81733C141.992 9.81573 139.912 9.81337 137.832 9.81103C130.914 9.80343 123.997 9.79702 117.079 9.79491C116.636 9.79477 116.194 9.79464 115.737 9.79449C115.294 9.79436 114.85 9.79422 114.393 9.79408C113.494 9.79381 112.595 9.79353 111.696 9.79325C111.25 9.79311 110.804 9.79297 110.344 9.79283C103.123 9.79037 95.9023 9.7795 88.6813 9.76499C81.2625 9.7502 73.8438 9.74245 66.425 9.74173C62.2617 9.74116 58.0985 9.7374 53.9352 9.72626C50.0172 9.71599 46.0994 9.71466 42.1814 9.72012C40.7454 9.7206 39.3094 9.7179 37.8734 9.71174C35.9086 9.7038 33.9442 9.70748 31.9794 9.71397C31.1329 9.70644 31.1329 9.70644 30.2692 9.69876C23.7594 9.74882 19.1194 11.3835 14.4182 15.9149C10.5521 20.2828 9.8801 24.7291 9.87353 30.3741C9.87046 30.9334 9.86738 31.4927 9.86421 32.0689C9.85463 33.9466 9.84942 35.8244 9.84419 37.7021C9.83822 39.0467 9.83199 40.3912 9.8255 41.7358C9.80864 45.3898 9.79555 49.0438 9.78313 52.6979C9.76952 56.5152 9.75246 60.3324 9.73575 64.1497C9.70464 71.3799 9.67665 78.6102 9.64976 85.8405C9.61901 94.0712 9.5848 102.302 9.55028 110.533C9.47936 127.465 9.41281 144.398 9.34911 161.331C6.67646 161.331 4.0038 161.331 1.25016 161.331C1.19192 143.335 1.14799 125.34 1.12105 107.344C1.11849 105.68 1.11591 104.015 1.11327 102.351C1.11262 101.937 1.11197 101.523 1.11129 101.097C1.10114 94.8236 1.08365 88.5499 1.06217 82.2763C1.03731 74.9921 1.02125 67.708 1.0157 60.4238C1.01245 56.5679 1.00484 52.7122 0.986686 48.8563C0.969724 45.2242 0.964563 41.5922 0.968301 37.9601C0.967617 36.6298 0.962689 35.2996 0.953105 33.9694C0.883956 23.8733 1.81649 16.5744 8.72611 8.69692C14.8129 2.8799 21.0672 1.12769 29.2685 1.12929Z" fill="white"/>
<path d="M242.077 2.31121C242.803 2.75922 243.519 3.22484 244.218 3.71295C244.771 4.04704 245.324 4.38112 245.893 4.72532C251.458 10.4414 250.945 17.3957 250.99 24.851C251.008 26.1107 251.028 27.3704 251.049 28.63C251.1 32.0449 251.131 35.4596 251.154 38.8747C251.169 41.0212 251.187 43.1676 251.205 45.3141C251.261 52.066 251.302 58.8178 251.326 65.57C251.353 73.2943 251.428 81.016 251.548 88.7395C251.638 94.7493 251.68 100.758 251.689 106.769C251.695 110.338 251.72 113.905 251.795 117.474C252.17 136.191 250.423 156.625 237.731 171.723C236.743 172.545 236.743 172.545 234.601 172.856C232.382 172.545 232.382 172.545 231.156 171.321C229.549 168.921 228.462 166.443 227.351 163.784C227.006 162.972 227.006 162.972 226.654 162.144C226.171 161.003 225.69 159.862 225.211 158.719C224.479 156.973 223.738 155.231 222.996 153.49C222.527 152.379 222.057 151.267 221.589 150.156C221.368 149.637 221.147 149.117 220.92 148.582C220.716 148.094 220.512 147.605 220.302 147.102C220.123 146.675 219.944 146.249 219.759 145.81C218.631 142.625 218.589 139.513 218.603 136.167C218.603 135.642 218.603 135.117 218.603 134.576C218.603 132.818 218.608 131.06 218.613 129.302C218.614 128.041 218.615 126.78 218.616 125.519C218.62 121.38 218.63 117.24 218.642 113.1C218.645 111.673 218.649 110.247 218.652 108.821C218.668 102.887 218.685 96.9529 218.707 91.019C218.738 82.521 218.759 74.0232 218.765 65.5252C218.77 59.5464 218.787 53.5677 218.813 47.5889C218.828 44.0196 218.838 40.4506 218.835 36.8813C218.833 33.5221 218.845 30.1632 218.869 26.8041C218.875 25.5741 218.876 24.344 218.871 23.114C218.827 10.6836 218.827 10.6836 222.414 6.20494C227.69 1.27412 235.205 -1.02008 242.077 2.31121ZM229.89 11.1889C229.53 11.4587 229.17 11.7286 228.799 12.0066C227.681 13.3503 227.681 13.3503 227.398 16.7959C232.332 16.7959 237.266 16.7959 242.35 16.7959C241.741 13.7544 241.096 11.8007 238.612 9.94291C235.3 8.85703 232.65 8.91599 229.89 11.1889ZM227.398 24.8948C227.398 61.9008 227.398 98.9067 227.398 137.034C232.332 137.034 237.266 137.034 242.35 137.034C242.35 100.028 242.35 63.0222 242.35 24.8948C237.415 24.8948 232.481 24.8948 227.398 24.8948ZM229.89 145.756C231.117 149.622 232.538 153.293 234.251 156.97C234.662 156.97 235.073 156.97 235.497 156.97C236.226 155.336 236.953 153.7 237.677 152.064C237.885 151.599 238.093 151.134 238.307 150.655C238.504 150.209 238.701 149.763 238.904 149.304C239.086 148.893 239.269 148.482 239.457 148.058C239.931 146.996 239.931 146.996 239.858 145.756C236.568 145.756 233.279 145.756 229.89 145.756Z" fill="#E9967A"/>
<path d="M19.9129 172.453C21.0525 172.446 21.0525 172.446 22.2152 172.44C23.0554 172.438 23.8955 172.436 24.7357 172.435C25.6221 172.431 26.5085 172.426 27.3948 172.422C30.3043 172.409 33.2138 172.403 36.1233 172.396C37.1268 172.394 38.1303 172.391 39.1337 172.389C43.8499 172.377 48.5661 172.368 53.2822 172.363C58.7166 172.357 64.1508 172.34 69.5851 172.315C73.7914 172.296 77.9977 172.287 82.2041 172.285C84.7135 172.284 87.2227 172.278 89.732 172.262C92.0955 172.248 94.4588 172.245 96.8224 172.252C97.6857 172.252 98.5491 172.248 99.4125 172.239C106.093 172.177 111.77 173.01 116.796 177.716C120.789 182.147 122.261 186.857 122.282 192.815C122.286 193.262 122.289 193.71 122.292 194.171C122.301 195.637 122.3 197.103 122.299 198.569C122.301 199.597 122.304 200.625 122.307 201.653C122.311 203.803 122.311 205.953 122.308 208.104C122.304 210.847 122.315 213.59 122.329 216.333C122.339 218.455 122.339 220.577 122.337 222.699C122.337 223.71 122.341 224.721 122.347 225.732C122.391 233.751 121.755 240.033 115.881 246.058C112.096 249.062 108.159 250.57 103.299 250.586C102.537 250.591 101.776 250.596 100.991 250.602C100.156 250.602 99.32 250.601 98.4843 250.6C97.5978 250.604 96.7112 250.608 95.8247 250.613C93.4226 250.624 91.0207 250.627 88.6186 250.628C87.1156 250.629 85.6126 250.631 84.1096 250.635C78.8592 250.646 73.6089 250.651 68.3585 250.65C63.4756 250.649 58.5928 250.663 53.7099 250.682C49.5089 250.699 45.3078 250.705 41.1067 250.704C38.6016 250.704 36.0966 250.708 33.5914 250.721C31.233 250.733 28.8748 250.733 26.5163 250.724C25.2469 250.722 23.9774 250.732 22.7079 250.743C16.0963 250.698 10.9815 249.413 6.08325 244.812C2.34902 240.564 1.16148 236.418 1.13989 230.88C1.1358 230.422 1.1317 229.963 1.12749 229.491C1.11523 227.977 1.10793 226.463 1.10172 224.949C1.09918 224.43 1.09664 223.911 1.09402 223.376C1.08104 220.626 1.07212 217.876 1.06628 215.126C1.0594 212.298 1.03798 209.471 1.01322 206.643C0.996854 204.458 0.991703 202.273 0.989472 200.088C0.986454 199.046 0.979258 198.005 0.967644 196.963C0.88816 189.36 1.42161 183.165 6.85713 177.378C10.783 173.927 14.7507 172.474 19.9129 172.453ZM11.9409 184.267C11.7152 184.626 11.4895 184.985 11.257 185.355C11.0201 185.716 10.7832 186.076 10.5391 186.448C9.2482 188.836 9.26016 190.893 9.23884 193.559C9.23474 193.983 9.23065 194.407 9.22643 194.843C9.21415 196.245 9.20687 197.647 9.20066 199.049C9.19812 199.529 9.19558 200.009 9.19297 200.504C9.17997 203.046 9.17106 205.589 9.16522 208.131C9.15834 210.749 9.13692 213.366 9.11216 215.984C9.09582 218.004 9.09065 220.024 9.08842 222.044C9.08539 223.008 9.07818 223.972 9.06659 224.937C8.96515 232.127 8.96515 232.127 11.8411 238.582C12.8959 239.738 12.8959 239.738 14.0605 240.412C14.4211 240.649 14.7817 240.886 15.1532 241.13C17.3376 242.311 19.1477 242.401 21.5818 242.408C22.3129 242.411 23.0439 242.415 23.7971 242.419C24.6001 242.419 25.4031 242.42 26.2304 242.421C27.0839 242.424 27.9374 242.427 28.7909 242.43C31.1105 242.438 33.43 242.442 35.7496 242.445C37.1991 242.447 38.6485 242.449 40.098 242.452C44.6339 242.461 49.1697 242.467 53.7056 242.469C58.9401 242.472 64.1744 242.483 69.4088 242.501C73.4558 242.514 77.5028 242.521 81.5499 242.522C83.9665 242.522 86.3831 242.526 88.7997 242.537C91.0737 242.547 93.3476 242.549 95.6216 242.543C96.8514 242.542 98.0813 242.551 99.3111 242.56C100.047 242.556 100.784 242.553 101.542 242.549C102.18 242.55 102.817 242.551 103.474 242.552C106.622 242.15 109.046 240.786 111.053 238.349C111.352 237.997 111.651 237.645 111.958 237.283C113.838 234.509 114.172 232.07 114.193 228.755C114.198 228.343 114.202 227.931 114.206 227.507C114.218 226.152 114.22 224.798 114.222 223.443C114.226 222.496 114.23 221.548 114.234 220.601C114.242 218.617 114.244 216.633 114.243 214.648C114.243 212.116 114.26 209.583 114.282 207.051C114.296 205.094 114.298 203.138 114.297 201.181C114.299 200.248 114.304 199.314 114.314 198.381C114.367 192.698 114.329 188.188 110.389 183.722C110.03 183.439 109.671 183.155 109.301 182.863C108.76 182.421 108.76 182.421 108.208 181.97C106.111 180.564 104.235 180.562 101.788 180.552C101.059 180.548 100.33 180.543 99.5782 180.539C98.7772 180.537 97.9762 180.535 97.1509 180.533C96.2994 180.53 95.4479 180.525 94.5964 180.521C91.7989 180.508 89.0014 180.502 86.2039 180.495C85.2399 180.493 84.276 180.49 83.312 180.488C78.7821 180.476 74.2523 180.467 69.7224 180.462C64.4985 180.456 59.2748 180.439 54.0509 180.414C50.0102 180.395 45.9696 180.386 41.9289 180.384C39.517 180.382 37.1054 180.377 34.6936 180.361C32.4226 180.347 30.1519 180.344 27.8809 180.35C26.6557 180.351 25.4305 180.339 24.2054 180.327C19.3618 180.355 15.5495 180.705 11.9409 184.267Z" fill="white"/>
<path d="M170.078 187.939C170.695 187.935 171.313 187.93 171.949 187.926C173.985 187.914 176.021 187.912 178.057 187.91C179.477 187.906 180.897 187.902 182.317 187.898C185.292 187.89 188.267 187.888 191.242 187.889C195.046 187.889 198.85 187.872 202.654 187.85C205.587 187.837 208.519 187.834 211.452 187.835C212.854 187.833 214.256 187.828 215.658 187.818C217.623 187.806 219.588 187.81 221.553 187.817C222.127 187.81 222.701 187.803 223.292 187.796C229.016 187.851 233.337 189.898 237.497 193.775C242.28 198.913 243.166 204.249 243.182 211.044C243.188 212.006 243.188 212.006 243.194 212.987C243.201 214.34 243.204 215.693 243.203 217.046C243.206 219.099 243.229 221.15 243.252 223.202C243.256 224.523 243.259 225.843 243.26 227.164C243.269 227.769 243.278 228.374 243.287 228.997C243.246 235.174 241.602 240.479 237.278 244.988C232.487 249.416 228.266 250.607 221.795 250.6C220.869 250.607 220.869 250.607 219.924 250.613C217.888 250.625 215.852 250.627 213.816 250.629C212.396 250.633 210.976 250.637 209.556 250.641C206.581 250.649 203.606 250.651 200.631 250.65C196.827 250.65 193.023 250.667 189.219 250.688C186.286 250.702 183.353 250.705 180.421 250.704C179.019 250.706 177.616 250.711 176.214 250.721C174.249 250.733 172.285 250.729 170.32 250.722C169.459 250.732 169.459 250.732 168.58 250.743C162.857 250.688 158.535 248.641 154.376 244.764C149.593 239.626 148.706 234.29 148.691 227.495C148.687 226.854 148.683 226.212 148.678 225.552C148.672 224.199 148.669 222.846 148.669 221.493C148.667 219.44 148.644 217.389 148.62 215.337C148.617 214.016 148.614 212.696 148.613 211.375C148.604 210.77 148.595 210.165 148.586 209.541C148.626 203.365 150.271 198.06 154.595 193.551C159.386 189.123 163.607 187.932 170.078 187.939ZM168.213 196.219C170.789 198.29 170.789 198.29 173.467 200.146C174.064 200.532 174.064 200.532 174.673 200.924C175.311 201.332 175.311 201.332 175.962 201.748C176.41 202.036 176.858 202.324 177.319 202.621C183.408 206.53 189.516 210.408 195.625 214.286C199.48 212.233 203.246 210.152 206.839 207.666C211.132 204.744 215.51 201.972 219.925 199.238C220.412 198.935 220.898 198.631 221.399 198.319C221.835 198.049 222.272 197.778 222.721 197.5C223.031 197.283 223.341 197.065 223.66 196.842C223.66 196.636 223.66 196.43 223.66 196.219C205.362 196.219 187.065 196.219 168.213 196.219ZM159.491 201.203C156.589 204.468 156.894 208.23 156.873 212.368C156.869 212.903 156.865 213.439 156.862 213.99C156.856 215.121 156.852 216.252 156.849 217.383C156.843 219.099 156.824 220.815 156.804 222.53C156.8 223.634 156.797 224.737 156.795 225.84C156.787 226.347 156.779 226.853 156.771 227.375C156.787 231.372 157.383 235.426 159.895 238.658C160.25 238.928 160.605 239.199 160.971 239.478C161.322 239.76 161.674 240.042 162.037 240.332C165.358 242.399 168.243 242.505 172.052 242.501C172.621 242.506 173.191 242.51 173.778 242.514C175.659 242.526 177.539 242.528 179.42 242.53C180.73 242.534 182.041 242.538 183.351 242.542C186.098 242.55 188.845 242.552 191.592 242.551C195.105 242.551 198.618 242.568 202.131 242.59C204.838 242.603 207.545 242.606 210.252 242.605C211.547 242.607 212.841 242.612 214.136 242.622C215.951 242.634 217.765 242.63 219.579 242.623C220.11 242.63 220.641 242.637 221.187 242.644C225.159 242.603 228.431 241.654 231.465 238.993C234.896 235.243 235.063 230.809 235.039 226.006C235.04 225.469 235.041 224.932 235.043 224.38C235.044 223.251 235.041 222.122 235.036 220.993C235.029 219.275 235.036 217.557 235.044 215.838C235.043 214.737 235.041 213.635 235.039 212.533C235.042 212.024 235.044 211.516 235.047 210.991C235.022 207.919 234.734 205.331 233.628 202.449C233.011 202.037 232.394 201.626 231.759 201.203C221.375 207.653 221.375 207.653 211.083 214.247C204.66 218.417 204.66 218.417 201.699 220.282C201.079 220.675 200.459 221.069 199.82 221.474C198.075 222.407 196.966 222.843 195.002 223.007C193.326 222.283 193.326 222.283 191.539 221.165C190.882 220.76 190.225 220.355 189.549 219.937C188.881 219.511 188.214 219.085 187.526 218.646C186.907 218.258 186.289 217.87 185.652 217.47C183.764 216.277 181.887 215.069 180.011 213.857C178.654 212.985 177.297 212.113 175.94 211.241C174.938 210.597 174.938 210.597 173.917 209.941C170.983 208.057 168.043 206.184 165.098 204.318C164.599 204 164.101 203.682 163.587 203.355C161.667 201.885 161.667 201.885 159.491 201.203Z" fill="white"/>
<path d="M32.3999 129.558C78.6574 129.558 124.915 129.558 172.574 129.558C172.574 132.231 172.574 134.903 172.574 137.657C126.317 137.657 80.0591 137.657 32.3999 137.657C32.3999 134.984 32.3999 132.312 32.3999 129.558Z" fill="white"/>
<path d="M32.3999 94.6703C78.6574 94.6703 124.915 94.6703 172.574 94.6703C172.574 97.343 172.574 100.016 172.574 102.769C126.317 102.769 80.0591 102.769 32.3999 102.769C32.3999 100.097 32.3999 97.424 32.3999 94.6703Z" fill="white"/>
<path d="M122.72 31.6017C125.513 32.742 126.457 34.6628 127.952 37.199C128.244 37.6727 128.536 38.1465 128.837 38.6346C129.433 39.6028 130.023 40.5742 130.608 41.5487C131.608 43.2146 132.632 44.8649 133.659 46.5143C134.594 48.0249 135.516 49.5435 136.44 51.0606C136.646 44.893 136.851 38.7253 137.063 32.3708C139.941 32.3708 142.82 32.3708 145.785 32.3708C145.842 37.0282 145.887 41.6854 145.914 46.3431C145.927 48.5061 145.945 50.6687 145.973 52.8315C146.005 55.3197 146.018 57.8077 146.029 60.2961C146.041 61.0704 146.054 61.8447 146.068 62.6424C146.068 63.3656 146.068 64.0888 146.068 64.8339C146.074 65.4689 146.079 66.1039 146.085 66.7581C145.702 68.9913 144.887 70.0344 143.293 71.6195C141.206 71.9406 140.704 71.9802 138.932 70.9965C136.941 68.9421 135.453 66.5633 133.948 64.1435C133.513 63.4444 133.513 63.4444 133.069 62.7312C131.259 59.8094 129.476 56.873 127.716 53.921C127.155 52.943 127.155 52.943 126.472 52.3066C126.267 58.6799 126.061 65.0531 125.849 71.6195C123.177 71.6195 120.504 71.6195 117.75 71.6195C117.68 66.7888 117.623 61.9585 117.589 57.1275C117.573 54.8841 117.551 52.6412 117.515 50.3981C117.482 48.2329 117.463 46.0681 117.455 43.9027C117.446 42.6754 117.422 41.4483 117.397 40.2212C117.397 39.473 117.397 38.7249 117.397 37.954C117.39 37.2955 117.383 36.637 117.376 35.9585C117.75 34.2397 117.75 34.2397 119.214 32.7707C120.865 31.7478 120.865 31.7478 122.72 31.6017Z" fill="#E9967A"/>
<path d="M24.301 32.3708C41.5877 32.3708 41.5877 32.3708 44.7747 35.3105C45.0726 35.6767 45.3706 36.0429 45.6775 36.4202C46.1365 36.9695 46.1365 36.9695 46.6047 37.5299C48.0786 39.6424 48.0932 41.632 48.1306 44.1298C48.1467 44.7707 48.1627 45.4115 48.1793 46.0718C47.9486 48.1861 47.2247 49.2851 46.1059 51.0606C46.5176 52.7131 46.5176 52.7131 47.3518 54.1756C48.4953 57.606 48.6876 61.6126 47.4103 65.0318C45.8009 67.7708 43.9567 69.4886 41.1219 70.9965C35.6786 72.3573 29.9118 71.6195 24.301 71.6195C24.301 58.6674 24.301 45.7153 24.301 32.3708ZM32.3999 40.4697C32.3999 42.9368 32.3999 45.4038 32.3999 47.9457C36.0964 48.2391 36.0964 48.2391 39.2529 46.6997C39.9278 44.5711 39.9278 44.5711 39.8759 42.3387C39.1707 41.2116 39.1707 41.2115 38.0069 40.4697C36.5844 40.2445 36.5844 40.2445 35.0866 40.3529C34.2 40.3914 33.3134 40.43 32.3999 40.4697ZM32.3999 56.0446C32.3999 58.5117 32.3999 60.9787 32.3999 63.5205C36.0964 63.814 36.0964 63.814 39.2529 62.2746C39.9278 60.146 39.9278 60.146 39.8759 57.9136C39.1707 56.7864 39.1707 56.7864 38.0069 56.0446C36.5844 55.8194 36.5844 55.8194 35.0866 55.9278C34.2 55.9663 33.3134 56.0049 32.3999 56.0446Z" fill="#E9967A"/>
<path d="M152.638 32.3708C169.786 32.3708 169.786 32.3708 173.09 35.2229C173.382 35.5666 173.675 35.9103 173.976 36.2645C174.274 36.6018 174.573 36.9391 174.881 37.2866C177.574 41.6662 177.143 46.6359 177.13 51.6058C177.14 52.3711 177.15 53.1364 177.16 53.925C177.163 59.1116 176.838 63.8348 173.664 68.1151C167.627 73.8783 161.11 71.6195 152.638 71.6195C152.638 58.6674 152.638 45.7153 152.638 32.3708ZM161.36 40.4697C161.36 48.0765 161.36 55.6833 161.36 63.5205C166.594 63.53 166.594 63.53 168.213 61.6516C168.462 58.9104 168.418 56.1601 168.41 53.4089C168.408 52.0414 168.422 50.6747 168.438 49.3072C168.44 48.4389 168.44 47.5705 168.439 46.7021C168.441 45.9107 168.443 45.1193 168.445 44.304C168.34 42.4044 168.34 42.4044 167.576 41.1315C165.845 40.0766 165.845 40.0766 161.36 40.4697Z" fill="#E9967A"/>
<path d="M55.4508 32.3708C72.7375 32.3708 72.7375 32.3708 75.9245 35.3105C76.2224 35.6767 76.5204 36.0429 76.8273 36.4202C77.2863 36.9695 77.2863 36.9695 77.7545 37.5299C79.8516 40.5355 79.5137 44.4568 79.1246 47.9457C77.7861 51.5285 75.586 53.5483 72.2717 55.4216C71.6549 55.8328 71.0381 56.244 70.4027 56.6676C73.6921 59.957 76.9815 63.2464 80.3706 66.6355C76.6326 70.9965 76.6326 70.9965 75.3867 72.2425C73.2487 72.0437 72.2075 71.1555 70.7434 69.6507C70.3579 69.2592 69.9724 68.8677 69.5753 68.4644C69.1802 68.0536 68.785 67.6428 68.378 67.2196C67.7708 66.5998 67.7708 66.5998 67.1514 65.9675C66.1543 64.9483 65.1629 63.9235 64.1727 62.8976C63.9671 65.7758 63.7616 68.654 63.5497 71.6195C60.8771 71.6195 58.2044 71.6195 55.4508 71.6195C55.4508 58.6674 55.4508 45.7153 55.4508 32.3708ZM63.5497 40.4697C63.5497 42.9368 63.5497 45.4038 63.5497 47.9457C67.2462 48.2391 67.2462 48.2391 70.4027 46.6997C71.0776 44.5711 71.0776 44.5711 71.0257 42.3387C70.3205 41.2116 70.3205 41.2115 69.1567 40.4697C67.7342 40.2445 67.7342 40.2445 66.2364 40.3529C65.3498 40.3914 64.4632 40.43 63.5497 40.4697Z" fill="#E9967A"/>
<path d="M104.278 33.0327C106.967 35.0175 109.207 37.2667 110.274 40.4697C110.329 41.4924 110.348 42.5172 110.345 43.5413C110.345 44.1648 110.345 44.7883 110.345 45.4307C110.342 46.1025 110.339 46.7742 110.335 47.4662C110.334 48.155 110.334 48.8438 110.333 49.5534C110.329 51.7561 110.321 53.9587 110.313 56.1614C110.31 57.6536 110.307 59.1458 110.305 60.638C110.298 64.2985 110.287 67.959 110.274 71.6195C107.602 71.6195 104.929 71.6195 102.175 71.6195C102.175 67.7133 102.175 63.8071 102.175 59.7826C99.7084 59.7826 97.2414 59.7826 94.6995 59.7826C94.6995 63.6888 94.6995 67.5949 94.6995 71.6195C92.0269 71.6195 89.3542 71.6195 86.6006 71.6195C86.5543 67.4406 86.5204 63.2619 86.4979 59.0828C86.4885 57.6621 86.4758 56.2415 86.4596 54.821C86.4368 52.7749 86.4263 50.7292 86.4181 48.683C86.4084 48.0514 86.3988 47.4198 86.3888 46.7691C86.3878 42.2379 86.9026 39.1691 89.9492 35.6415C94.3368 31.8807 98.7408 31.2895 104.278 33.0327ZM95.3225 42.3387C94.4241 44.1355 94.641 45.7136 94.6606 47.712C94.6662 48.4525 94.6718 49.1929 94.6776 49.9558C94.6849 50.526 94.6921 51.0962 94.6995 51.6836C97.1666 51.6836 99.6337 51.6836 102.175 51.6836C102.226 50.1647 102.263 48.6474 102.292 47.128C102.308 46.6979 102.324 46.2679 102.34 45.8248C102.388 43.3217 102.388 43.3217 101.331 41.1195C98.9335 39.5989 96.9771 40.1877 95.3225 42.3387Z" fill="#E9967A"/>
<path d="M31.0371 195.287C31.4425 195.286 31.848 195.285 32.2656 195.284C33.1202 195.285 33.9748 195.292 34.8293 195.305C36.134 195.323 37.4371 195.318 38.7419 195.31C39.5741 195.314 40.4064 195.319 41.2387 195.326C41.9928 195.332 42.7469 195.338 43.5238 195.344C45.6834 195.621 46.4221 195.983 47.9748 197.465C48.2913 198.741 48.2913 198.741 48.2973 200.221C48.3051 200.776 48.313 201.331 48.3211 201.903C48.3161 202.501 48.311 203.098 48.3058 203.714C48.3082 204.329 48.3106 204.944 48.313 205.578C48.3147 206.879 48.3101 208.18 48.2997 209.481C48.2864 211.475 48.2996 213.467 48.3155 215.461C48.3139 216.724 48.3107 217.987 48.3058 219.25C48.3109 219.848 48.3159 220.445 48.3211 221.061C48.3132 221.616 48.3054 222.171 48.2973 222.743C48.2943 223.476 48.2943 223.476 48.2913 224.223C47.9748 225.499 47.9748 225.499 46.8311 226.59C44.9335 227.685 43.4199 227.621 41.2387 227.639C40.8333 227.642 40.4279 227.645 40.0102 227.648C39.1557 227.652 38.3011 227.652 37.4466 227.646C36.1418 227.641 34.8386 227.659 33.534 227.679C32.7017 227.68 31.8694 227.679 31.0371 227.678C29.906 227.679 29.906 227.679 28.752 227.681C26.793 227.368 26.793 227.368 25.3024 226.479C23.7648 224.018 23.9446 221.708 23.97 218.861C23.9677 218.275 23.9653 217.69 23.9628 217.087C23.9611 215.852 23.9657 214.616 23.9761 213.38C23.9895 211.489 23.9762 209.599 23.9603 207.708C23.962 206.506 23.9651 205.305 23.97 204.103C23.965 203.538 23.9599 202.973 23.9548 202.39C23.9901 200.013 24.0254 198.529 25.3024 196.485C27.3016 195.292 28.7141 195.283 31.0371 195.287ZM32.3999 203.695C32.3999 208.834 32.3999 213.974 32.3999 219.269C34.867 219.269 37.3341 219.269 39.8759 219.269C39.8759 214.13 39.8759 208.99 39.8759 203.695C37.4088 203.695 34.9418 203.695 32.3999 203.695Z" fill="#E9967A"/>
<path d="M125.849 160.708C141.268 160.708 156.688 160.708 172.574 160.708C172.574 163.381 172.574 166.053 172.574 168.807C157.155 168.807 141.736 168.807 125.849 168.807C125.849 166.134 125.849 163.462 125.849 160.708Z" fill="white"/>
<path d="M59.1888 214.909C72.3464 214.909 85.5041 214.909 99.0605 214.909C99.0605 217.787 99.0605 220.665 99.0605 223.63C85.9028 223.63 72.7452 223.63 59.1888 223.63C59.1888 220.752 59.1888 217.874 59.1888 214.909Z" fill="white"/>
<path d="M63.5497 195.596C73.8292 195.596 84.1086 195.596 94.6995 195.596C94.6995 198.268 94.6995 200.941 94.6995 203.695C84.4201 203.695 74.1407 203.695 63.5497 203.695C63.5497 201.022 63.5497 198.349 63.5497 195.596Z" fill="white"/>
</svg>
