<svg width="251" height="250" viewBox="0 0 251 250" fill="none" xmlns="http://www.w3.org/2000/svg">
<path d="M12.3756 0.182953C14.8077 1.09847 17.0343 2.20948 19.3046 3.47198C20.3785 4.06823 20.3785 4.06823 21.4742 4.67654C22.2385 5.10381 23.0027 5.53124 23.7669 5.9588C24.5516 6.39626 25.3363 6.83371 26.121 7.27116C31.6823 10.3775 37.1956 13.5585 42.6656 16.823C45.6055 18.571 48.5673 20.2818 51.523 22.0028C50.8877 27.0856 50.2523 32.1683 49.5977 37.4051C50.4449 37.8287 51.292 38.2522 52.1648 38.6886C53.3399 39.6976 53.3399 39.6976 54.5213 40.8746C55.1603 41.5112 55.1603 41.5112 55.8123 42.1607C56.2499 42.6032 56.6876 43.0458 57.1384 43.5018C57.586 43.9444 58.0335 44.387 58.4947 44.843C58.9174 45.2674 59.3401 45.6918 59.7757 46.129C60.1626 46.5175 60.5496 46.9059 60.9483 47.306C61.7912 48.315 61.7912 48.315 61.7912 49.5986C62.7442 49.9162 62.7442 49.9162 63.7165 50.2403C63.7165 50.6639 63.7165 51.0875 63.7165 51.5239C64.0789 51.6777 64.4413 51.8315 64.8147 51.99C66.5963 52.9814 67.8069 54.1731 69.2479 55.6174C69.84 56.2077 70.4321 56.7981 71.0422 57.4063C71.6936 58.0623 72.345 58.7184 72.9963 59.3745C73.6856 60.0641 74.3752 60.7535 75.065 61.4425C76.9359 63.3131 78.8029 65.1876 80.6692 67.0629C82.6206 69.0223 84.5756 70.9781 86.5302 72.9342C90.2307 76.6387 93.9278 80.3463 97.6238 84.0552C101.832 88.2776 106.044 92.4964 110.256 96.7149C118.92 105.392 127.579 114.074 136.236 122.759C138.222 121.816 139.479 120.896 140.969 119.27C143.662 116.524 145.776 115.21 149.672 114.777C154.275 114.987 157.229 117.869 160.314 120.974C162.174 123.212 162.726 124.951 162.708 127.853C162.713 128.656 162.713 128.656 162.718 129.475C162.53 131.275 162.005 132.668 161.264 134.311C163.58 136.704 165.933 139.052 168.324 141.37C168.766 141.808 169.209 142.246 169.665 142.697C172.806 145.453 175.185 145.398 179.266 145.208C189.191 145.274 198.628 158.69 205.074 165.088C205.63 165.64 206.186 166.191 206.758 166.759C209.695 169.675 212.628 172.592 215.56 175.512C217.975 177.915 220.395 180.313 222.82 182.706C225.765 185.613 228.701 188.529 231.63 191.452C232.742 192.558 233.856 193.66 234.974 194.759C248.629 208.195 248.629 208.195 249.827 218.382C249.88 218.819 249.933 219.255 249.988 219.705C250.423 227.106 247.466 234.01 242.768 239.56C242.4 240.014 242.032 240.468 241.652 240.936C237.035 246.108 230.161 249.548 223.247 249.958C214.024 250.073 206.982 247.932 200.105 241.513C199.118 240.546 198.139 239.571 197.166 238.592C196.624 238.057 196.083 237.522 195.525 236.971C193.753 235.217 191.99 233.453 190.229 231.688C189.306 230.768 188.382 229.849 187.458 228.93C184.56 226.046 181.668 223.155 178.781 220.26C175.814 217.285 172.835 214.322 169.85 211.364C167.275 208.812 164.708 206.253 162.147 203.687C160.622 202.16 159.095 200.637 157.561 199.12C155.851 197.426 154.155 195.721 152.46 194.012C151.958 193.519 151.455 193.026 150.937 192.518C147.316 188.827 144.62 184.892 144.548 179.57C144.611 178.903 144.674 178.237 144.739 177.55C144.593 172.659 142.119 170.348 138.762 167.121C137.093 165.562 135.402 164.036 133.668 162.549C133.086 162.86 132.504 163.172 131.904 163.494C129.314 164.711 127.483 164.965 124.684 164.474C120.641 162.452 116.422 158.629 114.376 154.527C113.433 151.008 113.724 148.501 115.378 145.261C117.646 142.483 120.176 140.004 122.759 137.52C121.736 135.036 120.053 133.31 118.204 131.419C117.867 131.07 117.531 130.721 117.184 130.362C116.055 129.193 114.921 128.029 113.787 126.865C112.976 126.028 112.165 125.191 111.355 124.354C103.943 116.71 96.4774 109.118 88.999 101.54C83.4763 95.9421 77.9811 90.3198 72.5188 84.6631C68.6705 80.6825 64.7916 76.7334 60.8896 72.8056C58.5626 70.4614 56.2512 68.1057 53.9723 65.7146C44.6829 54.8952 44.6829 54.8952 32.2436 49.4028C28.6506 49.5068 25.3438 50.2097 22.002 51.5239C17.3717 43.6891 12.7921 35.8262 8.26431 27.9316C6.86748 25.4971 5.4549 23.0745 4.01264 20.6667C3.73349 20.1931 3.45434 19.7195 3.16673 19.2316C2.6638 18.3789 2.1532 17.5307 1.63346 16.6881C0.981824 15.5702 0.981824 15.5702 0.182129 13.6599C0.954729 11.4599 2.33653 10.0722 3.97755 8.45566C4.46563 7.9717 4.95372 7.48775 5.4566 6.98913C5.9662 6.49029 6.4758 5.99144 7.00084 5.47748C7.5154 4.96871 8.02997 4.45994 8.56012 3.93575C9.8291 2.68188 11.101 1.4311 12.3756 0.182953ZM165.195 165.236C164.265 166.734 163.96 167.848 163.831 169.608C164.663 171.775 165.821 172.927 167.602 174.381C169.611 176.076 171.185 177.81 172.816 179.876C173.451 180.406 174.087 180.935 174.741 181.481C176.666 183.085 176.666 183.085 177.87 184.609C179.041 186.056 180.127 187.106 181.535 188.299C184.48 190.849 187.237 193.56 189.983 196.321C190.697 197.031 190.697 197.031 191.424 197.755C193.714 200.049 195.844 202.351 197.845 204.905C198.778 205.679 198.778 205.679 199.73 206.469C201.695 208.114 201.695 208.114 203.259 209.999C204.534 211.522 205.644 212.644 207.15 213.889C209.267 215.644 210.877 217.528 212.605 219.665C214.829 222.12 214.829 222.12 217.739 223.516C218.501 224.839 218.501 224.839 219.023 226.083C219.446 226.083 219.87 226.083 220.306 226.083C220.518 226.718 220.73 227.354 220.948 228.008C223.325 229.593 224.556 229.593 227.366 229.292C228.768 228.367 228.768 228.367 229.291 226.725C229.375 223.45 228.603 221.925 226.409 219.499C225.398 218.463 224.376 217.438 223.346 216.42C222.789 215.856 222.233 215.292 221.66 214.711C220.137 213.171 218.605 211.64 217.069 210.114C215.786 208.837 214.509 207.554 213.233 206.271C210.22 203.244 207.199 200.227 204.17 197.216C201.049 194.112 197.942 190.993 194.843 187.867C192.179 185.18 189.506 182.501 186.826 179.83C185.227 178.236 183.631 176.639 182.043 175.033C180.272 173.244 178.483 171.474 176.692 169.705C176.17 169.172 175.647 168.639 175.108 168.089C172.206 165.208 172.206 165.208 168.357 164.099C166.446 164.341 166.446 164.341 165.195 165.236Z" fill="#E9967A"/>
<path d="M207.471 2.10823C207.471 2.53179 207.471 2.95535 207.471 3.39175C207.048 3.39175 206.624 3.39175 206.188 3.39175C206.188 3.81531 206.188 4.23888 206.188 4.67527C205.764 4.67527 205.341 4.67527 204.904 4.67527C204.904 5.09884 204.904 5.5224 204.904 5.9588C204.481 5.9588 204.057 5.9588 203.621 5.9588C203.621 6.38236 203.621 6.80592 203.621 7.24232C203.197 7.24232 202.774 7.24232 202.337 7.24232C202.125 7.87766 201.914 8.51301 201.695 9.1676C201.272 9.1676 200.848 9.1676 200.412 9.1676C200.154 9.78309 200.154 9.78309 199.89 10.411C199.128 11.7346 199.128 11.7346 197.203 12.3764C196.885 13.3294 196.885 13.3294 196.561 14.3017C196.138 14.3017 195.714 14.3017 195.278 14.3017C194.96 15.2547 194.96 15.2547 194.636 16.227C194.212 16.227 193.789 16.227 193.353 16.227C193.035 17.18 193.035 17.18 192.711 18.1523C192.287 18.1523 191.864 18.1523 191.427 18.1523C191.11 19.1053 191.11 19.1053 190.785 20.0775C190.362 20.0775 189.938 20.0775 189.502 20.0775C189.502 20.5011 189.502 20.9247 189.502 21.3611C188.582 22.2435 188.582 22.2435 187.296 23.2864C181.12 28.5259 181.12 28.5259 177.308 35.4798C177.163 38.3466 177.313 39.7891 179.08 42.0751C179.554 42.584 180.027 43.0928 180.515 43.6171C181.3 44.4621 181.3 44.4621 182.1 45.3242C184.591 47.9392 187.105 50.5274 189.652 53.0881C190.192 53.6315 190.732 54.175 191.288 54.7348C192.417 55.8703 193.548 57.0049 194.679 58.1386C196.41 59.8758 198.134 61.6197 199.858 63.3638C200.961 64.4715 202.065 65.5787 203.169 66.6855C203.682 67.2062 204.195 67.7269 204.723 68.2634C205.447 68.9838 205.447 68.9838 206.185 69.7188C206.605 70.1412 207.025 70.5636 207.458 70.9989C209.671 72.8102 211.883 73.5973 214.731 73.3838C218.446 72.8288 220.322 70.8213 222.874 68.2096C223.583 67.5132 224.293 66.8181 225.004 66.1239C229.044 62.2813 229.044 62.2813 232.5 57.9415C232.924 57.9415 233.347 57.9415 233.783 57.9415C233.938 57.5781 234.092 57.2147 234.251 56.8403C235.235 55.0725 236.419 53.8775 237.86 52.4564C238.406 51.9145 238.952 51.3727 239.514 50.8144C240.085 50.2543 240.656 49.6943 241.244 49.1172C241.82 48.5472 242.396 47.9773 242.989 47.39C244.41 45.9841 245.834 44.5812 247.26 43.1809C250.901 48.642 249.822 57.8935 248.747 64.1034C248.187 66.8017 247.446 69.4328 246.619 72.0602C246.488 72.4823 246.357 72.9044 246.223 73.3393C243.128 83.0384 238.061 93.3228 231.216 100.939C230.793 100.939 230.369 100.939 229.933 100.939C229.674 101.509 229.674 101.509 229.409 102.09C226.326 107.839 219.558 111.646 213.728 114.055C202.629 117.379 190.716 115.268 180.678 109.964C180.205 109.68 179.731 109.397 179.244 109.104C177.963 108.502 177.963 108.502 176.687 109.014C175.05 110.157 173.726 111.46 172.335 112.892C171.822 113.417 171.309 113.941 170.781 114.482C170.393 114.884 170.006 115.286 169.607 115.7C167.634 114.835 166.479 113.91 165.075 112.291C160.987 108.16 156.485 106.534 150.716 106.274C146.411 106.402 143.378 107.55 139.695 109.724C138.161 110.566 138.161 110.566 136.236 110.566C135.268 109.668 135.268 109.668 134.23 108.4C132.451 106.274 130.64 104.194 128.775 102.143C126.713 99.8584 124.704 97.5481 122.759 95.1636C123.579 93.3568 124.419 92.0692 125.848 90.6963C126.209 90.3451 126.571 89.9938 126.944 89.6319C127.332 89.2601 127.721 88.8884 128.121 88.5053C128.939 87.7068 129.757 86.9079 130.574 86.1088C131.864 84.8548 133.156 83.6035 134.453 82.3572C135.705 81.1514 136.948 79.9358 138.189 78.7185C138.581 78.3467 138.973 77.975 139.378 77.5919C140.587 76.4351 140.587 76.4351 142.012 74.6272C141.734 72.371 140.631 70.4932 139.618 68.4776C134.746 58.7181 131.496 47.8539 134.426 36.9188C139.596 22.7881 150.949 14.784 164.067 8.43215C177.007 2.443 193.421 -3.18218 207.471 2.10823Z" fill="white"/>
<path d="M94.6258 120.235C96.4775 121.176 97.8532 122.582 99.3068 124.035C99.795 124.516 99.795 124.516 100.293 125.007C100.978 125.685 101.66 126.365 102.34 127.048C103.384 128.093 104.441 129.123 105.5 130.153C106.164 130.814 106.827 131.475 107.489 132.138C107.807 132.445 108.125 132.753 108.453 133.07C109.324 133.958 109.324 133.958 110.565 135.595C110.474 137.013 110.474 137.013 109.923 138.162C109.725 138.593 109.526 139.024 109.322 139.468C109.097 139.897 108.872 140.326 108.64 140.769C106.227 145.391 105.949 150.264 107.131 155.359C108.395 158.839 110.191 161.311 112.819 163.905C114.037 165.449 114.404 166.35 114.416 168.324C113.255 169.884 113.255 169.884 111.568 171.453C110.971 172.016 110.375 172.578 109.76 173.158C108.355 174.421 106.943 175.673 105.511 176.908C104.911 177.443 104.911 177.443 104.298 177.988C103.504 178.679 102.702 179.361 101.873 180.009C99.3261 182.01 96.7331 184.051 95.1629 186.935C94.8937 190.104 95.4807 192.806 96.1851 195.882C98.4238 207.207 94.6365 219.064 88.7453 228.65C87.1706 230.935 85.483 233.021 83.6112 235.068C83.0801 235.676 83.0801 235.676 82.5382 236.296C74.808 244.652 62.5849 249.488 51.3451 249.981C37.6057 250.304 24.591 246.518 14.2784 237.028C3.72888 225.996 -0.218178 213.096 0.00924376 198.121C0.466769 185.225 6.64369 173.848 15.775 164.965C21.9601 159.61 30.0278 155.765 38.0461 154.206C38.6219 154.087 39.1977 153.969 39.7909 153.847C42.5102 153.481 45.173 153.471 47.9132 153.484C48.4344 153.481 48.9556 153.479 49.4925 153.476C50.0088 153.477 50.525 153.478 51.0568 153.479C51.5163 153.479 51.9757 153.48 52.4491 153.481C54.0902 153.564 54.0902 153.564 56.5307 154.081C58.765 154.357 59.1044 154.283 61.1157 152.987C61.7008 152.38 62.2859 151.772 62.8887 151.146C63.2171 150.813 63.5454 150.481 63.8838 150.138C64.9617 149.04 66.018 147.923 67.0758 146.805C67.8234 146.039 68.5725 145.274 69.3231 144.51C71.2928 142.5 73.2458 140.475 75.1944 138.445C78.319 135.192 81.4615 131.957 84.6164 128.734C85.7161 127.604 86.8046 126.463 87.8926 125.322C88.5631 124.632 89.234 123.942 89.9053 123.252C90.7799 122.341 90.7799 122.341 91.6722 121.411C93.2376 120.192 93.2376 120.192 94.6258 120.235ZM43.3963 179.565C42.3704 179.826 41.3427 180.08 40.3134 180.327C38.8239 180.684 37.3409 181.062 35.8576 181.445C35.1687 181.605 35.1687 181.605 34.4658 181.768C32.1818 182.383 31.1453 182.851 29.803 184.833C28.5905 188.271 27.6209 191.754 26.6875 195.275C26.3338 196.603 25.9683 197.927 25.602 199.251C25.374 200.1 25.1466 200.949 24.9201 201.799C24.7139 202.564 24.5077 203.329 24.2953 204.118C23.9119 206.276 23.7961 207.359 24.5691 209.397C25.6853 210.83 26.7803 212.105 28.0337 213.406C28.5627 213.959 28.5627 213.959 29.1025 214.523C29.8508 215.299 30.603 216.07 31.3587 216.839C32.5049 218.015 33.6188 219.216 34.7345 220.421C38.3153 224.369 38.3153 224.369 43.0563 226.351C44.9032 226.012 46.5464 225.429 48.3143 224.799C49.7912 224.58 51.2716 224.383 52.754 224.205C57.5657 223.376 62.237 222.531 66.2836 219.665C69.5021 214.823 70.3985 208.893 71.0871 203.21C71.4177 201.054 71.4177 201.054 72.0867 199.357C72.7953 197.531 73.0415 196.579 72.7012 194.637C70.8261 191.599 68.1246 189.171 65.5359 186.749C64.2772 185.571 63.0482 184.367 61.8214 183.155C61.0358 182.393 60.2487 181.633 59.4599 180.874C59.0901 180.515 58.7203 180.156 58.3393 179.786C53.8827 175.643 48.7213 178.197 43.3963 179.565Z" fill="white"/>
</svg>
