<svg width="269" height="269" viewBox="0 0 269 269" fill="none" xmlns="http://www.w3.org/2000/svg">
<path d="M72.7058 164.163C78.7481 168.38 82.8204 174.287 84.5883 181.464C85.8776 189.45 84.365 196.961 79.9318 203.712C77.9162 206.41 75.8496 208.488 73.1704 210.543C73.7829 210.806 74.3953 211.07 75.0263 211.341C82.9241 214.828 89.747 219.174 96.1705 225C96.5457 224.634 96.921 224.268 97.3076 223.891C103.586 217.982 110.576 213.851 118.513 210.543C118.085 210.16 117.656 209.777 117.214 209.383C111.764 204.27 107.647 198.506 107.185 190.867C106.954 181.332 108.657 174.468 115.228 167.171C121.966 161.148 129.201 159.341 138.025 159.696C145.399 160.209 151.792 163.889 156.697 169.376C162.199 176.755 163.634 184.445 162.542 193.457C161.14 199.832 157.963 204.089 153.342 208.571C152.957 208.956 152.573 209.341 152.177 209.737C151.911 210.003 151.645 210.269 151.371 210.543C152.36 211.009 152.36 211.009 153.37 211.485C161.071 215.182 167.838 219.466 174.371 225C174.666 224.674 174.962 224.348 175.267 224.012C180.234 218.765 185.898 215.392 192.501 212.543C193.934 211.923 195.325 211.255 196.714 210.543C196.38 210.287 196.046 210.031 195.702 209.768C191.998 206.758 189.672 203.613 187.514 199.371C187.297 198.954 187.08 198.536 186.856 198.106C183.594 190.78 184.761 182.882 187.367 175.601C190.768 167.765 197.054 163.771 204.599 160.6C211.077 158.441 219.615 159.372 225.715 162.127C232.589 166.145 237.371 172.23 240.085 179.657C242.01 187.532 240.893 195.137 236.964 202.123C234.92 205.362 232.411 208.794 228.914 210.543C229.855 210.961 229.855 210.961 230.816 211.387C245.65 218.07 256.77 227.359 263.085 242.743C265.026 248.559 266.459 254.169 266.494 260.322C266.503 261.064 266.513 261.806 266.522 262.57C266.371 264.429 266.371 264.429 265.057 265.743C263.231 265.909 263.231 265.909 260.847 265.91C260.188 265.913 260.188 265.913 259.516 265.917C258.03 265.922 256.544 265.918 255.057 265.914C253.987 265.916 252.917 265.919 251.846 265.922C248.893 265.929 245.941 265.927 242.988 265.924C239.808 265.923 236.628 265.929 233.448 265.934C227.213 265.942 220.979 265.943 214.745 265.942C209.68 265.941 204.614 265.942 199.549 265.944C198.47 265.945 198.47 265.945 197.369 265.946C195.907 265.946 194.445 265.947 192.983 265.948C179.261 265.955 165.538 265.954 151.816 265.95C139.25 265.946 126.683 265.954 114.117 265.966C101.228 265.979 88.339 265.984 75.45 265.982C68.2081 265.981 60.9663 265.982 53.7245 265.992C47.5595 265.999 41.3947 266 35.2298 265.992C32.0819 265.989 28.9342 265.988 25.7863 265.996C22.9079 266.003 20.0297 266.001 17.1514 265.992C16.1069 265.99 15.0623 265.991 14.0178 265.997C12.6041 266.003 11.1909 265.998 9.77724 265.989C8.99018 265.989 8.20312 265.989 7.39222 265.989C5.4845 265.743 5.48449 265.743 4.24829 264.846C2.03953 261.618 3.31085 256.206 3.92121 252.551C5.73964 243.205 9.7289 234.813 15.9988 227.629C16.3241 227.203 16.6494 226.776 16.9845 226.337C22.4829 219.396 30.3374 215.232 38.3417 211.857C39.222 211.427 40.1 210.993 40.9703 210.543C40.6365 210.279 40.3028 210.016 39.9589 209.745C34.2717 205.048 30.616 199.436 29.1417 192.143C28.528 182.772 30.3312 175.74 36.2034 168.357C45.6487 158.028 61.1688 157.009 72.7058 164.163ZM40.3953 173.578C36.0215 179.048 35.019 184.588 35.7131 191.486C36.6396 196.804 39.5988 201.128 43.7606 204.516C49.6016 208.574 54.9616 209.159 61.9989 208.571C68.2927 207.048 72.9956 202.263 76.3329 196.912C78.8786 192.072 79.0499 186.882 77.6883 181.67C75.5624 175.282 71.9097 170.983 65.9418 167.828C56.4258 164.244 47.4929 166.087 40.3953 173.578ZM119.381 172.842C114.976 177.565 113.459 182.377 113.515 188.795C113.812 194.811 116.341 199.48 120.649 203.643C126.461 208.284 132.178 209.385 139.542 208.571C145.4 207.264 149.799 203.774 153.273 198.961C156.398 193.574 156.869 188.318 155.971 182.286C154.019 176.252 150.482 171.336 144.881 168.28C135.654 164.098 126.569 165.871 119.381 172.842ZM196.714 173.086C192.776 178.065 190.718 183.769 191.456 190.171C192.744 196.944 196.345 202.006 201.971 205.943C206.856 209.147 212.055 209.161 217.742 208.571C223.624 207.235 228.146 203.699 231.46 198.714C234.529 193.29 235.131 187.216 233.765 181.138C231.692 175.258 227.878 171.101 222.424 168.157C213.112 163.968 204.082 166.05 196.714 173.086ZM19.9417 232.886C14.2405 240.505 10.0845 249.533 10.0845 259.172C33.722 259.172 57.3595 259.172 81.7133 259.172C82.3639 255.485 83.0144 251.798 83.6847 248C85.4201 242.312 87.2766 237.858 90.8081 233.086C91.7523 231.633 91.7523 231.633 91.1905 230.211C84.8848 221.653 73.8063 217.467 63.7496 215.5C46.8469 212.994 30.9314 220.195 19.9417 232.886ZM99.125 231.489C92.5046 239.544 88.2847 248.62 88.2847 259.172C119.079 259.172 149.872 259.172 181.599 259.172C181.599 247.439 176.178 236.84 168.069 228.526C158.948 219.69 146.237 214.827 133.602 215.002C120.305 215.967 107.974 221.329 99.125 231.489ZM178.314 230.257C179.199 232.611 180.262 234.733 181.517 236.911C185.533 244.259 186.659 250.607 188.171 259.172C211.808 259.172 235.446 259.172 259.799 259.172C258.424 245.413 252.789 234.339 242.187 225.424C221.698 209.977 196.538 212.933 178.314 230.257Z" fill="white"/>
<mask id="mask0_64_64" style="mask-type:luminance" maskUnits="userSpaceOnUse" x="0" y="156" width="269" height="113">
<path d="M269 156.408H0V268.408H269V156.408Z" fill="white"/>
<path d="M72.7058 164.163C78.7481 168.38 82.8204 174.287 84.5883 181.464C85.8776 189.45 84.365 196.961 79.9318 203.712C77.9162 206.41 75.8496 208.488 73.1704 210.543C73.7829 210.806 74.3953 211.07 75.0263 211.341C82.9241 214.828 89.747 219.174 96.1705 225C96.5457 224.634 96.921 224.268 97.3076 223.891C103.586 217.982 110.576 213.851 118.513 210.543C118.085 210.16 117.656 209.777 117.214 209.383C111.764 204.27 107.647 198.506 107.185 190.867C106.954 181.332 108.657 174.468 115.228 167.171C121.966 161.148 129.201 159.341 138.025 159.696C145.399 160.209 151.792 163.889 156.697 169.376C162.199 176.755 163.634 184.445 162.542 193.457C161.14 199.832 157.963 204.089 153.342 208.571C152.957 208.956 152.573 209.341 152.177 209.737C151.911 210.003 151.645 210.269 151.371 210.543C152.36 211.009 152.36 211.009 153.37 211.485C161.071 215.182 167.838 219.466 174.371 225C174.666 224.674 174.962 224.348 175.267 224.012C180.234 218.765 185.898 215.392 192.501 212.543C193.934 211.923 195.325 211.255 196.714 210.543C196.38 210.287 196.046 210.031 195.702 209.768C191.998 206.758 189.672 203.613 187.514 199.371C187.297 198.954 187.08 198.536 186.856 198.106C183.594 190.78 184.761 182.882 187.367 175.601C190.768 167.765 197.054 163.771 204.599 160.6C211.077 158.441 219.615 159.372 225.715 162.127C232.589 166.145 237.371 172.23 240.085 179.657C242.01 187.532 240.893 195.137 236.964 202.123C234.92 205.362 232.411 208.794 228.914 210.543C229.855 210.961 229.855 210.961 230.816 211.387C245.65 218.07 256.77 227.359 263.085 242.743C265.026 248.559 266.459 254.169 266.494 260.322C266.503 261.064 266.513 261.806 266.522 262.57C266.371 264.429 266.371 264.429 265.057 265.743C263.231 265.909 263.231 265.909 260.847 265.91C260.188 265.913 260.188 265.913 259.516 265.917C258.03 265.922 256.544 265.918 255.057 265.914C253.987 265.916 252.917 265.919 251.846 265.922C248.893 265.929 245.941 265.927 242.988 265.924C239.808 265.923 236.628 265.929 233.448 265.934C227.213 265.942 220.979 265.943 214.745 265.942C209.68 265.941 204.614 265.942 199.549 265.944C198.47 265.945 198.47 265.945 197.369 265.946C195.907 265.946 194.445 265.947 192.983 265.948C179.261 265.955 165.538 265.954 151.816 265.95C139.25 265.946 126.683 265.954 114.117 265.966C101.228 265.979 88.339 265.984 75.45 265.982C68.2081 265.981 60.9663 265.982 53.7245 265.992C47.5595 265.999 41.3947 266 35.2298 265.992C32.0819 265.989 28.9342 265.988 25.7863 265.996C22.9079 266.003 20.0297 266.001 17.1514 265.992C16.1069 265.99 15.0623 265.991 14.0178 265.997C12.6041 266.003 11.1909 265.998 9.77724 265.989C8.99018 265.989 8.20312 265.989 7.39222 265.989C5.4845 265.743 5.48449 265.743 4.24829 264.846C2.03953 261.618 3.31085 256.206 3.92121 252.551C5.73964 243.205 9.7289 234.813 15.9988 227.629C16.3241 227.203 16.6494 226.776 16.9845 226.337C22.4829 219.396 30.3374 215.232 38.3417 211.857C39.222 211.427 40.1 210.993 40.9703 210.543C40.6365 210.279 40.3028 210.016 39.9589 209.745C34.2717 205.048 30.616 199.436 29.1417 192.143C28.528 182.772 30.3312 175.74 36.2034 168.357C45.6487 158.028 61.1688 157.009 72.7058 164.163ZM40.3953 173.578C36.0215 179.048 35.019 184.588 35.7131 191.486C36.6396 196.804 39.5988 201.128 43.7606 204.516C49.6016 208.574 54.9616 209.159 61.9989 208.571C68.2927 207.048 72.9956 202.263 76.3329 196.912C78.8786 192.072 79.0499 186.882 77.6883 181.67C75.5624 175.282 71.9097 170.983 65.9418 167.828C56.4258 164.244 47.4929 166.087 40.3953 173.578ZM119.381 172.842C114.976 177.565 113.459 182.377 113.515 188.795C113.812 194.811 116.341 199.48 120.649 203.643C126.461 208.284 132.178 209.385 139.542 208.571C145.4 207.264 149.799 203.774 153.273 198.961C156.398 193.574 156.869 188.318 155.971 182.286C154.019 176.252 150.482 171.336 144.881 168.28C135.654 164.098 126.569 165.871 119.381 172.842ZM196.714 173.086C192.776 178.065 190.718 183.769 191.456 190.171C192.744 196.944 196.345 202.006 201.971 205.943C206.856 209.147 212.055 209.161 217.742 208.571C223.624 207.235 228.146 203.699 231.46 198.714C234.529 193.29 235.131 187.216 233.765 181.138C231.692 175.258 227.878 171.101 222.424 168.157C213.112 163.968 204.082 166.05 196.714 173.086ZM19.9417 232.886C14.2405 240.505 10.0845 249.533 10.0845 259.172C33.722 259.172 57.3595 259.172 81.7133 259.172C82.3639 255.485 83.0144 251.798 83.6847 248C85.4201 242.312 87.2766 237.858 90.8081 233.086C91.7523 231.633 91.7523 231.633 91.1905 230.211C84.8848 221.653 73.8063 217.467 63.7496 215.5C46.8469 212.994 30.9314 220.195 19.9417 232.886ZM99.125 231.489C92.5046 239.544 88.2847 248.62 88.2847 259.172C119.079 259.172 149.872 259.172 181.599 259.172C181.599 247.439 176.178 236.84 168.069 228.526C158.948 219.69 146.237 214.827 133.602 215.002C120.305 215.967 107.974 221.329 99.125 231.489ZM178.314 230.257C179.199 232.611 180.262 234.733 181.517 236.911C185.533 244.259 186.659 250.607 188.171 259.172C211.808 259.172 235.446 259.172 259.799 259.172C258.424 245.413 252.789 234.339 242.187 225.424C221.698 209.977 196.538 212.933 178.314 230.257Z" fill="black"/>
</mask>
<g mask="url(#mask0_64_64)">
<path d="M72.7058 164.163C78.7481 168.38 82.8204 174.287 84.5883 181.464C85.8776 189.45 84.365 196.961 79.9318 203.712C77.9162 206.41 75.8496 208.488 73.1704 210.543C73.7829 210.806 74.3953 211.07 75.0263 211.341C82.9241 214.828 89.747 219.174 96.1705 225C96.5457 224.634 96.921 224.268 97.3076 223.891C103.586 217.982 110.576 213.851 118.513 210.543C118.085 210.16 117.656 209.777 117.214 209.383C111.764 204.27 107.647 198.506 107.185 190.867C106.954 181.332 108.657 174.468 115.228 167.171C121.966 161.148 129.201 159.341 138.025 159.696C145.399 160.209 151.792 163.889 156.697 169.376C162.199 176.755 163.634 184.445 162.542 193.457C161.14 199.832 157.963 204.089 153.342 208.571C152.957 208.956 152.573 209.341 152.177 209.737C151.911 210.003 151.645 210.269 151.371 210.543C152.36 211.009 152.36 211.009 153.37 211.485C161.071 215.182 167.838 219.466 174.371 225C174.666 224.674 174.962 224.348 175.267 224.012C180.234 218.765 185.898 215.392 192.501 212.543C193.934 211.923 195.325 211.255 196.714 210.543C196.38 210.287 196.046 210.031 195.702 209.768C191.998 206.758 189.672 203.613 187.514 199.371C187.297 198.954 187.08 198.536 186.856 198.106C183.594 190.78 184.761 182.882 187.367 175.601C190.768 167.765 197.054 163.771 204.599 160.6C211.077 158.441 219.615 159.372 225.715 162.127C232.589 166.145 237.371 172.23 240.085 179.657C242.01 187.532 240.893 195.137 236.964 202.123C234.92 205.362 232.411 208.794 228.914 210.543C229.855 210.961 229.855 210.961 230.816 211.387C245.65 218.07 256.77 227.359 263.085 242.743C265.026 248.559 266.459 254.169 266.494 260.322C266.503 261.064 266.513 261.806 266.522 262.57C266.371 264.429 266.371 264.429 265.057 265.743C263.231 265.909 263.231 265.909 260.847 265.91C260.188 265.913 260.188 265.913 259.516 265.917C258.03 265.922 256.544 265.918 255.057 265.914C253.987 265.916 252.917 265.919 251.846 265.922C248.893 265.929 245.941 265.927 242.988 265.924C239.808 265.923 236.628 265.929 233.448 265.934C227.213 265.942 220.979 265.943 214.745 265.942C209.68 265.941 204.614 265.942 199.549 265.944C198.47 265.945 198.47 265.945 197.369 265.946C195.907 265.946 194.445 265.947 192.983 265.948C179.261 265.955 165.538 265.954 151.816 265.95C139.25 265.946 126.683 265.954 114.117 265.966C101.228 265.979 88.339 265.984 75.45 265.982C68.2081 265.981 60.9663 265.982 53.7245 265.992C47.5595 265.999 41.3947 266 35.2298 265.992C32.0819 265.989 28.9342 265.988 25.7863 265.996C22.9079 266.003 20.0297 266.001 17.1514 265.992C16.1069 265.99 15.0623 265.991 14.0178 265.997C12.6041 266.003 11.1909 265.998 9.77724 265.989C8.99018 265.989 8.20312 265.989 7.39222 265.989C5.4845 265.743 5.48449 265.743 4.24829 264.846C2.03953 261.618 3.31085 256.206 3.92121 252.551C5.73964 243.205 9.7289 234.813 15.9988 227.629C16.3241 227.203 16.6494 226.776 16.9845 226.337C22.4829 219.396 30.3374 215.232 38.3417 211.857C39.222 211.427 40.1 210.993 40.9703 210.543C40.6365 210.279 40.3028 210.016 39.9589 209.745C34.2717 205.048 30.616 199.436 29.1417 192.143C28.528 182.772 30.3312 175.74 36.2034 168.357C45.6487 158.028 61.1688 157.009 72.7058 164.163ZM40.3953 173.578C36.0215 179.048 35.019 184.588 35.7131 191.486C36.6396 196.804 39.5988 201.128 43.7606 204.516C49.6016 208.574 54.9616 209.159 61.9989 208.571C68.2927 207.048 72.9956 202.263 76.3329 196.912C78.8786 192.072 79.0499 186.882 77.6883 181.67C75.5624 175.282 71.9097 170.983 65.9418 167.828C56.4258 164.244 47.4929 166.087 40.3953 173.578ZM119.381 172.842C114.976 177.565 113.459 182.377 113.515 188.795C113.812 194.811 116.341 199.48 120.649 203.643C126.461 208.284 132.178 209.385 139.542 208.571C145.4 207.264 149.799 203.774 153.273 198.961C156.398 193.574 156.869 188.318 155.971 182.286C154.019 176.252 150.482 171.336 144.881 168.28C135.654 164.098 126.569 165.871 119.381 172.842ZM196.714 173.086C192.776 178.065 190.718 183.769 191.456 190.171C192.744 196.944 196.345 202.006 201.971 205.943C206.856 209.147 212.055 209.161 217.742 208.571C223.624 207.235 228.146 203.699 231.46 198.714C234.529 193.29 235.131 187.216 233.765 181.138C231.692 175.258 227.878 171.101 222.424 168.157C213.112 163.968 204.082 166.05 196.714 173.086ZM19.9417 232.886C14.2405 240.505 10.0845 249.533 10.0845 259.172C33.722 259.172 57.3595 259.172 81.7133 259.172C82.3639 255.485 83.0144 251.798 83.6847 248C85.4201 242.312 87.2766 237.858 90.8081 233.086C91.7523 231.633 91.7523 231.633 91.1905 230.211C84.8848 221.653 73.8063 217.467 63.7496 215.5C46.8469 212.994 30.9314 220.195 19.9417 232.886ZM99.125 231.489C92.5046 239.544 88.2847 248.62 88.2847 259.172C119.079 259.172 149.872 259.172 181.599 259.172C181.599 247.439 176.178 236.84 168.069 228.526C158.948 219.69 146.237 214.827 133.602 215.002C120.305 215.967 107.974 221.329 99.125 231.489ZM178.314 230.257C179.199 232.611 180.262 234.733 181.517 236.911C185.533 244.259 186.659 250.607 188.171 259.172C211.808 259.172 235.446 259.172 259.799 259.172C258.424 245.413 252.789 234.339 242.187 225.424C221.698 209.977 196.538 212.933 178.314 230.257Z" stroke="white" stroke-width="4"/>
</g>
<rect x="26" y="5" width="216" height="110" rx="25" stroke="white" stroke-width="10"/>
<path d="M175.836 24.3751L176.313 24.8478C176.378 24.9131 176.443 24.9774 176.507 25.0409C177.617 26.143 178.492 27.0099 179.026 28.0876C179.559 29.163 179.721 30.3835 179.931 31.9413C179.943 32.0312 179.954 32.1221 179.966 32.2142L180 32.46L179.97 32.7065C179.642 35.452 179.06 37.4186 177.965 39.2176C176.918 40.9358 175.456 42.3987 173.682 44.1719L173.678 44.1754L173.668 44.1861L170.204 47.7026L170.193 47.7141L170.183 47.7253C168.916 48.9696 167.649 50.2129 166.38 51.4553C165.088 52.7442 163.797 54.0344 162.509 55.3255L162.507 55.3279C159.791 58.0374 157.064 60.7318 154.327 63.416C150.835 66.8407 147.379 70.301 143.927 73.7777L143.925 73.7796C141.255 76.4612 138.567 79.1226 135.878 81.7755C134.599 83.042 133.324 84.3143 132.058 85.5922L132.056 85.5944C130.26 87.3973 128.441 89.1704 126.632 90.9308C126.63 90.9324 126.628 90.934 126.626 90.9356L123.539 93.9854L123.412 94.1111L123.264 94.212C121.128 95.6687 119.293 96.4962 117.262 96.8273C115.299 97.1475 113.294 96.9738 110.948 96.7L110.509 96.6487L110.133 96.416L110.032 96.3542C108.789 95.5843 108.029 95.1148 107.312 94.5483C106.598 93.985 105.939 93.3369 104.844 92.2619L104.757 92.1767L102.166 89.632L102.15 89.6161L102.135 89.5998L99.5358 86.9276L96.8479 84.3457L96.8321 84.33L96.8143 84.3139C96.7252 84.2232 96.6361 84.1337 96.5471 84.0452C93.6118 81.0931 91.866 79.3384 90.8407 77.6434C89.7343 75.8151 89.4711 74.0749 89.0891 71.5428C89.0752 71.4621 89.0633 71.3807 89.0515 71.2983L89 70.9643L89.0653 70.6325L89.093 70.4859C89.3959 68.9239 89.5839 67.9615 89.8669 67.0954C90.1579 66.2057 90.5458 65.4363 91.1416 64.2504L91.199 64.1371L91.6443 63.2499L92.628 63.079C94.827 62.6966 96.8083 62.494 98.7738 62.7926C100.783 63.0977 102.62 63.9004 104.607 65.284L104.696 65.3464L104.779 65.4182C108.405 68.5897 111.825 71.9313 115.198 75.2767C121.482 69.9782 127.311 64.3719 133.101 58.446L133.109 58.4377C135.064 56.4593 137.02 54.4819 138.975 52.5051L175.836 24.3751ZM175.836 24.3751L175.169 24.2884ZM175.836 24.3751L175.169 24.2884ZM175.169 24.2884C173.298 24.0451 171.616 23.8753 169.955 24.1174C168.227 24.3692 166.662 25.04 164.898 26.2266L164.734 26.3386L164.593 26.4812L162.353 28.7629L162.339 28.7761L159.76 31.3534L159.748 31.3656L159.736 31.3782L157.003 34.2073C154.03 37.1993 151.059 40.198 148.106 43.2187L148.104 43.2197M175.169 24.2884L148.104 43.2197ZM148.104 43.2197C145.073 46.324 142.027 49.4159 138.977 52.5047L148.104 43.2197Z" fill="#E9967A"/>
<path d="M175.836 24.3751L176.313 24.8478C176.378 24.9131 176.443 24.9774 176.507 25.0409C177.617 26.143 178.492 27.0099 179.026 28.0876C179.559 29.163 179.721 30.3835 179.931 31.9413C179.943 32.0312 179.954 32.1221 179.966 32.2142L180 32.46L179.97 32.7065C179.642 35.452 179.06 37.4186 177.965 39.2176C176.918 40.9358 175.456 42.3987 173.682 44.1719L173.678 44.1754L173.668 44.1861L170.204 47.7026L170.193 47.7141L170.183 47.7253C168.916 48.9696 167.649 50.2129 166.38 51.4553C165.088 52.7442 163.797 54.0344 162.509 55.3255L162.507 55.3279C159.791 58.0374 157.064 60.7318 154.327 63.416C150.835 66.8407 147.379 70.301 143.927 73.7777L143.925 73.7796C141.255 76.4612 138.567 79.1226 135.878 81.7755C134.599 83.042 133.324 84.3143 132.058 85.5922L132.056 85.5944C130.26 87.3973 128.441 89.1704 126.632 90.9308C126.63 90.9324 126.628 90.934 126.626 90.9356L123.539 93.9854L123.412 94.1111L123.264 94.212C121.128 95.6687 119.293 96.4962 117.262 96.8273C115.299 97.1475 113.294 96.9738 110.948 96.7L110.509 96.6487L110.133 96.416L110.032 96.3542C108.789 95.5843 108.029 95.1148 107.312 94.5483C106.598 93.985 105.939 93.3369 104.844 92.2619L104.757 92.1767L102.166 89.632L102.15 89.6161L102.135 89.5998L99.5358 86.9276L96.8479 84.3457L96.8321 84.33L96.8143 84.3139C96.7252 84.2232 96.6361 84.1337 96.5471 84.0452C93.6118 81.0931 91.866 79.3384 90.8407 77.6434C89.7343 75.8151 89.4711 74.0749 89.0891 71.5428C89.0752 71.4621 89.0633 71.3807 89.0515 71.2983L89 70.9643L89.0653 70.6325L89.093 70.4859C89.3959 68.9239 89.5839 67.9615 89.8669 67.0954C90.1579 66.2057 90.5458 65.4363 91.1416 64.2504L91.199 64.1371L91.6443 63.2499L92.628 63.079C94.827 62.6966 96.8083 62.494 98.7738 62.7926C100.783 63.0977 102.62 63.9004 104.607 65.284L104.696 65.3464L104.779 65.4182C108.405 68.5897 111.825 71.9313 115.198 75.2767C121.482 69.9782 127.311 64.3719 133.101 58.446L133.109 58.4377C135.064 56.4593 137.02 54.4819 138.975 52.5051L175.836 24.3751ZM175.836 24.3751L175.169 24.2884M175.169 24.2884C173.298 24.0451 171.616 23.8753 169.955 24.1174C168.227 24.3692 166.662 25.04 164.898 26.2266L164.734 26.3386L164.593 26.4812L162.353 28.7629L162.339 28.7761L159.76 31.3534L159.748 31.3656L159.736 31.3782L157.003 34.2073C154.03 37.1993 151.059 40.198 148.106 43.2187L148.104 43.2197M175.169 24.2884L148.104 43.2197M148.104 43.2197C145.073 46.324 142.027 49.4159 138.977 52.5047L148.104 43.2197Z" stroke="#E9967A" stroke-width="2"/>
<path d="M79 119C68.7 125.418 64.7515 132.41 61 151C63.5344 128.45 51.1733 119.689 49 119H79Z" fill="white" stroke="white"/>
<path d="M186 119C196.3 125.418 200.249 132.41 204 151C201.466 128.45 213.827 119.689 216 119H186Z" fill="white" stroke="white"/>
<path d="M117 119C127.3 125.418 129.749 132.91 133.5 151.5C130.966 128.95 144.827 119.689 147 119H117Z" fill="white" stroke="white"/>
</svg>
