<svg width="307" height="250" viewBox="0 0 307 250" fill="none" xmlns="http://www.w3.org/2000/svg">
<path d="M159.394 1.03545C163.658 3.36865 166.434 6.23517 168.056 10.8452C168.765 15.9267 168.358 19.7455 165.513 24.0495C164.227 25.3924 164.227 25.3924 161.835 26.6276C159.547 28.1725 159.547 28.1725 159.191 30.0608C159.009 32.0253 158.958 33.9471 158.964 35.9199C158.948 36.5999 158.932 37.2799 158.916 37.9806C158.88 39.6551 158.864 41.3272 158.868 43.0021C159.631 42.9941 160.393 42.986 161.179 42.9778C195.129 42.6528 224.227 46.2344 249.979 70.5651C256.799 77.3948 262.026 84.7964 266.775 93.1515C267.237 93.9638 267.237 93.9638 267.709 94.7925C269.886 98.7023 269.886 98.7023 269.886 100.425C270.515 100.5 271.145 100.575 271.794 100.652C280.368 101.801 287.036 103.906 293.62 109.613C294.133 110.044 294.645 110.475 295.173 110.92C302.081 117.218 306.406 125.904 306.894 135.247C307.124 147.186 305.009 157.472 296.578 166.488C289.819 172.799 280.736 177.897 271.259 177.788C270.3 177.777 269.342 177.766 268.354 177.755C268.345 177.069 268.345 177.069 268.336 176.37C268.269 171.537 268.193 166.704 268.111 161.871C268.082 160.076 268.056 158.282 268.031 156.487C267.94 136.501 267.94 136.501 264.478 116.886C264.239 116.007 264.239 116.007 263.995 115.11C259.892 100.982 252.322 89.6301 242.323 78.9871C241.928 78.5341 241.533 78.0811 241.126 77.6144C228.724 64.017 208.63 55.7699 190.508 54.3232C188.46 54.2406 186.414 54.1958 184.364 54.1696C183.628 54.1548 182.893 54.14 182.135 54.1247C179.818 54.0795 177.502 54.0436 175.186 54.0081C173.601 53.9789 172.016 53.949 170.432 53.9184C166.577 53.8455 162.723 53.7809 158.868 53.721C158.868 58.2689 158.868 62.8168 158.868 67.5025C160.005 67.8026 161.142 68.1026 162.313 68.4117C166.689 69.7528 171.213 71.2013 173.654 75.3247C173.975 75.9323 174.296 76.5398 174.626 77.1657C176.311 79.7727 176.311 79.7727 179.005 81.1255C181.108 81.3173 183.125 81.315 185.235 81.2362C186.749 81.2437 188.263 81.2547 189.778 81.2691C190.883 81.2667 190.883 81.2667 192.011 81.2642C208.641 81.423 222.333 88.14 233.901 99.6594C234.47 100.202 235.04 100.745 235.626 101.304C245.492 111.382 249.445 125.716 249.596 139.473C249.417 155.796 243.466 169.319 232.19 181.068C220.461 192.337 205.973 197.002 189.962 197.019C188.666 197.025 188.666 197.025 187.345 197.031C184.496 197.042 181.647 197.047 178.798 197.051C176.808 197.056 174.818 197.06 172.827 197.064C169.187 197.071 165.546 197.076 161.906 197.079C156.577 197.082 151.249 197.095 145.921 197.118C141.281 197.136 136.64 197.142 132 197.143C130.039 197.146 128.079 197.152 126.118 197.162C101.047 197.282 101.047 197.282 90.1517 191.823C89.61 191.56 89.0683 191.296 88.5102 191.025C83.5763 188.527 79.451 185.358 75.4132 181.583C74.9315 181.17 74.4499 180.758 73.9537 180.333C64.4923 171.774 58.6585 158.38 57.6339 145.816C56.9256 128.711 60.4973 113.133 72.0515 100.006C83.0497 88.7207 97.2296 82.3003 112.93 81.2841C114.362 81.2743 115.795 81.277 117.227 81.29C124.948 81.7255 124.948 81.7255 131.745 78.9303C133.012 76.9533 133.012 76.9533 133.991 74.8419C136.057 71.2603 139.798 69.7166 143.555 68.2682C145.829 67.8892 145.829 67.8892 148.149 67.5025C148.149 62.9546 148.149 58.4067 148.149 53.721C143.575 53.7744 139.002 53.8421 134.429 53.922C132.879 53.9472 131.328 53.9687 129.778 53.9863C117.729 54.1264 106.267 54.8061 94.8891 59.1762C93.9832 59.5183 93.9832 59.5183 93.059 59.8673C83.8884 63.475 75.9918 68.7723 68.5224 75.1589C68.0556 75.5241 67.5888 75.8893 67.1078 76.2655C51.4718 88.7316 41.8644 110.622 39.6225 130.052C37.9366 152.787 44.0661 176.283 58.9998 193.833C60.3671 195.385 61.7602 196.906 63.1629 198.427C63.6465 198.982 64.1302 199.536 64.6284 200.108C81.6869 218.669 106.27 223.945 130.312 225.031C131.919 225.098 133.526 225.162 135.133 225.224C135.223 224.647 135.313 224.07 135.405 223.475C136.195 220.149 137.921 218.236 140.493 216.037C148.551 211.169 155.901 209.494 165.238 211.12C172.009 212.881 177.503 216.153 181.287 222.198C183.295 226.847 183.223 231.649 181.741 236.422C178.049 243.068 173.609 246.118 166.524 248.959C158.883 250.929 150.941 250.11 143.98 246.441C140.023 243.999 137.482 241.49 135.133 237.475C135.133 236.717 135.133 235.959 135.133 235.178C134.564 235.194 133.995 235.21 133.408 235.226C104.912 235.92 79.9407 229.269 58.7037 209.52C52.6774 203.762 47.641 197.887 43.2563 190.771C42.7352 189.937 42.2141 189.103 41.6772 188.243C37.6994 181.675 37.6994 181.675 37.1312 177.755C36.6298 177.744 36.1284 177.733 35.6119 177.722C27.966 177.322 21.0184 174.805 14.9276 170.098C14.4598 169.758 13.992 169.417 13.51 169.066C6.90994 163.881 1.47688 155.545 0.380491 147.129C-0.157415 139.444 -0.622904 131.29 2.67741 124.16C2.96757 123.491 3.25774 122.822 3.5567 122.132C8.0058 112.951 15.3081 106.227 24.881 102.722C28.9114 101.558 32.9171 100.425 37.1312 100.425C37.3276 99.7727 37.524 99.1203 37.7264 98.4481C40.6756 90.2035 45.9488 83.1975 51.6783 76.6902C52.2212 76.0457 52.764 75.4012 53.3233 74.7372C69.5693 55.8813 93.2463 45.0088 117.881 43.1339C123.564 42.857 129.253 42.9243 134.942 42.9542C136.228 42.9581 137.514 42.9616 138.8 42.9647C141.916 42.973 145.033 42.9862 148.149 43.0021C148.154 40.6399 148.108 38.2814 148.053 35.9199C148.055 35.2517 148.057 34.5836 148.059 33.8951C148.001 31.9799 147.892 30.3036 147.383 28.4549C145.26 26.5596 145.26 26.5596 142.789 25.3924C139.828 22.2997 138.706 19.2191 138.578 14.9605C138.811 10.4058 140.054 7.68971 142.981 4.19372C148.127 -0.133921 153.161 -0.971985 159.394 1.03545ZM102.306 124.734C101.008 127.331 100.954 129.777 101.445 132.582C102.677 134.958 103.745 136.576 105.847 138.228C109.02 139.11 112.111 139.579 115.059 137.956C117.224 136.232 119.126 134.518 119.82 131.816C119.76 128.04 119.665 126.45 117.284 123.49C114.905 121.609 113.341 120.518 110.345 120.045C106.967 120.527 104.749 122.454 102.306 124.734ZM188.871 123.921C187.553 126.488 187.009 128.955 187.197 131.816C188.693 134.754 190.336 137.214 193.322 138.707C197.044 139.127 198.692 139.099 202.031 137.367C205.06 134.771 205.458 133.593 205.907 129.615C205.817 125.917 204.376 124.375 201.744 121.863C197.265 118.784 192.647 120.405 188.871 123.921ZM129.774 151.723C131.502 159.506 131.502 159.506 136.664 164.739C144.103 169.319 151.259 171.132 159.921 169.62C166.062 168.111 171.465 164.654 174.946 159.379C176.661 155.695 176.661 155.695 177.243 151.723C161.578 151.723 145.913 151.723 129.774 151.723Z" fill="white"/>
</svg>
