<svg width="249" height="250" viewBox="0 0 249 250" fill="none" xmlns="http://www.w3.org/2000/svg">
<path d="M7.59533 67.6053C8.1948 67.6026 8.79427 67.5998 9.41191 67.5969C10.0751 67.597 10.7384 67.5972 11.4217 67.5973C12.4731 67.5938 12.4731 67.5938 13.5458 67.5903C15.9107 67.5834 18.2756 67.5811 20.6405 67.5787C22.3296 67.5751 24.0186 67.5707 25.7076 67.5663C30.7877 67.554 35.8678 67.5477 40.948 67.5422C43.339 67.5394 45.73 67.5361 48.1209 67.5328C56.0668 67.5222 64.0126 67.5132 71.9584 67.5087C74.021 67.5075 76.0836 67.5063 78.1462 67.5051C78.9152 67.5046 78.9152 67.5046 79.6998 67.5042C88.008 67.499 96.3162 67.4832 104.624 67.463C113.15 67.4424 121.675 67.4312 130.201 67.4292C134.989 67.4278 139.778 67.4224 144.566 67.4065C148.644 67.393 152.721 67.3879 156.798 67.394C158.879 67.3968 160.96 67.3942 163.041 67.3835C165.296 67.3726 167.55 67.3769 169.805 67.3851C170.464 67.3783 171.123 67.3714 171.802 67.3644C174.528 67.3885 176.22 67.4112 178.609 68.7981C180.554 71.0308 181.215 72.6973 181.218 75.6556C181.222 76.2575 181.225 76.8595 181.229 77.4797C181.227 78.1393 181.224 78.7989 181.222 79.4785C181.224 80.1805 181.227 80.8825 181.229 81.6058C181.235 83.9669 181.233 86.3278 181.23 88.6889C181.232 90.3781 181.236 92.0673 181.24 93.7565C181.248 97.8737 181.249 101.991 181.248 106.108C181.247 109.454 181.248 112.8 181.25 116.146C181.251 116.622 181.251 117.098 181.251 117.588C181.252 118.555 181.253 119.522 181.254 120.489C181.261 129.559 181.259 138.629 181.255 147.699C181.252 155.999 181.259 164.299 181.271 172.599C181.283 181.119 181.288 189.638 181.286 198.158C181.285 202.943 181.286 207.727 181.295 212.511C181.302 216.584 181.303 220.657 181.296 224.73C181.292 226.808 181.292 228.886 181.299 230.965C181.305 233.217 181.3 235.469 181.292 237.721C181.297 238.379 181.302 239.037 181.306 239.715C181.265 245.322 181.265 245.322 179.191 247.72C177.33 249.368 176.183 249.823 173.706 249.828C173.102 249.834 172.498 249.839 171.875 249.845C170.882 249.84 170.882 249.84 169.869 249.835C169.165 249.839 168.46 249.843 167.734 249.846C165.364 249.857 162.995 249.854 160.625 249.851C158.93 249.854 157.234 249.861 155.539 249.867C151.407 249.88 147.275 249.883 143.143 249.882C139.784 249.881 136.426 249.883 133.068 249.888C132.101 249.889 131.134 249.89 130.168 249.892C129.446 249.893 129.446 249.893 128.71 249.894C119.607 249.905 110.504 249.905 101.401 249.901C93.0706 249.897 84.7404 249.91 76.4101 249.931C67.8592 249.952 59.3085 249.961 50.7576 249.958C45.9559 249.957 41.1542 249.96 36.3525 249.976C32.2648 249.989 28.1773 249.991 24.0896 249.979C22.0036 249.974 19.9181 249.975 17.832 249.986C15.5715 249.997 13.3118 249.989 11.0513 249.976C10.3907 249.984 9.73006 249.992 9.0494 250C4.60541 249.946 4.60541 249.946 2.19241 248.086C0.655657 245.96 0.326755 244.959 0.319605 242.381C0.316444 241.778 0.313283 241.174 0.310026 240.553C0.309716 239.885 0.309406 239.217 0.309086 238.529C0.306356 237.824 0.303626 237.118 0.300813 236.391C0.292448 234.011 0.288619 231.63 0.284809 229.249C0.280219 227.549 0.274742 225.849 0.269372 224.148C0.254087 219.034 0.244982 213.92 0.236942 208.805C0.23463 207.361 0.232155 205.917 0.229621 204.473C0.213901 195.509 0.20016 186.545 0.192413 177.581C0.190588 175.504 0.188743 173.427 0.186866 171.35C0.186401 170.834 0.185936 170.317 0.185457 169.786C0.177573 161.421 0.156876 153.057 0.130924 144.693C0.104509 136.109 0.0898179 127.525 0.0865616 118.941C0.0844337 114.12 0.0770982 109.3 0.0565964 104.479C0.039166 100.373 0.0322961 96.268 0.0392757 92.1625C0.0425101 90.0675 0.0389946 87.9731 0.0252808 85.8782C0.0112201 83.6069 0.0162788 81.3365 0.0262052 79.0652C0.0175574 78.4031 0.00890984 77.741 0 77.0589C0.0537182 72.0839 0.053718 72.0839 1.90813 69.7812C3.98752 67.8854 4.86615 67.6112 7.59533 67.6053ZM19.7163 86.3773C18.4119 88.022 18.4704 88.8764 18.4704 91.0105C19.2772 93.8849 20.3186 94.7801 22.831 96.3445C25.4589 96.8919 26.3419 96.4857 28.6322 95.0596C30.6243 92.8823 30.9816 91.7987 30.9293 88.8691C29.8646 86.2666 28.4805 85.0602 25.9458 83.8855C22.9666 83.8855 22.0252 84.5704 19.7163 86.3773ZM40.2735 86.3773C38.9691 88.022 39.0276 88.8764 39.0276 91.0105C39.8345 93.8849 40.8758 94.7801 43.3882 96.3445C45.3625 96.7558 46.4469 96.775 48.1698 95.6826C50.2583 94.0079 51.3577 92.929 51.7201 90.2707C51.3976 87.4756 50.4297 86.3913 48.3718 84.5085C44.8157 83.3447 43.0711 83.9701 40.2735 86.3773ZM60.8307 85.7544C59.2989 88.0521 59.0858 89.9399 59.5848 92.6068C61.1603 94.8506 62.2248 95.5748 64.841 96.3834C67.5782 96.3354 68.7193 95.5848 70.7979 93.8527C71.8028 91.8428 71.7872 89.7964 71.4208 87.6232C69.9268 85.5579 68.8851 84.7056 66.4762 83.8855C64.1029 83.8855 62.8211 84.4878 60.8307 85.7544ZM13.4868 106.935C13.4868 149.694 13.4868 192.453 13.4868 236.507C64.2632 236.507 115.04 236.507 167.355 236.507C167.355 193.748 167.355 150.989 167.355 106.935C116.578 106.935 65.8019 106.935 13.4868 106.935Z" fill="white"/>
<path d="M75.0366 0.172109C75.6407 0.166467 76.2448 0.160826 76.8672 0.155013C77.5292 0.158332 78.1913 0.161651 78.8734 0.165071C79.5779 0.161276 80.2825 0.157482 81.0084 0.153572C83.3781 0.14317 85.7476 0.146194 88.1173 0.149178C89.8127 0.145628 91.508 0.139318 93.2034 0.133189C97.3356 0.120065 101.468 0.117246 105.6 0.118356C108.958 0.11917 112.316 0.116803 115.674 0.112173C116.641 0.110865 117.608 0.109559 118.575 0.108253C119.297 0.107278 119.297 0.107278 120.033 0.106283C129.136 0.0945046 138.239 0.0951631 147.342 0.0994115C155.672 0.102885 164.002 0.0899094 172.332 0.0692855C180.883 0.0482797 189.434 0.0388188 197.985 0.0416996C202.787 0.0430989 207.588 0.039817 212.39 0.024324C216.478 0.0112475 220.565 0.00898288 224.653 0.020773C226.739 0.0264864 228.824 0.0254822 230.911 0.014322C233.171 0.00306069 235.431 0.010879 237.691 0.0236301C238.682 0.0119332 238.682 0.0119332 239.693 0C244.137 0.0539526 244.137 0.0539525 246.55 1.91446C248.087 4.04048 248.416 5.04055 248.423 7.61885C248.428 8.52399 248.428 8.52399 248.432 9.44742C248.433 10.1151 248.433 10.7827 248.433 11.4706C248.436 12.1762 248.439 12.8818 248.442 13.6088C248.45 15.9895 248.454 18.3701 248.458 20.7508C248.462 22.4511 248.468 24.1514 248.473 25.8517C248.488 30.966 248.498 36.0803 248.506 41.1946C248.508 42.6387 248.51 44.0828 248.513 45.5269C248.529 54.491 248.542 63.4551 248.55 72.4193C248.552 74.4962 248.554 76.5732 248.556 78.6501C248.556 79.1664 248.557 79.6826 248.557 80.2144C248.565 88.5787 248.586 96.9428 248.612 105.307C248.638 113.891 248.653 122.475 248.656 131.059C248.658 135.88 248.665 140.7 248.686 145.521C248.703 149.627 248.71 153.732 248.703 157.837C248.7 159.932 248.703 162.027 248.717 164.122C248.731 166.393 248.726 168.664 248.716 170.935C248.725 171.597 248.734 172.259 248.742 172.941C248.689 177.916 248.689 177.916 246.834 180.219C244.209 182.613 242.211 182.397 238.803 182.382C238.268 182.382 237.734 182.382 237.182 182.382C235.409 182.382 233.637 182.377 231.864 182.372C230.636 182.371 229.409 182.37 228.182 182.369C224.948 182.367 221.713 182.361 218.479 182.354C215.181 182.347 211.882 182.345 208.583 182.341C202.108 182.335 195.633 182.324 189.158 182.311C189.158 177.994 189.158 173.677 189.158 169.229C204.37 169.229 219.582 169.229 235.256 169.229C235.256 126.265 235.256 83.3 235.256 39.0334C184.479 39.0334 133.703 39.0334 81.388 39.0334C81.388 46.2285 81.388 53.4235 81.388 60.8365C76.8654 60.8365 72.3428 60.8365 67.6831 60.8365C67.6409 53.6616 67.6066 46.4867 67.5863 39.3116C67.5766 35.98 67.5633 32.6484 67.5422 29.3168C67.5219 26.1016 67.5107 22.8866 67.5058 19.6714C67.5024 18.4447 67.4956 17.218 67.4856 15.9913C67.472 14.2732 67.4701 12.5555 67.471 10.8374C67.4643 10.3301 67.4576 9.8229 67.4506 9.30031C67.4663 6.42323 67.7265 4.54088 69.552 2.2796C71.408 0.626771 72.5613 0.176754 75.0366 0.172109ZM86.3715 20.345C85.5675 22.6153 85.5098 23.5693 86.5273 25.7569C87.0669 26.47 87.0669 26.47 87.6174 27.1975C87.8615 27.5701 88.1057 27.9427 88.3572 28.3265C90.2617 29.5743 92.3066 29.4584 94.4698 29.0663C96.2203 27.9489 97.279 27.1857 98.2075 25.3286C98.4532 22.7238 98.4881 21.3982 97.0395 19.177C95.366 17.5035 94.8155 17.2702 92.4453 16.9967C89.4567 17.2956 88.3798 18.1455 86.3715 20.345ZM106.929 19.7221C105.963 21.6535 106.125 23.1975 106.306 25.3286C107.424 27.0438 108.207 28.1482 110.043 29.0663C113.731 29.4669 113.731 29.4669 116.857 27.7036C118.167 25.9174 118.71 25.0321 118.765 22.8368C118.267 20.7946 117.605 19.8133 116.156 18.2815C112.541 16.1127 109.814 16.837 106.929 19.7221ZM127.486 19.7221C126.52 21.6535 126.682 23.1975 126.863 25.3286C127.982 27.0438 128.765 28.1482 130.601 29.0663C134.275 29.4591 134.275 29.4591 137.414 27.7425C138.846 25.7468 139.322 24.6644 139.322 22.2139C138.602 20.5121 138.602 20.5121 137.453 19.0992C137.209 18.7266 136.965 18.354 136.713 17.9701C133.365 15.7765 130.011 17.1208 127.486 19.7221Z" fill="#E9967A"/>
<path d="M107.552 134.967C109.109 136.252 109.109 136.252 110.043 138.082C109.84 141.588 109.056 144.367 107.53 147.533C107.24 148.157 107.24 148.157 106.944 148.793C106.527 149.689 106.107 150.584 105.684 151.477C104.537 153.899 103.412 156.332 102.283 158.763C102.049 159.266 101.815 159.769 101.573 160.287C99.301 165.17 97.1136 170.089 94.9393 175.017C93.71 177.8 92.4715 180.578 91.2347 183.358C90.2804 185.503 89.3289 187.65 88.3846 189.8C87.3867 192.072 86.3737 194.336 85.3592 196.6C84.9289 197.59 84.9289 197.59 84.4899 198.6C82.8976 202.119 81.5867 204.528 78.2732 206.606C75.7894 206.649 74.4577 206.346 72.3942 204.971C71.0381 202.909 71.2439 201.576 71.4208 199.131C71.9485 197.571 72.4947 196.177 73.185 194.697C73.374 194.275 73.563 193.853 73.7578 193.418C74.3855 192.022 75.0249 190.632 75.6646 189.241C76.1123 188.253 76.5594 187.264 77.0059 186.276C78.4535 183.079 79.9192 179.891 81.388 176.705C81.6388 176.16 81.8896 175.615 82.1481 175.053C84.428 170.101 86.7126 165.152 89.0189 160.212C91.1779 155.588 93.3304 150.963 95.3872 146.292C95.6993 145.589 96.0115 144.886 96.333 144.161C96.8862 142.909 97.4321 141.653 97.9686 140.393C98.9988 138.07 99.6879 136.531 101.675 134.904C103.894 134.085 105.297 134.311 107.552 134.967Z" fill="#E9967A"/>
<path d="M118.765 146.18C120.563 146.769 122.227 147.571 123.921 148.409C124.401 148.638 124.881 148.867 125.375 149.104C126.9 149.834 128.419 150.577 129.939 151.319C130.957 151.809 131.975 152.298 132.994 152.787C135.304 153.897 137.611 155.012 139.912 156.142C140.793 156.575 141.676 157.005 142.561 157.432C143.001 157.647 143.442 157.862 143.896 158.084C144.29 158.275 144.684 158.466 145.09 158.662C147.496 159.993 148.987 161.492 149.873 164.09C149.924 166.748 149.81 169.293 148.666 171.721C145.865 174.352 142.968 175.948 139.495 177.549C138.982 177.79 138.469 178.032 137.941 178.281C136.314 179.045 134.684 179.802 133.054 180.559C131.956 181.074 130.859 181.589 129.762 182.105C117.908 187.665 117.908 187.665 113.781 186.672C112.498 185.688 112.008 184.995 111.289 183.557C111.039 181.304 111.051 180.181 112.312 178.265C113.956 176.519 115.389 175.698 117.55 174.673C118.282 174.323 119.013 173.973 119.766 173.613C120.145 173.436 120.525 173.26 120.916 173.078C122.068 172.541 123.214 171.993 124.36 171.442C127.871 169.78 131.212 168.354 134.961 167.36C134.961 166.949 134.961 166.538 134.961 166.114C134.187 165.876 133.413 165.637 132.616 165.392C128.95 164.168 125.512 162.534 122.035 160.858C121.403 160.561 120.771 160.263 120.12 159.957C112.651 156.379 112.651 156.379 111.289 153.656C110.984 150.956 110.992 149.718 112.574 147.465C114.908 145.826 115.943 145.921 118.765 146.18Z" fill="#E9967A"/>
<path d="M66.4373 146.18C68.772 147.477 69.4242 148.233 70.1749 150.813C70.1749 153.39 69.8715 154.135 68.3061 156.147C66.7571 157.092 65.3055 157.875 63.6705 158.632C63.2198 158.849 62.7691 159.065 62.3048 159.289C61.3554 159.744 60.4039 160.194 59.4506 160.641C57.9875 161.326 56.5307 162.024 55.0746 162.724C54.1506 163.164 53.2264 163.604 52.3017 164.044C51.8644 164.252 51.427 164.46 50.9764 164.675C47.8959 166.114 47.8959 166.114 46.503 166.114C46.503 166.526 46.503 166.937 46.503 167.36C47.0348 167.528 47.5667 167.696 48.1146 167.869C51.4693 169.032 54.6551 170.564 57.8722 172.058C59.0798 172.617 60.2904 173.17 61.5011 173.722C62.2731 174.079 63.0449 174.437 63.8165 174.794C64.5137 175.116 65.2108 175.437 65.9291 175.769C67.4894 176.601 68.4963 177.175 69.552 178.573C70.5703 182.783 70.5703 182.783 69.2405 185.387C67.1778 187.089 65.9945 187.197 63.3225 187.295C61.3639 186.744 59.5855 185.897 57.7574 185.012C57.2361 184.77 56.7149 184.527 56.1778 184.278C55.0786 183.764 53.9819 183.245 52.8874 182.722C51.2262 181.928 49.5585 181.148 47.8888 180.372C46.8173 179.869 45.7462 179.365 44.6755 178.861C44.1835 178.629 43.6915 178.398 43.1845 178.16C33.6444 173.586 33.6444 173.586 32.1752 170.475C31.4814 167.672 31.4356 165.398 32.0584 162.571C35.4846 157.383 42.9294 155.14 48.4108 152.643C49.1754 152.292 49.9399 151.94 50.7042 151.587C52.8312 150.61 54.9616 149.64 57.0931 148.672C57.6605 148.411 58.2279 148.15 58.8126 147.881C59.3075 147.655 59.8025 147.43 60.3124 147.197C60.731 147.006 61.1495 146.814 61.5807 146.616C63.3213 145.938 64.6061 145.847 66.4373 146.18Z" fill="#E9967A"/>
</svg>
