<svg width="414" height="250" viewBox="0 0 414 250" fill="none" xmlns="http://www.w3.org/2000/svg">
<path d="M130.96 0.266859C132.274 0.259835 132.274 0.259835 133.616 0.25267C136.546 0.239612 139.475 0.241277 142.405 0.242985C144.508 0.236799 146.612 0.229766 148.715 0.221949C154.425 0.203697 160.135 0.198846 165.844 0.197527C169.413 0.196058 172.982 0.191644 176.55 0.186165C189.004 0.167046 201.458 0.158603 213.912 0.160229C225.514 0.161471 237.116 0.139663 248.718 0.10702C258.685 0.0799786 268.652 0.0689066 278.619 0.0702273C284.569 0.0707539 290.519 0.0648855 296.469 0.0429898C302.067 0.0229535 307.664 0.0228348 313.262 0.037857C315.313 0.0400153 317.364 0.0351544 319.414 0.0226438C322.222 0.00663271 325.028 0.0163214 327.835 0.0322156C328.64 0.0215845 329.445 0.0109533 330.274 0C337.097 0.084944 343.409 2.02946 348.565 6.63489C349.014 7.28898 349.463 7.94308 349.925 8.61699C350.627 9.58615 350.627 9.58615 351.342 10.5749C354.9 17.4225 354.921 23.9532 354.842 31.5102C354.838 33.112 354.838 33.112 354.834 34.7461C354.822 38.1364 354.796 41.5264 354.77 44.9167C354.759 47.2237 354.75 49.5308 354.741 51.8379C354.719 57.4755 354.684 63.1129 354.641 68.7504C355.222 68.7435 355.804 68.7366 356.404 68.7295C362.473 68.6608 368.541 68.6141 374.611 68.5801C376.874 68.5645 379.137 68.5434 381.401 68.5165C384.659 68.4788 387.916 68.4613 391.174 68.4476C392.182 68.4316 393.19 68.4156 394.228 68.3992C401.018 68.3975 405.488 69.3499 410.769 73.9176C413.86 77.5802 413.68 80.8928 413.692 85.5041C413.698 86.8487 413.704 88.1933 413.71 89.5786C413.711 91.0721 413.712 92.5656 413.713 94.0591C413.718 95.6294 413.723 97.1996 413.729 98.7698C413.742 103.038 413.749 107.306 413.754 111.575C413.757 114.241 413.761 116.907 413.766 119.573C413.78 127.914 413.79 136.254 413.794 144.594C413.798 154.225 413.816 163.855 413.846 173.486C413.869 180.928 413.879 188.371 413.881 195.814C413.882 200.26 413.888 204.705 413.906 209.151C413.923 213.333 413.925 217.515 413.916 221.697C413.916 223.231 413.92 224.766 413.93 226.3C413.943 228.395 413.935 230.491 413.927 232.587C413.928 233.759 413.93 234.932 413.931 236.14C413.344 240.921 411.414 243.542 407.927 246.761C403.234 249.966 398.733 249.761 393.185 249.769C392.388 249.774 391.591 249.78 390.77 249.785C388.138 249.8 385.506 249.807 382.875 249.813C381.042 249.819 379.209 249.825 377.376 249.831C373.535 249.841 369.693 249.847 365.852 249.851C360.935 249.857 356.02 249.882 351.104 249.911C347.318 249.93 343.532 249.936 339.747 249.937C337.935 249.94 336.123 249.949 334.31 249.962C331.773 249.98 329.236 249.978 326.698 249.971C325.953 249.981 325.209 249.99 324.442 250C318.442 249.951 314.394 248.34 309.88 244.436C306.722 240.693 306.976 237.271 306.985 232.56C306.985 231.53 306.985 231.53 306.985 230.479C306.985 228.259 306.993 226.039 307.001 223.819C307.002 222.461 307.003 221.103 307.004 219.704C307.01 214.621 307.024 209.538 307.038 204.454C307.059 193.094 307.08 181.733 307.102 170.028C283.571 170.028 260.039 170.028 235.795 170.028C235.795 173.438 235.795 176.848 235.795 180.362C237.025 180.346 238.256 180.33 239.524 180.313C244.092 180.257 248.66 180.221 253.229 180.192C255.206 180.176 257.183 180.155 259.159 180.128C262.002 180.091 264.844 180.073 267.686 180.059C268.569 180.043 269.452 180.027 270.361 180.011C274.01 180.01 276.476 180.027 279.761 181.705C281.266 183.462 281.266 183.462 281.718 187.08C281.266 190.697 281.266 190.697 279.953 192.451C277.757 194.105 276.651 194.174 273.924 194.149C272.652 194.149 272.652 194.149 271.354 194.148C270.444 194.132 269.533 194.116 268.594 194.1C267.19 194.093 267.19 194.093 265.758 194.086C262.767 194.069 259.777 194.03 256.787 193.991C254.759 193.975 252.732 193.961 250.705 193.948C245.735 193.914 240.765 193.861 235.795 193.797C235.819 195.236 235.819 195.236 235.844 196.705C235.897 200.26 235.936 203.815 235.965 207.371C235.981 208.911 236.002 210.45 236.029 211.99C236.066 214.201 236.084 216.412 236.097 218.624C236.122 220.621 236.122 220.621 236.147 222.658C236.031 223.706 235.914 224.754 235.795 225.834C231.85 228.463 228.674 228.191 224.103 228.17C223.217 228.174 222.33 228.178 221.416 228.182C218.434 228.193 215.452 228.188 212.47 228.184C210.336 228.189 208.203 228.194 206.069 228.2C200.266 228.214 194.462 228.215 188.659 228.212C183.82 228.211 178.981 228.216 174.142 228.221C162.731 228.233 151.32 228.233 139.909 228.227C128.122 228.22 116.335 228.233 104.548 228.255C94.4395 228.273 84.3315 228.28 74.2235 228.276C68.181 228.274 62.1387 228.277 56.0963 228.291C50.4165 228.304 44.7369 228.303 39.0571 228.289C36.9686 228.287 34.8801 228.289 32.7916 228.298C29.9484 228.309 27.1058 228.3 24.2625 228.287C23.4293 228.295 22.596 228.302 21.7375 228.31C16.2659 228.257 16.2659 228.257 13.6095 226.664C12.1986 224.131 12.178 222.287 12.1706 219.387C12.1603 218.266 12.1501 217.144 12.1396 215.989C12.1442 214.758 12.1489 213.527 12.1537 212.26C12.1466 210.964 12.1395 209.668 12.1322 208.333C12.1165 204.778 12.1149 201.223 12.1207 197.668C12.1239 194.701 12.1176 191.735 12.1114 188.769C12.0969 181.772 12.0985 174.775 12.1103 167.779C12.1221 160.556 12.1076 153.334 12.0799 146.112C12.057 139.914 12.0501 133.716 12.0562 127.518C12.0597 123.814 12.0571 120.112 12.0394 116.408C12.0205 112.281 12.035 108.154 12.0527 104.027C12.0427 102.796 12.0328 101.566 12.0225 100.298C12.0326 99.1762 12.0428 98.0547 12.0533 96.8992C12.0535 95.923 12.0537 94.9468 12.0539 93.941C12.5712 91.4861 12.5712 91.4861 14.431 89.621C17.9073 87.7327 21.3832 87.9806 25.238 88.0338C26.0953 88.0334 26.9527 88.0329 27.8361 88.0325C30.6657 88.0346 33.4947 88.0587 36.3242 88.083C38.2878 88.0888 40.2513 88.0932 42.2149 88.0963C47.3798 88.1082 52.5445 88.1386 57.7093 88.1729C62.9809 88.2047 68.2525 88.2188 73.5241 88.2344C83.8654 88.2677 94.2065 88.3206 104.548 88.3858C104.536 87.5284 104.525 86.6709 104.513 85.7875C104.409 77.6696 104.33 69.5519 104.28 61.4335C104.253 57.2606 104.217 53.0883 104.158 48.9157C104.101 44.8818 104.071 40.8484 104.057 36.8141C104.048 35.2823 104.029 33.7505 104.001 32.2189C103.827 22.3361 104.389 13.819 111.206 6.08527C117.017 0.78669 123.427 0.237167 130.96 0.266859ZM119.016 18.1117C117.563 21.0179 117.859 23.4241 117.865 26.6745C117.865 27.34 117.865 28.0056 117.865 28.6913C117.865 30.8945 117.873 33.0976 117.881 35.3008C117.883 36.8271 117.885 38.3533 117.886 39.8796C117.89 43.8994 117.9 47.9191 117.911 51.9388C117.922 56.0396 117.927 60.1404 117.932 64.2412C117.943 72.2894 117.961 80.3376 117.982 88.3858C118.857 88.3909 118.857 88.3909 119.749 88.3962C133.929 88.4801 148.108 88.5754 162.287 88.683C169.144 88.7346 176.001 88.7825 182.858 88.8218C189.472 88.8598 196.086 88.9077 202.699 88.9625C205.226 88.9817 207.753 88.9973 210.28 89.0093C213.812 89.0267 217.343 89.0567 220.874 89.0897C221.925 89.092 222.977 89.0942 224.061 89.0965C225.502 89.1138 225.502 89.1138 226.972 89.1315C228.226 89.14 228.226 89.14 229.504 89.1488C231.661 89.4193 231.661 89.4193 234.761 91.4861C236.034 94.8017 235.954 98.1662 236.007 101.686C236.028 102.924 236.049 104.161 236.07 105.436C236.096 107.379 236.096 107.379 236.122 109.361C236.141 110.556 236.16 111.75 236.18 112.981C236.251 117.442 236.313 121.904 236.376 126.365C236.6 141.328 236.6 141.328 236.828 156.593C260.019 156.593 283.209 156.593 307.102 156.593C307.141 151.058 307.18 145.523 307.219 139.82C307.251 136.311 307.283 132.802 307.318 129.294C307.374 123.726 307.427 118.158 307.46 112.59C307.487 108.1 307.529 103.611 307.581 99.1212C307.598 97.4093 307.61 95.6973 307.616 93.9854C307.626 91.5853 307.655 89.1862 307.689 86.7864C307.687 86.0803 307.686 85.3741 307.684 84.6465C307.771 80.2158 308.591 77.4743 311.236 73.9176C315.369 70.1844 319.225 69.6886 324.655 69.4569C325.62 69.4136 326.586 69.3703 327.581 69.3257C328.582 69.285 329.582 69.2444 330.613 69.2025C331.629 69.1579 332.646 69.1133 333.693 69.0673C336.197 68.9579 338.701 68.8524 341.206 68.7504C341.285 62.0749 341.339 55.3995 341.376 48.7237C341.392 46.4532 341.413 44.1828 341.44 41.9125C341.477 38.6468 341.495 35.3815 341.509 32.1157C341.525 31.1025 341.541 30.0893 341.557 29.0455C341.574 22.0251 341.574 22.0251 338.105 16.0449C334.217 13.4528 331.166 13.6838 326.663 13.7016C325.804 13.6969 324.944 13.6922 324.058 13.6874C321.166 13.6743 318.274 13.676 315.382 13.6777C313.313 13.6716 311.244 13.6645 309.175 13.6567C303.547 13.6384 297.918 13.6336 292.29 13.6323C287.595 13.6303 282.9 13.6227 278.205 13.6154C267.131 13.5985 256.057 13.5935 244.982 13.595C233.55 13.5962 222.117 13.5744 210.685 13.5418C200.877 13.5148 191.069 13.5037 181.261 13.505C175.4 13.5055 169.539 13.4996 163.678 13.4777C158.166 13.4578 152.654 13.4575 147.142 13.4726C145.118 13.4748 143.094 13.4699 141.07 13.4574C138.308 13.4415 135.548 13.451 132.787 13.467C131.582 13.451 131.582 13.451 130.353 13.4347C125.246 13.5001 122.59 14.4462 119.016 18.1117ZM320.537 82.1852C320.537 133 320.537 183.814 320.537 236.168C346.797 236.168 373.057 236.168 400.112 236.168C400.112 185.354 400.112 134.539 400.112 82.1852C398.066 82.1852 396.02 82.1852 393.911 82.1852C393.07 83.8857 393.07 83.8857 392.212 85.6205C391.465 87.1237 390.718 88.6267 389.971 90.1297C389.603 90.8751 389.235 91.6204 388.855 92.3884C384.595 100.948 384.595 100.948 382.544 103.887C378.658 105.183 375.007 105.109 370.958 105.131C370.126 105.137 369.294 105.143 368.436 105.149C366.676 105.158 364.916 105.165 363.156 105.169C360.471 105.179 357.786 105.211 355.101 105.244C353.389 105.251 351.678 105.256 349.966 105.26C349.166 105.273 348.366 105.286 347.542 105.299C342.834 105.279 339.711 104.855 336.039 101.821C334.709 99.7774 334.709 99.7774 333.762 97.4849C333.234 96.248 333.234 96.248 332.696 94.9861C332.35 94.1295 332.003 93.2729 331.646 92.3904C330.932 90.6862 330.216 88.9826 329.499 87.2797C329.191 86.5255 328.883 85.7714 328.565 84.9943C327.901 83.2255 327.901 83.2255 326.738 82.1852C324.691 82.1852 322.645 82.1852 320.537 82.1852ZM342.239 82.1852C343.581 87.8005 343.581 87.8005 346.373 92.5196C348.44 92.6101 350.509 92.6301 352.578 92.6205C354.461 92.6155 354.461 92.6155 356.382 92.6104C357.705 92.6018 359.027 92.5931 360.389 92.5842C362.378 92.5772 362.378 92.5772 364.408 92.57C367.697 92.5578 370.987 92.5408 374.276 92.5196C374.97 91.1873 375.658 89.8518 376.343 88.515C376.727 87.7716 377.11 87.0283 377.505 86.2624C378.551 84.3053 378.551 84.3053 378.41 82.1852C366.473 82.1852 354.537 82.1852 342.239 82.1852ZM26.006 101.821C26.006 138.993 26.006 176.166 26.006 214.466C91.1438 214.466 156.282 214.466 223.393 214.466C223.393 176.916 222.986 139.365 222.36 101.821C157.563 101.821 92.7663 101.821 26.006 101.821Z" fill="white"/>
<path d="M7.41995 235.781C8.26658 235.773 9.11322 235.766 9.98551 235.758C10.9153 235.766 11.8451 235.773 12.803 235.781C13.791 235.777 14.779 235.773 15.7969 235.769C19.1221 235.759 22.4468 235.771 25.772 235.783C28.1499 235.781 30.5279 235.777 32.9058 235.772C39.3753 235.762 45.8447 235.772 52.3143 235.786C59.074 235.797 65.8336 235.793 72.5933 235.791C83.9466 235.79 95.2998 235.801 106.653 235.821C118.34 235.84 130.027 235.848 141.713 235.842C155.788 235.835 169.863 235.838 183.938 235.851C189.318 235.856 194.698 235.857 200.078 235.855C206.409 235.853 212.74 235.861 219.071 235.878C221.4 235.882 223.728 235.883 226.057 235.88C229.226 235.877 232.394 235.886 235.563 235.899C236.493 235.895 237.423 235.891 238.381 235.887C239.651 235.896 239.651 235.896 240.946 235.905C242.044 235.906 242.044 235.906 243.164 235.908C245.096 236.168 245.096 236.168 248.196 238.235C249.1 240.625 249.1 240.625 249.23 243.402C247.938 246.244 247.938 246.244 246.129 248.569C241.979 249.953 237.988 249.749 233.66 249.741C232.69 249.743 231.72 249.746 230.72 249.748C227.454 249.755 224.189 249.754 220.923 249.753C218.588 249.756 216.252 249.759 213.917 249.763C207.562 249.773 201.208 249.775 194.854 249.776C189.555 249.777 184.257 249.78 178.959 249.784C167.176 249.792 155.394 249.795 143.612 249.794C142.905 249.794 142.198 249.794 141.469 249.794C140.761 249.794 140.053 249.794 139.324 249.794C127.846 249.794 116.368 249.804 104.89 249.818C93.1089 249.833 81.328 249.84 69.5471 249.839C62.9311 249.839 56.3151 249.842 49.6992 249.853C43.4791 249.863 37.259 249.863 31.0389 249.855C28.7526 249.854 26.4662 249.857 24.1799 249.863C21.0656 249.871 17.9515 249.866 14.8373 249.858C13.9266 249.864 13.0159 249.869 12.0776 249.874C11.2433 249.87 10.409 249.865 9.54943 249.86C8.83063 249.86 8.11183 249.86 7.37125 249.861C4.93525 249.552 3.29058 248.817 1.20356 247.536C-0.242592 244.644 -0.0909898 242.467 0.170114 239.268C2.35556 236.386 3.85474 235.78 7.41995 235.781Z" fill="#E9967A"/>
<path d="M363.942 217.566C366.691 219.215 367.017 220.594 368.076 223.637C368.076 226.867 368.076 226.867 366.009 229.903C362.908 232.034 362.908 232.034 359.162 232.099C355.674 231.001 355.674 231.001 353.607 229.257C352.184 225.966 352.594 224.067 353.607 220.666C356.074 216.556 359.523 217.093 363.942 217.566Z" fill="#E9967A"/>
</svg>
